<svg width="28" height="20" viewBox="0 0 28 20" fill="none" xmlns="http://www.w3.org/2000/svg">
<path fill-rule="evenodd" clip-rule="evenodd" d="M7.80619 0H25.5485C26.7683 0 27.7663 0.997743 27.7663 2.21782V7.60048H23.8324C23.7396 5.54206 22.041 3.89505 19.9604 3.89505H5.58836V2.21782C5.58836 0.997743 6.58638 0 7.80619 0ZM25.5485 13.8614H23.8416V10.5857H27.7663V11.6436C27.7663 12.8634 26.7683 13.8614 25.5485 13.8614Z" fill="#FEDBE6"/>
<path fill-rule="evenodd" clip-rule="evenodd" d="M2.21782 5.55841H19.9604C21.1802 5.55841 22.1782 6.55615 22.1782 7.77623V17.202C22.1782 18.4221 21.1802 19.4198 19.9604 19.4198H2.21782C0.99802 19.4198 0 18.4221 0 17.202V7.77623C0 6.55615 0.99802 5.55841 2.21782 5.55841ZM5.16642 11.8049C5.47137 11.8049 5.72087 11.5551 5.72087 11.2505V9.15433C5.72087 8.84966 5.47137 8.59988 5.16642 8.59988H3.23442C2.92947 8.59988 2.67996 8.84966 2.67996 9.15433V11.2505C2.67996 11.5551 2.92947 11.8049 3.23442 11.8049H5.16642ZM7.14527 16.2411H10.472V15.3878H7.14527V16.2411ZM15.1849 16.2411H11.8581V15.3878H15.1849V16.2411ZM19.6205 16.2411H16.2938V15.3878H19.6205V16.2411ZM2.70962 16.2411H6.03636V15.3878H2.70962V16.2411Z" fill="#FA4A84"/>
</svg>
