<svg width="18" height="18" viewBox="0 0 18 18" fill="none" xmlns="http://www.w3.org/2000/svg">
<path opacity="0.4" d="M9 16.5C13.1421 16.5 16.5 13.1421 16.5 9C16.5 4.85786 13.1421 1.5 9 1.5C4.85786 1.5 1.5 4.85786 1.5 9C1.5 13.1421 4.85786 16.5 9 16.5Z" fill="#1A9459"/>
<path d="M13.3875 10.1474C13.3275 10.0124 13.2225 9.89992 13.08 9.83992C13.0125 9.80992 12.9375 9.79492 12.8625 9.79492H5.13C4.8225 9.79492 4.5675 10.0499 4.5675 10.3574C4.5675 10.6649 4.8225 10.9199 5.13 10.9199H11.505L10.185 12.2399C9.9675 12.4574 9.9675 12.8174 10.185 13.0349C10.2975 13.1474 10.44 13.1999 10.5825 13.1999C10.725 13.1999 10.8675 13.1474 10.98 13.0349L13.26 10.7549C13.3125 10.7024 13.35 10.6424 13.38 10.5749C13.44 10.4399 13.44 10.2824 13.3875 10.1474Z" fill="#1A9459"/>
<path d="M12.8625 7.07305H6.4875L7.80751 5.75307C8.02501 5.53557 8.02501 5.17555 7.80751 4.95805C7.59001 4.74055 7.23001 4.74055 7.01251 4.95805L4.73251 7.23805C4.68001 7.29055 4.6425 7.35057 4.6125 7.41807C4.5525 7.55307 4.5525 7.71055 4.6125 7.84555C4.6725 7.98055 4.77751 8.09305 4.92001 8.15305C4.98751 8.18305 5.06251 8.19805 5.13751 8.19805H12.87C13.1775 8.19805 13.4325 7.94305 13.4325 7.63555C13.4325 7.32805 13.1775 7.07305 12.8625 7.07305Z" fill="#1A9459"/>
</svg>
