<svg width="41" height="40" viewBox="0 0 41 40" fill="none" xmlns="http://www.w3.org/2000/svg">
<circle cx="20.5072" cy="20" r="20" fill="#F7F8FA"/>
<path d="M20.5072 40C25.8115 40 30.899 37.893 34.6494 34.1421C38.4003 30.3915 40.5072 25.3045 40.5072 20C40.5072 14.6955 38.4003 9.60827 34.6494 5.8579C30.8987 2.107 25.8118 5.09942e-06 20.5072 5.56315e-06C16.9966 5.87006e-06 13.5477 0.923987 10.5072 2.67948C7.46679 4.43497 4.94214 6.95963 3.18672 10C1.43123 13.0405 0.50725 16.4894 0.50725 20C0.50725 25.3043 2.61424 30.3917 6.36514 34.1421C10.1157 37.893 15.2027 40 20.5072 40ZM14.7683 18.1556L22.7224 10.2015C23.3527 9.5721 24.2709 9.32654 25.1314 9.55771C25.9916 9.78856 26.6633 10.4612 26.8933 11.3217C27.1233 12.1825 26.8769 13.1003 26.2466 13.73L19.9728 19.9994L26.2466 26.2688C26.8769 26.8985 27.1233 27.8164 26.8933 28.6772C26.6634 29.5377 25.9917 30.2103 25.1314 30.4412C24.2709 30.6723 23.3527 30.4268 22.7224 29.7974L14.7683 21.8432C14.2802 21.3563 14.0161 20.6884 14.0399 19.9991L14.0399 19.9192C14.0393 19.2578 14.3013 18.6234 14.7683 18.1549L14.7683 18.1556Z" fill="#2A3147"/>
</svg>
