<svg width="20" height="20" viewBox="0 0 20 20" fill="none" xmlns="http://www.w3.org/2000/svg">
<path opacity="0.4" d="M14.5167 1.15033C14.3417 1.03366 14.125 1.00865 13.9333 1.08365C12.7417 1.55865 11.425 1.55865 10.2333 1.08365C10.0417 1.00865 9.825 1.03366 9.65 1.15033C9.475 1.267 9.375 1.45866 9.375 1.66699V4.16699V6.66699C9.375 7.00866 9.65833 7.29199 10 7.29199C10.3417 7.29199 10.625 7.00866 10.625 6.66699V5.01701C11.1083 5.13367 11.5917 5.20032 12.0833 5.20032C12.8667 5.20032 13.65 5.05034 14.4 4.75034C14.6333 4.65867 14.7917 4.42533 14.7917 4.16699V1.66699C14.7917 1.45866 14.6917 1.267 14.5167 1.15033Z" fill="#2BB673"/>
<path d="M18.3333 17.7087H17.2917V9.16699C17.2917 7.15033 16.1833 6.04199 14.1667 6.04199H5.83332C3.81666 6.04199 2.70832 7.15033 2.70832 9.16699V17.7087H1.66666C1.32499 17.7087 1.04166 17.992 1.04166 18.3337C1.04166 18.6753 1.32499 18.9587 1.66666 18.9587H3.33332H16.6667H18.3333C18.675 18.9587 18.9583 18.6753 18.9583 18.3337C18.9583 17.992 18.675 17.7087 18.3333 17.7087ZM16.0417 10.6253V17.7087H13.95V10.6253H16.0417ZM9.36666 17.7087H7.28332V10.6253H9.36666V17.7087ZM10.6167 10.6253H12.7V17.7087H10.6167V10.6253ZM3.95832 10.6253H6.03332V17.7087H3.95832V10.6253Z" fill="#2BB673"/>
</svg>
