<svg width="32" height="32" viewBox="0 0 32 32" fill="none" xmlns="http://www.w3.org/2000/svg">
<circle cx="16" cy="16" r="16" fill="#C9FFE5"/>
<path d="M23.2727 21.0925V23.2743H8.72729V21.0925C8.72729 20.6925 9.05457 20.3652 9.45457 20.3652H22.5455C22.9455 20.3652 23.2727 20.6925 23.2727 21.0925Z" fill="#1A9459" stroke="#1A9459" stroke-width="1.5" stroke-miterlimit="10" stroke-linecap="round" stroke-linejoin="round"/>
<path opacity="0.6" d="M13.0909 15.2734H10.1818V20.3643H13.0909V15.2734Z" fill="#1A9459"/>
<path opacity="0.4" d="M16 15.2734H13.0909V20.3643H16V15.2734Z" fill="#1A9459"/>
<path opacity="0.6" d="M18.9091 15.2734H16V20.3643H18.9091V15.2734Z" fill="#1A9459"/>
<path opacity="0.4" d="M21.8182 15.2734H18.9091V20.3643H21.8182V15.2734Z" fill="#1A9459"/>
<path d="M24 23.8194H8.00001C7.70183 23.8194 7.45456 23.5722 7.45456 23.274C7.45456 22.9758 7.70183 22.7285 8.00001 22.7285H24C24.2982 22.7285 24.5455 22.9758 24.5455 23.274C24.5455 23.5722 24.2982 23.8194 24 23.8194Z" fill="#1A9459"/>
<path d="M22.8146 11.4548L16.2691 8.83661C16.1237 8.77842 15.8764 8.77842 15.7309 8.83661L9.18548 11.4548C8.93093 11.5566 8.72729 11.8548 8.72729 12.1311V14.5457C8.72729 14.9457 9.05457 15.273 9.45457 15.273H22.5455C22.9455 15.273 23.2727 14.9457 23.2727 14.5457V12.1311C23.2727 11.8548 23.0691 11.5566 22.8146 11.4548ZM16 13.4548C15.3964 13.4548 14.9091 12.9675 14.9091 12.3639C14.9091 11.7602 15.3964 11.273 16 11.273C16.6037 11.273 17.0909 11.7602 17.0909 12.3639C17.0909 12.9675 16.6037 13.4548 16 13.4548Z" fill="#1A9459"/>
</svg>
