<svg width="44" height="44" viewBox="0 0 44 44" fill="none" xmlns="http://www.w3.org/2000/svg">
<circle cx="22" cy="22" r="22" fill="#FEF4EB"/>
<path opacity="0.4" d="M30.4 26.3308C30.12 27.0808 29.53 27.6508 28.76 27.9108C27.68 28.2708 26.57 28.5408 25.45 28.7308C25.34 28.7508 25.23 28.7708 25.12 28.7808C24.94 28.8108 24.76 28.8308 24.58 28.8508C24.36 28.8808 24.13 28.9008 23.9 28.9208C23.27 28.9708 22.65 29.0008 22.02 29.0008C21.38 29.0008 20.74 28.9708 20.11 28.9108C19.84 28.8908 19.58 28.8608 19.32 28.8208C19.17 28.8008 19.02 28.7808 18.88 28.7608C18.77 28.7408 18.66 28.7308 18.55 28.7108C17.44 28.5308 16.34 28.2608 15.27 27.9008C14.47 27.6308 13.86 27.0608 13.59 26.3308C13.32 25.6108 13.42 24.7708 13.85 24.0508L14.98 22.1708C15.22 21.7608 15.44 20.9708 15.44 20.4908V18.6308C15.44 15.0008 18.39 12.0508 22.02 12.0508C25.64 12.0508 28.59 15.0008 28.59 18.6308V20.4908C28.59 20.9708 28.81 21.7608 29.06 22.1708L30.19 24.0508C30.6 24.7508 30.68 25.5708 30.4 26.3308Z" fill="#F87E14"/>
<path d="M22 20.7606C21.58 20.7606 21.24 20.4206 21.24 20.0006V16.9006C21.24 16.4806 21.58 16.1406 22 16.1406C22.42 16.1406 22.76 16.4806 22.76 16.9006V20.0006C22.75 20.4206 22.41 20.7606 22 20.7606Z" fill="#F87E14"/>
<path d="M24.83 30.01C24.41 31.17 23.3 32 22 32C21.21 32 20.43 31.68 19.88 31.11C19.56 30.81 19.32 30.41 19.18 30C19.31 30.02 19.44 30.03 19.58 30.05C19.81 30.08 20.05 30.11 20.29 30.13C20.86 30.18 21.44 30.21 22.02 30.21C22.59 30.21 23.16 30.18 23.72 30.13C23.93 30.11 24.14 30.1 24.34 30.07C24.5 30.05 24.66 30.03 24.83 30.01Z" fill="#F87E14"/>
</svg>
