<svg width="38" height="39" viewBox="0 0 38 39" fill="none" xmlns="http://www.w3.org/2000/svg">
<rect y="0.5" width="38" height="38" rx="19" fill="url(#paint0_linear_520_30382)"/>
<path d="M13 10.15C12.2544 10.15 11.65 10.7544 11.65 11.5V27.5C11.65 28.2456 12.2544 28.85 13 28.85H25C25.7456 28.85 26.35 28.2456 26.35 27.5V11.5C26.35 10.7544 25.7456 10.15 25 10.15H13ZM10.35 11.5C10.35 10.0364 11.5364 8.85 13 8.85H25C26.4636 8.85 27.65 10.0364 27.65 11.5V27.5C27.65 28.9636 26.4636 30.15 25 30.15H13C11.5364 30.15 10.35 28.9636 10.35 27.5V11.5Z" stroke="white" stroke-width="0.7" stroke-linecap="round" stroke-linejoin="round"/>
<path d="M14.35 13.5C14.35 13.141 14.641 12.85 15 12.85H23C23.359 12.85 23.65 13.141 23.65 13.5C23.65 13.859 23.359 14.15 23 14.15H15C14.641 14.15 14.35 13.859 14.35 13.5Z" stroke="white" stroke-width="0.7" stroke-linecap="round" stroke-linejoin="round"/>
<path d="M23 20.85C23.359 20.85 23.65 21.141 23.65 21.5V25.5C23.65 25.859 23.359 26.15 23 26.15C22.641 26.15 22.35 25.859 22.35 25.5V21.5C22.35 21.141 22.641 20.85 23 20.85Z" stroke="white" stroke-width="0.7" stroke-linecap="round" stroke-linejoin="round"/>
<path d="M22.35 17.5C22.35 17.141 22.641 16.85 23 16.85H23.01C23.369 16.85 23.66 17.141 23.66 17.5C23.66 17.859 23.369 18.15 23.01 18.15H23C22.641 18.15 22.35 17.859 22.35 17.5Z" stroke="white" stroke-width="0.7" stroke-linecap="round" stroke-linejoin="round"/>
<path d="M18.35 17.5C18.35 17.141 18.641 16.85 19 16.85H19.01C19.369 16.85 19.66 17.141 19.66 17.5C19.66 17.859 19.369 18.15 19.01 18.15H19C18.641 18.15 18.35 17.859 18.35 17.5Z" stroke="white" stroke-width="0.7" stroke-linecap="round" stroke-linejoin="round"/>
<path d="M14.35 17.5C14.35 17.141 14.641 16.85 15 16.85H15.01C15.369 16.85 15.66 17.141 15.66 17.5C15.66 17.859 15.369 18.15 15.01 18.15H15C14.641 18.15 14.35 17.859 14.35 17.5Z" stroke="white" stroke-width="0.7" stroke-linecap="round" stroke-linejoin="round"/>
<path d="M18.35 21.5C18.35 21.141 18.641 20.85 19 20.85H19.01C19.369 20.85 19.66 21.141 19.66 21.5C19.66 21.859 19.369 22.15 19.01 22.15H19C18.641 22.15 18.35 21.859 18.35 21.5Z" stroke="white" stroke-width="0.7" stroke-linecap="round" stroke-linejoin="round"/>
<path d="M14.35 21.5C14.35 21.141 14.641 20.85 15 20.85H15.01C15.369 20.85 15.66 21.141 15.66 21.5C15.66 21.859 15.369 22.15 15.01 22.15H15C14.641 22.15 14.35 21.859 14.35 21.5Z" stroke="white" stroke-width="0.7" stroke-linecap="round" stroke-linejoin="round"/>
<path d="M18.35 25.5C18.35 25.141 18.641 24.85 19 24.85H19.01C19.369 24.85 19.66 25.141 19.66 25.5C19.66 25.859 19.369 26.15 19.01 26.15H19C18.641 26.15 18.35 25.859 18.35 25.5Z" stroke="white" stroke-width="0.7" stroke-linecap="round" stroke-linejoin="round"/>
<path d="M14.35 25.5C14.35 25.141 14.641 24.85 15 24.85H15.01C15.369 24.85 15.66 25.141 15.66 25.5C15.66 25.859 15.369 26.15 15.01 26.15H15C14.641 26.15 14.35 25.859 14.35 25.5Z" stroke="white" stroke-width="0.7" stroke-linecap="round" stroke-linejoin="round"/>
<defs>
<linearGradient id="paint0_linear_520_30382" x1="19" y1="0.5" x2="19" y2="38.5" gradientUnits="userSpaceOnUse">
<stop stop-color="#0700FF50"/>
<stop offset="1" stop-color="#0700FF"/>
</linearGradient>
</defs>
</svg>
