<svg width="16" height="16" viewBox="0 0 16 16" fill="none" xmlns="http://www.w3.org/2000/svg">
<path d="M8 16C10.1217 16 12.1567 15.1571 13.6568 13.6568C15.1571 12.1565 16 10.1217 16 8C16 5.87833 15.1571 3.84331 13.6568 2.34315C12.1565 0.842901 10.1217 0 8 0C5.87833 0 3.84331 0.842901 2.34315 2.34315C0.8429 3.84353 -9.53674e-07 5.87833 -9.53674e-07 8C-9.53674e-07 10.1217 0.8429 12.1567 2.34315 13.6568C3.84353 15.1571 5.87833 16 8 16ZM3.84737 8.21089C3.98361 8.0755 4.16794 7.9994 4.36006 7.9994C4.55231 7.9994 4.73652 8.0755 4.87288 8.21089L6.54553 9.88366L10.7565 5.67274C10.9437 5.51239 11.1994 5.45785 11.4357 5.52774C11.6722 5.59762 11.857 5.78257 11.9269 6.01889C11.9969 6.25534 11.9422 6.51102 11.7819 6.69828L7.05448 11.4257L7.0546 11.4256C6.91824 11.5611 6.73403 11.637 6.54178 11.637C6.34965 11.637 6.16532 11.5611 6.02908 11.4256L3.84726 9.24373C3.70955 9.10724 3.63212 8.92132 3.63212 8.72738C3.63212 8.53355 3.70956 8.34762 3.84726 8.21104L3.84737 8.21089Z" fill="#303B89"/>
</svg>
