<svg width="55" height="55" viewBox="0 0 55 55" fill="none" xmlns="http://www.w3.org/2000/svg">
<rect width="55" height="55" rx="27.5" fill="#2BB673"/>
<path fill-rule="evenodd" clip-rule="evenodd" d="M31.0758 21.9106C31.1532 21.833 31.2451 21.7714 31.3463 21.7294C31.4476 21.6874 31.5561 21.6658 31.6657 21.6658C31.7753 21.6658 31.8838 21.6874 31.9851 21.7294C32.0863 21.7714 32.1783 21.833 32.2557 21.9106L37.2553 26.9102C37.3329 26.9876 37.3945 27.0796 37.4365 27.1808C37.4785 27.282 37.5001 27.3906 37.5001 27.5002C37.5001 27.6098 37.4785 27.7183 37.4365 27.8195C37.3945 27.9208 37.3329 28.0127 37.2553 28.0901L32.2557 33.0897C32.0992 33.2462 31.887 33.3341 31.6657 33.3341C31.4444 33.3341 31.2322 33.2462 31.0758 33.0897C30.9193 32.9333 30.8314 32.7211 30.8314 32.4998C30.8314 32.2785 30.9193 32.0663 31.0758 31.9098L35.4871 27.5002L31.0758 23.0905C30.9982 23.0131 30.9366 22.9211 30.8946 22.8199C30.8526 22.7187 30.8309 22.6101 30.8309 22.5005C30.8309 22.3909 30.8526 22.2824 30.8946 22.1812C30.9366 22.0799 30.9982 21.988 31.0758 21.9106Z" fill="white"/>
<path fill-rule="evenodd" clip-rule="evenodd" d="M17.4999 27.499C17.4999 27.278 17.5877 27.0661 17.744 26.9098C17.9002 26.7536 18.1122 26.6658 18.3332 26.6658H35.8319C36.0529 26.6658 36.2648 26.7536 36.4211 26.9098C36.5773 27.0661 36.6651 27.278 36.6651 27.499C36.6651 27.72 36.5773 27.932 36.4211 28.0883C36.2648 28.2445 36.0529 28.3323 35.8319 28.3323H18.3332C18.1122 28.3323 17.9002 28.2445 17.744 28.0883C17.5877 27.932 17.4999 27.72 17.4999 27.499Z" fill="white"/>
</svg>
