<svg width="8" height="8" viewBox="0 0 8 8" fill="none" xmlns="http://www.w3.org/2000/svg">
<path d="M5.33333 4.30033V5.70033C5.33333 6.86699 4.86667 7.33366 3.7 7.33366H2.3C1.13333 7.33366 0.666668 6.86699 0.666668 5.70033V4.30033C0.666668 3.13366 1.13333 2.66699 2.3 2.66699H3.7C4.86667 2.66699 5.33333 3.13366 5.33333 4.30033Z" fill="#F3F5FF"/>
<path opacity="0.4" d="M5.7 0.666992H4.3C3.15 0.666992 2.68333 1.12366 2.67 2.25033H3.7C5.1 2.25033 5.75 2.90033 5.75 4.30033V5.33033C6.87667 5.31699 7.33333 4.85033 7.33333 3.70033V2.30033C7.33333 1.13366 6.86666 0.666992 5.7 0.666992Z" fill="#F3F5FF"/>
</svg>
