<svg width="35" height="35" viewBox="0 0 35 35" fill="none" xmlns="http://www.w3.org/2000/svg">
<rect x="0.449951" y="0.929688" width="34" height="34" rx="17" fill="#E44848" fill-opacity="0.2"/>
<path d="M20.6948 20.8142C20.0981 20.8142 19.6033 20.3194 19.6033 19.7227V14.9927H14.8733C14.2766 14.9927 13.7817 14.4978 13.7817 13.9011C13.7817 13.3044 14.2766 12.8096 14.8733 12.8096H20.6948C21.2915 12.8096 21.7864 13.3044 21.7864 13.9011V19.7227C21.7864 20.3194 21.2915 20.8142 20.6948 20.8142Z" fill="#E44848"/>
<path d="M13.4179 22.2699C13.1413 22.2699 12.8648 22.168 12.6465 21.9497C12.2244 21.5276 12.2244 20.829 12.6465 20.407L19.9234 13.13C20.3455 12.708 21.0441 12.708 21.4662 13.13C21.8882 13.5521 21.8882 14.2507 21.4662 14.6727L14.1892 21.9497C13.9709 22.168 13.6944 22.2699 13.4179 22.2699Z" fill="#E44848"/>
</svg>
