<svg width="32" height="32" viewBox="0 0 32 32" fill="none" xmlns="http://www.w3.org/2000/svg">
<circle cx="16" cy="16" r="16" fill="#FDE7E8"/>
<path d="M22.0466 11.4863C20.9733 11.3797 19.8999 11.2997 18.8199 11.2397V11.233L18.6733 10.3663C18.5733 9.75301 18.4266 8.83301 16.8666 8.83301H15.1199C13.5666 8.83301 13.4199 9.71301 13.3133 10.3597L13.1733 11.213C12.5533 11.253 11.9333 11.293 11.3133 11.353L9.95328 11.4863C9.67328 11.513 9.47328 11.7597 9.49994 12.033C9.52661 12.3063 9.76661 12.5063 10.0466 12.4797L11.4066 12.3463C14.8999 11.9997 18.4199 12.133 21.9533 12.4863C21.9733 12.4863 21.9866 12.4863 22.0066 12.4863C22.2599 12.4863 22.4799 12.293 22.5066 12.033C22.5266 11.7597 22.3266 11.513 22.0466 11.4863Z" fill="#C43138"/>
<path opacity="0.3991" d="M20.8202 13.427C20.6602 13.2603 20.4402 13.167 20.2135 13.167H11.7868C11.5602 13.167 11.3335 13.2603 11.1802 13.427C11.0268 13.5937 10.9402 13.8203 10.9535 14.0537L11.3668 20.8937C11.4402 21.907 11.5335 23.1737 13.8602 23.1737H18.1402C20.4668 23.1737 20.5602 21.9137 20.6335 20.8937L21.0468 14.0603C21.0602 13.8203 20.9735 13.5937 20.8202 13.427Z" fill="#C43138"/>
<path fill-rule="evenodd" clip-rule="evenodd" d="M14.3867 19.333C14.3867 19.0569 14.6106 18.833 14.8867 18.833H17.1067C17.3829 18.833 17.6067 19.0569 17.6067 19.333C17.6067 19.6092 17.3829 19.833 17.1067 19.833H14.8867C14.6106 19.833 14.3867 19.6092 14.3867 19.333Z" fill="#C43138"/>
<path fill-rule="evenodd" clip-rule="evenodd" d="M13.8335 16.667C13.8335 16.3908 14.0574 16.167 14.3335 16.167H17.6668C17.943 16.167 18.1668 16.3908 18.1668 16.667C18.1668 16.9431 17.943 17.167 17.6668 17.167H14.3335C14.0574 17.167 13.8335 16.9431 13.8335 16.667Z" fill="#C43138"/>
</svg>
