<svg width="18" height="18" viewBox="0 0 18 18" fill="none" xmlns="http://www.w3.org/2000/svg">
<path opacity="0.4" d="M2.9925 10.9958L1.8525 9.8558C1.3875 9.3908 1.3875 8.62579 1.8525 8.16079L2.9925 7.02078C3.1875 6.82578 3.345 6.44327 3.345 6.17327V4.5608C3.345 3.9008 3.885 3.36077 4.545 3.36077H6.1575C6.4275 3.36077 6.81 3.2033 7.005 3.0083L8.14499 1.86828C8.60999 1.40328 9.375 1.40328 9.84 1.86828L10.98 3.0083C11.175 3.2033 11.5575 3.36077 11.8275 3.36077H13.44C14.1 3.36077 14.64 3.9008 14.64 4.5608V6.17327C14.64 6.44327 14.7975 6.82578 14.9925 7.02078L16.1325 8.16079C16.5975 8.62579 16.5975 9.3908 16.1325 9.8558L14.9925 10.9958C14.7975 11.1908 14.64 11.5733 14.64 11.8433V13.4558C14.64 14.1158 14.1 14.6558 13.44 14.6558H11.8275C11.5575 14.6558 11.175 14.8133 10.98 15.0083L9.84 16.1483C9.375 16.6133 8.60999 16.6133 8.14499 16.1483L7.005 15.0083C6.81 14.8133 6.4275 14.6558 6.1575 14.6558H4.545C3.885 14.6558 3.345 14.1158 3.345 13.4558V11.8433C3.345 11.5658 3.1875 11.1833 2.9925 10.9958Z" fill="#F87E14"/>
<path d="M11.25 12C10.83 12 10.4925 11.6625 10.4925 11.25C10.4925 10.8375 10.83 10.5 11.2425 10.5C11.655 10.5 11.9925 10.8375 11.9925 11.25C11.9925 11.6625 11.6625 12 11.25 12Z" fill="#F87E14"/>
<path d="M6.75751 7.5C6.33751 7.5 6 7.1625 6 6.75C6 6.3375 6.3375 6 6.75 6C7.1625 6 7.5 6.3375 7.5 6.75C7.5 7.1625 7.17001 7.5 6.75751 7.5Z" fill="#F87E14"/>
<path d="M6.75002 11.8126C6.60752 11.8126 6.46502 11.7601 6.35252 11.6476C6.13502 11.4301 6.13502 11.0701 6.35252 10.8526L10.8525 6.35258C11.07 6.13508 11.43 6.13508 11.6475 6.35258C11.865 6.57008 11.865 6.93012 11.6475 7.14762L7.14752 11.6476C7.03502 11.7601 6.89252 11.8126 6.75002 11.8126Z" fill="#F87E14"/>
</svg>
