<svg width="32" height="32" viewBox="0 0 32 32" fill="none" xmlns="http://www.w3.org/2000/svg">
<circle cx="16" cy="16" r="16" fill="#C9FFE5"/>
<path opacity="0.4" d="M21.6665 14.793H19.7398C18.1598 14.793 16.8732 13.5063 16.8732 11.9263V9.99967C16.8732 9.63301 16.5732 9.33301 16.2065 9.33301H13.3798C11.3265 9.33301 9.6665 10.6663 9.6665 13.0463V18.953C9.6665 21.333 11.3265 22.6663 13.3798 22.6663H18.6198C20.6732 22.6663 22.3332 21.333 22.3332 18.953V15.4597C22.3332 15.093 22.0332 14.793 21.6665 14.793Z" fill="#1A9459"/>
<path d="M18.5333 9.47365C18.26 9.20032 17.7866 9.38699 17.7866 9.76699V12.0937C17.7866 13.067 18.6133 13.8737 19.62 13.8737C20.2533 13.8803 21.1333 13.8803 21.8866 13.8803C22.2666 13.8803 22.4666 13.4337 22.2 13.167C21.24 12.2003 19.52 10.4603 18.5333 9.47365Z" fill="#1A9459"/>
<path d="M17 17.167H13C12.7267 17.167 12.5 16.9403 12.5 16.667C12.5 16.3937 12.7267 16.167 13 16.167H17C17.2733 16.167 17.5 16.3937 17.5 16.667C17.5 16.9403 17.2733 17.167 17 17.167Z" fill="#1A9459"/>
<path d="M15.6667 19.833H13C12.7267 19.833 12.5 19.6063 12.5 19.333C12.5 19.0597 12.7267 18.833 13 18.833H15.6667C15.94 18.833 16.1667 19.0597 16.1667 19.333C16.1667 19.6063 15.94 19.833 15.6667 19.833Z" fill="#1A9459"/>
</svg>
