<svg width="26" height="27" viewBox="0 0 26 27" fill="none" xmlns="http://www.w3.org/2000/svg">
<rect y="0.5" width="26" height="26" rx="13" fill="#F7F8FA"/>
<path fill-rule="evenodd" clip-rule="evenodd" d="M18.6643 19.1643C20.1095 17.7191 21 15.7046 21 13.5C21 11.2957 20.1095 9.29576 18.6643 7.85033C17.2191 6.39051 15.2046 5.5 13 5.5C10.7957 5.5 8.79576 6.39051 7.35033 7.85033C5.89051 9.29553 5 11.2955 5 13.5C5 15.7044 5.89051 17.7189 7.35033 19.1643C8.79553 20.6095 10.7955 21.5 13 21.5C15.2044 21.5 17.2189 20.6095 18.6643 19.1643ZM14.5475 16.595L13 15.0476L11.4526 16.595C11.1753 16.8723 10.7081 16.8723 10.4307 16.595L9.91978 16.0694C9.62781 15.7921 9.62781 15.3249 9.91978 15.0475L11.4526 13.5001L9.91978 11.9527C9.62781 11.6753 9.62781 11.2082 9.91978 10.9308L10.4307 10.4199C10.7081 10.1279 11.1753 10.1279 11.4526 10.4199L13 11.9527L14.5475 10.4199C14.8248 10.1279 15.292 10.1279 15.5693 10.4199L16.0949 10.9308C16.3722 11.2082 16.3722 11.6753 16.0949 11.9527L14.5475 13.5001L16.0949 15.0475C16.3722 15.3249 16.3722 15.7921 16.0949 16.0694L15.5693 16.595C15.292 16.8723 14.8248 16.8723 14.5475 16.595Z" fill="#BB1414"/>
</svg>
