<svg width="20" height="20" viewBox="0 0 20 20" fill="none" xmlns="http://www.w3.org/2000/svg">
<path opacity="0.4" d="M9.99996 18.3327C14.6023 18.3327 18.3333 14.6017 18.3333 9.99935C18.3333 5.39698 14.6023 1.66602 9.99996 1.66602C5.39759 1.66602 1.66663 5.39698 1.66663 9.99935C1.66663 14.6017 5.39759 18.3327 9.99996 18.3327Z" fill="#C43138"/>
<path d="M10.8834 10.0008L12.8 8.08411C13.0417 7.84245 13.0417 7.44245 12.8 7.20078C12.5584 6.95911 12.1584 6.95911 11.9167 7.20078L10 9.11745L8.08338 7.20078C7.84172 6.95911 7.44172 6.95911 7.20005 7.20078C6.95838 7.44245 6.95838 7.84245 7.20005 8.08411L9.11671 10.0008L7.20005 11.9174C6.95838 12.1591 6.95838 12.5591 7.20005 12.8008C7.32505 12.9258 7.48338 12.9841 7.64172 12.9841C7.80005 12.9841 7.95838 12.9258 8.08338 12.8008L10 10.8841L11.9167 12.8008C12.0417 12.9258 12.2 12.9841 12.3584 12.9841C12.5167 12.9841 12.675 12.9258 12.8 12.8008C13.0417 12.5591 13.0417 12.1591 12.8 11.9174L10.8834 10.0008Z" fill="#C43138"/>
</svg>
