<svg width="20" height="20" viewBox="0 0 20 20" fill="none" xmlns="http://www.w3.org/2000/svg">
<path opacity="0.4" d="M14.075 15.0333L6.55834 17.5416C3.18334 18.6666 1.35 16.8249 2.46667 13.4499L4.975 5.93327C6.65834 0.874933 9.425 0.874933 11.1083 5.93327L11.85 8.1666L14.0833 8.90827C19.1333 10.5833 19.1333 13.3416 14.075 15.0333Z" fill="#A5B0FC"/>
<path d="M9.89999 10.3079L6.72499 13.4912L9.89999 10.3079Z" fill="#A5B0FC"/>
<path d="M9.9 9.68301C10.0583 9.68301 10.2167 9.74134 10.3417 9.86634C10.5833 10.108 10.5833 10.508 10.3417 10.7497L7.175 13.933C6.93334 14.1747 6.53333 14.1747 6.29167 13.933C6.05 13.6913 6.05 13.2913 6.29167 13.0497L9.45834 9.86634C9.58334 9.74967 9.74167 9.68301 9.9 9.68301Z" fill="#A5B0FC"/>
</svg>
