<svg width="40" height="40" viewBox="0 0 40 40" fill="none" xmlns="http://www.w3.org/2000/svg">
<circle cx="20" cy="20" r="20" fill="#F4F8FB"/>
<path fill-rule="evenodd" clip-rule="evenodd" d="M28 13.8667L27.2889 14.5778C26.2222 13.6 24.8889 13.0667 23.5556 13.0667C22.2222 13.0667 20.8889 13.6 19.8222 14.5778L19.1111 13.8667C20.3556 12.6222 21.9556 12 23.5556 12C25.1556 12 26.7556 12.6222 28 13.8667ZM23.5556 14.0444C24.6222 14.0444 25.6889 14.4889 26.4889 15.2889L25.7778 16C25.1556 15.3778 24.3556 15.1111 23.5556 15.1111C22.7556 15.1111 21.9556 15.3778 21.3333 16L20.6222 15.2889C21.4222 14.4889 22.4889 14.0444 23.5556 14.0444ZM26.2222 20.8889H24.4444V17.3333H22.6667V20.8889H13.7778C12.8 20.8889 12 21.6889 12 22.6667V26.2222C12 27.2 12.8 28 13.7778 28H26.2222C27.2 28 28 27.2 28 26.2222V22.6667C28 21.6889 27.2 20.8889 26.2222 20.8889ZM14.6667 25.3333H16.4444V23.5556H14.6667V25.3333ZM19.5556 25.3333H17.7778V23.5556H19.5556V25.3333ZM20.8889 25.3333H22.6667V23.5556H20.8889V25.3333Z" fill="#8397AB"/>
</svg>
