<svg width="32" height="32" viewBox="0 0 32 32" fill="none" xmlns="http://www.w3.org/2000/svg">
<circle cx="16" cy="16" r="16" fill="#F3F5FF"/>
<path opacity="0.4" d="M9.28723 14.5447C8.97451 14.5447 8.72723 14.2975 8.72723 13.9847V12.3047C8.72723 10.3338 10.3345 8.72656 12.3054 8.72656H13.9854C14.2981 8.72656 14.5454 8.97384 14.5454 9.28656C14.5454 9.59929 14.2981 9.84656 13.9854 9.84656H12.3054C10.9454 9.84656 9.84723 10.952 9.84723 12.3047V13.9847C9.84723 14.2975 9.59269 14.5447 9.28723 14.5447Z" fill="#4754AB"/>
<path opacity="0.4" d="M22.7127 14.5447C22.4073 14.5447 22.1527 14.2975 22.1527 13.9847V12.3047C22.1527 10.9447 21.0473 9.84656 19.6945 9.84656H18.0145C17.7018 9.84656 17.4545 9.59202 17.4545 9.28656C17.4545 8.98111 17.7018 8.72656 18.0145 8.72656H19.6945C21.6654 8.72656 23.2727 10.3338 23.2727 12.3047V13.9847C23.2727 14.2975 23.0254 14.5447 22.7127 14.5447Z" fill="#4754AB"/>
<path d="M19.6945 23.2727H18.6836C18.3781 23.2727 18.1236 23.0254 18.1236 22.7127C18.1236 22.4072 18.3709 22.1527 18.6836 22.1527H19.6945C21.0545 22.1527 22.1527 21.0472 22.1527 19.6945V18.6909C22.1527 18.3854 22.4 18.1309 22.7127 18.1309C23.0181 18.1309 23.2727 18.3781 23.2727 18.6909V19.6945C23.2727 21.6654 21.6654 23.2727 19.6945 23.2727Z" fill="#4754AB"/>
<path d="M13.9854 23.2723H12.3054C10.3345 23.2723 8.72723 21.665 8.72723 19.6941V18.0141C8.72723 17.7014 8.97451 17.4541 9.28723 17.4541C9.59996 17.4541 9.84723 17.7014 9.84723 18.0141V19.6941C9.84723 21.0541 10.9527 22.1523 12.3054 22.1523H13.9854C14.2909 22.1523 14.5454 22.3996 14.5454 22.7123C14.5454 23.025 14.2981 23.2723 13.9854 23.2723Z" fill="#4754AB"/>
<path d="M20.6982 15.4395H19.7091H12.2909H11.3018C10.9891 15.4395 10.7418 15.694 10.7418 15.9995C10.7418 16.3049 10.9891 16.5595 11.3018 16.5595H12.2909H19.7091H20.6982C21.0109 16.5595 21.2582 16.3049 21.2582 15.9995C21.2582 15.694 21.0109 15.4395 20.6982 15.4395Z" fill="#4754AB"/>
<path d="M12.2909 17.4105V17.6505C12.2909 18.8578 13.2654 19.8324 14.4727 19.8324H17.5273C18.7345 19.8324 19.7091 18.8578 19.7091 17.6505V17.4105C19.7091 17.3233 19.6436 17.2578 19.5563 17.2578H12.4436C12.3563 17.2578 12.2909 17.3233 12.2909 17.4105Z" fill="#4754AB"/>
<path opacity="0.4" d="M12.2909 14.5888V14.3488C12.2909 13.1415 13.2654 12.167 14.4727 12.167H17.5273C18.7345 12.167 19.7091 13.1415 19.7091 14.3488V14.5888C19.7091 14.6761 19.6436 14.7415 19.5563 14.7415H12.4436C12.3563 14.7415 12.2909 14.6761 12.2909 14.5888Z" fill="#4754AB"/>
</svg>
