<svg width="25" height="24" viewBox="0 0 25 24" fill="none" xmlns="http://www.w3.org/2000/svg">
<path opacity="0.4" d="M9.5 7.2V16.79C9.5 20 11.5 22 14.7 22H17.29C20.49 22 22.49 20 22.49 16.8V7.2C22.5 4 20.5 2 17.3 2H14.7C11.5 2 9.5 4 9.5 7.2Z" fill="#C43138"/>
<path d="M6.07 8.11953L2.72 11.4695C2.43 11.7595 2.43 12.2395 2.72 12.5295L6.07 15.8795C6.36 16.1695 6.84 16.1695 7.13 15.8795C7.42 15.5895 7.42 15.1095 7.13 14.8195L5.06 12.7495H15.75C16.16 12.7495 16.5 12.4095 16.5 11.9995C16.5 11.5895 16.16 11.2495 15.75 11.2495H5.06L7.13 9.17953C7.28 9.02953 7.35 8.83953 7.35 8.64953C7.35 8.45953 7.28 8.25953 7.13 8.11953C6.84 7.81953 6.37 7.81953 6.07 8.11953Z" fill="#C43138"/>
</svg>
