<svg width="100" height="22" viewBox="0 0 100 22" fill="none" xmlns="http://www.w3.org/2000/svg">
<g clip-path="url(#clip0_2496_10660)">
<path d="M13.8182 11L5.44282 22H0L8.37537 11L0 0H5.44282L13.8182 11Z" fill="white"/>
<path d="M15.4135 13.1187L22.1584 22H16.7156L14.4751 19.0555L8.65692 22L15.4135 13.1187Z" fill="#2BB673"/>
<path d="M15.4135 8.88139L22.1584 0H16.7156L14.4751 2.9445L8.65692 0L15.4135 8.88139Z" fill="#2BB673"/>
<path d="M38.3108 2.65701C36.868 1.74732 35.1789 1.29248 33.2669 1.29248C31.9531 1.29248 30.7449 1.53187 29.6305 1.99868C28.5161 2.46549 27.5425 3.13579 26.6979 3.9976C25.8534 4.8594 25.1965 5.87681 24.739 7.07376C24.6569 7.28922 24.5748 7.51664 24.5044 7.74406H26.7449C26.8622 7.43285 26.9912 7.13361 27.1437 6.84634C27.7537 5.6853 28.5982 4.79955 29.6657 4.17714C30.7331 3.56669 31.9296 3.25548 33.2669 3.25548C34.2053 3.25548 35.1085 3.39912 35.9531 3.68639C36.8094 3.97366 37.5718 4.40456 38.2405 4.9791C38.9091 5.55363 39.4604 6.28378 39.871 7.16952L41.607 6.5112C40.8563 4.84743 39.7654 3.56669 38.3108 2.65701ZM40.0586 14.3991C39.6364 15.3806 39.0733 16.1945 38.3695 16.8409C37.6657 17.4992 36.8798 17.978 36.0117 18.2772C35.1437 18.5885 34.2287 18.7441 33.2669 18.7441C31.9296 18.7441 30.7331 18.4328 29.6657 17.8104C28.5982 17.188 27.7654 16.2903 27.1437 15.1293C27.0029 14.854 26.8739 14.5667 26.7566 14.2555H24.5161C24.5865 14.4709 24.6569 14.6864 24.739 14.8899C25.1965 16.0749 25.8534 17.1042 26.6979 17.978C27.5425 18.8518 28.5161 19.5221 29.6305 19.9889C30.7449 20.4557 31.9531 20.6951 33.2669 20.6951C35.2375 20.6951 36.9619 20.2163 38.4399 19.2707C39.9179 18.3251 41.0323 16.9127 41.7947 15.0455L40.0586 14.3991Z" fill="white"/>
<path d="M45.5484 7.73247H47.6833V1.48438H45.5484V7.73247ZM45.5484 20.5159H47.6833V14.2678H45.5484V20.5159ZM57.6657 7.73247H59.8006V1.48438H57.6657V7.73247ZM57.6657 20.5159H59.8006V14.2678H57.6657V20.5159Z" fill="white"/>
<path d="M64.3284 20.5159H66.4633V14.2678H64.3284V20.5159ZM66.4868 1.48438H64.3284V7.73247H66.4633V4.96751L68.2346 7.74444H70.4985L66.4868 1.48438ZM76.4457 7.73247H78.5806V1.48438H76.4457V7.73247ZM76.4457 14.2678V17.0089L74.6862 14.2678H72.4105L76.4105 20.5159H78.5689V14.2678H76.4457Z" fill="white"/>
<path d="M97.607 3.67442C96.7742 2.90837 95.824 2.30989 94.7448 1.90293C93.6657 1.49596 92.5161 1.29248 91.2962 1.29248C89.9824 1.29248 88.7624 1.53187 87.6363 1.99868C86.5102 2.46549 85.5249 3.13579 84.6803 3.99759C83.8358 4.8594 83.1789 5.87681 82.7096 7.07376C82.6275 7.28922 82.5454 7.51664 82.475 7.74406H84.7038C84.8211 7.44482 84.9501 7.15755 85.0909 6.87028C85.7126 5.70924 86.5689 4.81152 87.6481 4.17714C88.7272 3.54275 89.9472 3.21957 91.2962 3.21957C92.6686 3.21957 93.912 3.54275 95.0264 4.18911C96.1407 4.83546 97.044 5.82893 97.7126 7.19346L99.5777 6.48726C99.0968 5.38606 98.4399 4.44047 97.607 3.67442ZM93.1613 10.3534V12.1249H97.8416V14.3273C97.5014 15.249 97.0205 16.0389 96.3753 16.7092C95.7302 17.3676 94.9794 17.8823 94.1114 18.2294C93.2434 18.5885 92.305 18.756 91.2844 18.756C89.9355 18.756 88.7155 18.4448 87.6363 17.8104C86.5572 17.176 85.7009 16.2783 85.0792 15.1173C84.9384 14.854 84.8094 14.5667 84.7038 14.2794H82.4633C82.5337 14.5068 82.6158 14.7223 82.6979 14.9377C83.1671 16.1227 83.824 17.1521 84.6686 18.0139C85.5132 18.8757 86.4985 19.534 87.6246 20.0128C88.7507 20.4796 89.9707 20.719 91.2844 20.719C92.6686 20.719 93.9472 20.4437 95.1202 19.9051C96.2932 19.3665 97.2903 18.6244 98.1349 17.6788C98.9677 16.7332 99.5894 15.6559 100 14.447V10.3534H93.1613Z" fill="white"/>
<path d="M39.8123 8.77344H40.5044L41.7478 10.4851L42.9912 8.77344H43.6833L42.0997 10.9998L43.6833 13.2261H42.9912L41.7478 11.5145L40.5044 13.2261H39.8123L41.3959 10.9998L39.8123 8.77344Z" fill="white"/>
<path d="M49.5836 10.9998C49.5836 10.6647 49.6422 10.3534 49.7478 10.0781C49.8651 9.80284 50.0176 9.56345 50.217 9.35997C50.4164 9.15649 50.651 9.00089 50.9091 8.89316C51.1789 8.78543 51.4604 8.72559 51.7654 8.72559C52.1994 8.72559 52.5982 8.83331 52.9384 9.03679C53.2786 9.24028 53.5484 9.53951 53.7243 9.93451L53.2199 10.1141C53.1143 9.91057 52.997 9.75497 52.8446 9.63527C52.6921 9.51557 52.5161 9.41982 52.3402 9.35997C52.1525 9.30012 51.9765 9.27618 51.7888 9.27618C51.4956 9.27618 51.2258 9.348 50.9912 9.49164C50.7566 9.63527 50.5689 9.82678 50.4281 10.0901C50.2874 10.3534 50.2287 10.6527 50.2287 11.0118C50.2287 11.3589 50.2991 11.6701 50.4281 11.9215C50.5689 12.1848 50.7566 12.3763 50.9912 12.5199C51.2258 12.6636 51.4956 12.7354 51.7888 12.7354C51.9765 12.7354 52.1642 12.6995 52.3519 12.6396C52.5396 12.5798 52.7155 12.472 52.8797 12.3284C53.044 12.1848 53.173 12.0052 53.2786 11.7658L53.783 11.9454C53.5953 12.4002 53.3255 12.7354 52.9736 12.9508C52.6217 13.1663 52.2229 13.274 51.7771 13.274C51.4721 13.274 51.1789 13.2142 50.9208 13.1064C50.651 12.9987 50.4281 12.8431 50.2287 12.6396C50.0293 12.4361 49.8768 12.1968 49.7595 11.9215C49.6305 11.6342 49.5836 11.3349 49.5836 10.9998Z" fill="white"/>
<path d="M60.2111 8.77344H60.8446V10.7005H63.0381V8.77344H63.6598V13.2261H63.0381V11.2392H60.8446V13.2261H60.2111V8.77344Z" fill="white"/>
<path d="M73.7126 8.77344V13.2261H73.0792L70.8973 9.77888V13.2261H70.2756V8.77344H70.9091L73.0909 12.2087V8.77344H73.7126Z" fill="white"/>
<path d="M83.695 10.138C83.5426 9.83874 83.3314 9.62329 83.0968 9.47965C82.8505 9.34799 82.5924 9.27617 82.2991 9.27617C82.0059 9.27617 81.7361 9.34799 81.5015 9.49162C81.2552 9.63526 81.0675 9.83874 80.9267 10.0901C80.786 10.3415 80.7156 10.6527 80.7156 10.9998C80.7156 11.3469 80.786 11.6461 80.9267 11.9095C81.0675 12.1728 81.2552 12.3763 81.4898 12.5199C81.7244 12.6635 81.9942 12.7354 82.2874 12.7354C82.4986 12.7354 82.698 12.6995 82.8857 12.6157C83.0733 12.5439 83.2376 12.4361 83.3783 12.2925C83.5191 12.1608 83.6247 11.9933 83.7068 11.8137V11.3349H82.3343V10.8083H84.3402V11.8496C84.2346 12.1249 84.0939 12.3643 83.8945 12.5798C83.695 12.7952 83.4604 12.9628 83.1906 13.0945C82.9209 13.2141 82.6159 13.286 82.2991 13.286C81.9942 13.286 81.7009 13.2261 81.4311 13.1184C81.1613 13.0107 80.9267 12.8551 80.7273 12.6516C80.5279 12.4481 80.3754 12.2087 80.2581 11.9334C80.1408 11.6581 80.0939 11.3469 80.0939 11.0118C80.0939 10.6766 80.1525 10.3774 80.2581 10.1021C80.3754 9.82677 80.5279 9.58738 80.7273 9.3839C80.9267 9.18042 81.1613 9.02481 81.4311 8.91709C81.7009 8.80936 81.9824 8.74951 82.2991 8.74951C82.5807 8.74951 82.8505 8.79739 83.0968 8.89315C83.3549 8.9889 83.5777 9.12057 83.7772 9.30011C83.9766 9.47965 84.1291 9.6951 84.2464 9.95843L83.695 10.138Z" fill="white"/>
</g>
<defs>
<clipPath id="clip0_2496_10660">
<rect width="100" height="22" fill="white"/>
</clipPath>
</defs>
</svg>
