<svg width="32" height="32" viewBox="0 0 32 32" fill="none" xmlns="http://www.w3.org/2000/svg">
<circle cx="16" cy="16" r="16" fill="#F1ECFF"/>
<path d="M20.5892 15.383C20.1748 15.274 19.6876 15.2158 19.106 15.2158C18.2989 15.2158 18.0008 15.4121 17.5864 15.7248C17.5645 15.7393 17.5427 15.7611 17.5209 15.7829L16.8302 16.5173C16.2558 17.1353 15.2015 17.1353 14.6198 16.5173L13.9291 15.7902C13.9073 15.7611 13.8855 15.7393 13.8637 15.7248C13.442 15.4121 13.1439 15.2158 12.3441 15.2158C11.7624 15.2158 11.2753 15.2667 10.8608 15.383C9.13037 15.8484 9.13037 17.2226 9.13037 18.4295V19.1057C9.13037 20.9307 9.13037 22.9956 13.0203 22.9956H18.4298C21.0109 22.9956 22.3197 21.6869 22.3197 19.1057V18.4295C22.3197 17.2226 22.3197 15.8484 20.5892 15.383Z" fill="#AF52DE"/>
<path opacity="0.4" d="M17.7536 8.4541H13.6964C10.4827 8.4541 10.4827 10.1627 10.4827 11.6678V15.8776C10.4827 16.0376 10.5554 16.183 10.679 16.2775C10.8026 16.372 10.9699 16.4084 11.1226 16.3648C11.4497 16.2775 11.8569 16.2339 12.3441 16.2339C12.8312 16.2339 12.933 16.2921 13.2238 16.5102L13.8855 17.2082C14.3581 17.7171 15.0343 18.008 15.7323 18.008C16.4303 18.008 17.0992 17.7171 17.5791 17.2082L18.2407 16.5102C18.5315 16.2921 18.6333 16.2339 19.1205 16.2339C19.6076 16.2339 20.0148 16.2775 20.342 16.3648C20.4947 16.4084 20.6546 16.372 20.7855 16.2775C20.9091 16.183 20.9818 16.0303 20.9818 15.8776V11.6678C20.9673 10.1627 20.9673 8.4541 17.7536 8.4541Z" fill="#AF52DE"/>
<path d="M16.852 14.2054H14.598C14.3144 14.2054 14.0891 13.98 14.0891 13.6965C14.0891 13.4129 14.3144 13.1875 14.598 13.1875H16.852C17.1355 13.1875 17.3609 13.4129 17.3609 13.6965C17.3609 13.9728 17.1283 14.2054 16.852 14.2054Z" fill="#AF52DE"/>
<path d="M17.4191 12.1771H14.0309C13.7473 12.1771 13.5219 11.9517 13.5219 11.6681C13.5219 11.3846 13.7473 11.1592 14.0309 11.1592H17.4118C17.6954 11.1592 17.9208 11.3846 17.9208 11.6681C17.9208 11.9444 17.6954 12.1771 17.4191 12.1771Z" fill="#AF52DE"/>
</svg>
