<svg width="200" height="138" viewBox="0 0 200 138" fill="none" xmlns="http://www.w3.org/2000/svg">
<path d="M200 119.915H0V119.995H200V119.915Z" fill="#EBEBEB"/>
<path d="M174.28 126.359H166.72V126.439H174.28V126.359Z" fill="#EBEBEB"/>
<path d="M129.04 125.679H117.24V125.759H129.04V125.679Z" fill="#EBEBEB"/>
<path d="M166.32 122.677H147.48V122.757H166.32V122.677Z" fill="#EBEBEB"/>
<path d="M25.4 123.317H21V123.397H25.4V123.317Z" fill="#EBEBEB"/>
<path d="M44.36 123.317H28.92V123.397H44.36V123.317Z" fill="#EBEBEB"/>
<path d="M90.04 125.039H68.4V125.119H90.04V125.039Z" fill="#EBEBEB"/>
<path d="M174.28 126.359H166.72V126.439H174.28V126.359Z" fill="#EBEBEB"/>
<path d="M129.04 125.679H117.24V125.759H129.04V125.679Z" fill="#EBEBEB"/>
<path d="M166.32 122.677H147.48V122.757H166.32V122.677Z" fill="#EBEBEB"/>
<path d="M25.4 123.317H21V123.397H25.4V123.317Z" fill="#EBEBEB"/>
<path d="M44.36 123.317H28.92V123.397H44.36V123.317Z" fill="#EBEBEB"/>
<path d="M90.04 125.038H68.4V125.118H90.04V125.038Z" fill="#EBEBEB"/>
<path d="M152.746 33.6982H161.946V31.7769H152.746V33.6982Z" fill="#A5B0FC"/>
<path d="M52.8834 33.6982L152.763 33.6982V31.7769L52.8834 31.7769V33.6982Z" fill="#DADEFF"/>
<path d="M109.52 -0.0078125H133.92L130.08 31.8141H105.68L109.52 -0.0078125Z" fill="#C0C8FF"/>
<path d="M113.96 4.15527H128.48L125.64 27.6115H111.12L113.96 4.15527Z" fill="#F3F5FF"/>
<path d="M74.1201 1.43311H103.76L100.08 31.8141H70.4401L74.1201 1.43311Z" fill="#C0C8FF"/>
<path d="M78.36 5.396H98.56L95.84 27.8115H75.64L78.36 5.396Z" fill="#F3F5FF"/>
<path d="M125.44 10.8799H145.88L143.32 31.8143H122.92L125.44 10.8799Z" fill="#DADEFF"/>
<path d="M128.36 13.6016H142.28L140.4 29.0522H126.52L128.36 13.6016Z" fill="#F3F5FF"/>
<path d="M174.12 59.2329H161.52C157.04 59.2329 152.96 62.4751 151.92 66.8782L148.6 80.8078L141.76 80.7678H141.72C138.44 80.7678 135.64 83.0894 135.04 86.2916L134.12 91.0549C132.76 91.255 131.56 92.2957 131.24 93.6967H136.08L130.4 119.915H131.84L137.52 93.6967H141.48L135.8 119.915H137.24L142.92 93.6967H158.8L164.48 119.915H165.92L160.24 93.7367H164.2L169.88 119.955H171.32L165.68 93.7367H165.08C169.56 93.7367 173.6 90.4945 174.68 86.0914L179.48 66.0776C180.32 62.5152 177.76 59.2329 174.12 59.2329ZM147.36 85.9713C146.64 88.8934 143.96 91.0549 141 91.0549H135.92L136.76 86.6518C137.2 84.2902 139.28 82.569 141.68 82.569L148.12 82.609L147.36 85.9713Z" fill="#A5B0FC"/>
<path d="M77.5213 116.668H91.2813L91.2813 55.746H77.5213V116.668Z" fill="#DADEFF"/>
<path d="M28.0182 119.945L88.6582 119.945V116.703L28.0182 116.703V119.945Z" fill="#DADEFF"/>
<path d="M77.5201 55.791H25.3601V116.713H77.5201V55.791Z" fill="#C0C8FF"/>
<path d="M72.1201 62.0752H30.8001V88.5334H72.1201V62.0752Z" fill="#DADEFF"/>
<path d="M72.1201 93.5767H30.8001V110.388H72.1201V93.5767Z" fill="#DADEFF"/>
<path d="M40.7201 63.1561H62.1601C62.7201 63.1561 63.2001 62.6757 63.2001 62.1154V61.8752C63.2001 61.3148 62.7201 60.8345 62.1601 60.8345H40.7201C40.1601 60.8345 39.6801 61.3148 39.6801 61.8752V62.1154C39.6801 62.6757 40.1601 63.1561 40.7201 63.1561Z" fill="#C0C8FF"/>
<path d="M40.7201 94.6976H62.1601C62.7201 94.6976 63.2001 94.2172 63.2001 93.6569V93.4167C63.2001 92.8563 62.7201 92.376 62.1601 92.376H40.7201C40.1601 92.376 39.6801 92.8563 39.6801 93.4167V93.6569C39.6801 94.2573 40.1601 94.6976 40.7201 94.6976Z" fill="#C0C8FF"/>
<path d="M131.72 59.2329H119.12C114.64 59.2329 110.56 62.4751 109.52 66.8782L106.2 80.8078L99.36 80.7678H99.32C96.04 80.7678 93.24 83.0894 92.64 86.2916L91.72 91.0549C90.36 91.255 89.16 92.2957 88.84 93.6967H93.68L88 119.915H89.44L95.12 93.6967H99.08L93.4 119.915H94.84L100.52 93.6967H116.4L122.08 119.915H123.52L117.8 93.7367H121.76L127.44 119.955H128.88L123.24 93.7367H122.64C127.12 93.7367 131.16 90.4945 132.24 86.0914L137.04 66.0776C137.88 62.5152 135.32 59.2329 131.72 59.2329ZM104.92 85.9713C104.2 88.8934 101.52 91.0549 98.56 91.0549H93.48L94.32 86.6518C94.76 84.2902 96.84 82.569 99.24 82.569L105.68 82.609L104.92 85.9713Z" fill="#A5B0FC"/>
<path d="M100 138.007C142.835 138.007 177.56 135.982 177.56 133.484C177.56 130.986 142.835 128.961 100 128.961C57.1648 128.961 22.44 130.986 22.44 133.484C22.44 135.982 57.1648 138.007 100 138.007Z" fill="#DADEFF"/>
<path d="M146.592 59.8698L146.233 59.9043L146.727 65.0441L147.085 65.0096L146.592 59.8698Z" fill="#303B89"/>
<path d="M147.258 66.7868L146.9 66.8213L147.099 68.8931L147.457 68.8587L147.258 66.7868Z" fill="#303B89"/>
<path d="M55.9691 111.169L149.338 102.188L143.995 46.567L50.6267 55.5474L55.9691 111.169Z" fill="#303B89"/>
<path opacity="0.1" d="M55.9691 111.169L149.338 102.188L143.995 46.567L50.6267 55.5474L55.9691 111.169Z" fill="black"/>
<path opacity="0.1" d="M100.24 81.3685L50.64 55.5506L144 46.5444L100.24 81.3685Z" fill="#263238"/>
<path d="M88.96 25.0495L50.64 55.5105L144 46.5443L100.6 23.9287C96.84 21.9673 92.28 22.4076 88.96 25.0495Z" fill="#303B89"/>
<path opacity="0.2" d="M140.56 46.9049L99.32 25.4101C96.48 23.9291 93.04 24.2493 90.52 26.2507L54.12 55.1906L140.56 46.9049Z" fill="#263238"/>
<path d="M123.32 46.2241L135.92 49.5864L136.24 52.7486L100.24 81.3684L59.44 60.1137L58.84 53.8294L123.32 46.2241Z" fill="white"/>
<path d="M123.32 46.2241L125.68 52.8287L135.92 49.5864" fill="#E0E0E0"/>
<path d="M123.32 46.2241L124.52 51.6679L135.92 49.5864" fill="#F0F0F0"/>
<path d="M107.72 75.4445L149.36 102.183L56 111.149L91.8 76.9655C96.12 72.8427 102.68 72.2022 107.72 75.4445Z" fill="#303B89"/>
</svg>
