<svg width="44" height="44" viewBox="0 0 44 44" fill="none" xmlns="http://www.w3.org/2000/svg">
<circle cx="22" cy="22" r="22" fill="#FEF4EB"/>
<path opacity="0.4" d="M30.62 18.45C29.57 13.83 25.54 11.75 22 11.75C22 11.75 22 11.75 21.99 11.75C18.46 11.75 14.42 13.82 13.37 18.44C12.2 23.6 15.36 27.97 18.22 30.72C19.28 31.74 20.64 32.25 22 32.25C23.36 32.25 24.72 31.74 25.77 30.72C28.63 27.97 31.79 23.61 30.62 18.45Z" fill="#F87E14"/>
<path d="M22 23.4602C23.7397 23.4602 25.15 22.0499 25.15 20.3102C25.15 18.5705 23.7397 17.1602 22 17.1602C20.2603 17.1602 18.85 18.5705 18.85 20.3102C18.85 22.0499 20.2603 23.4602 22 23.4602Z" fill="#F87E14"/>
</svg>
