<svg width="44" height="44" viewBox="0 0 44 44" fill="none" xmlns="http://www.w3.org/2000/svg">
<circle cx="22" cy="22" r="22" fill="#E8F6FD"/>
<path opacity="0.4" d="M19.96 12.1094L14.46 14.1694C13.41 14.5694 12.55 15.8094 12.55 16.9394V25.0394C12.55 25.8494 13.08 26.9194 13.73 27.3994L19.23 31.5094C20.2 32.2394 21.79 32.2394 22.76 31.5094L28.26 27.3994C28.91 26.9094 29.44 25.8494 29.44 25.0394V16.9394C29.44 15.8194 28.58 14.5694 27.53 14.1794L22.03 12.1194C21.47 11.8994 20.53 11.8994 19.96 12.1094Z" fill="#32ADE6"/>
<path d="M26 21.5098C23.52 21.5098 21.5 23.5298 21.5 26.0098C21.5 28.4898 23.52 30.5098 26 30.5098C28.48 30.5098 30.5 28.4898 30.5 26.0098C30.5 23.5198 28.48 21.5098 26 21.5098Z" fill="#32ADE6"/>
<path d="M31 32.0009C30.73 32.0009 30.48 31.8909 30.29 31.7109C30.25 31.6609 30.2 31.6109 30.17 31.5509C30.13 31.5009 30.1 31.4409 30.08 31.3809C30.05 31.3209 30.03 31.2609 30.02 31.2009C30.01 31.1309 30 31.0709 30 31.0009C30 30.8709 30.03 30.7409 30.08 30.6209C30.13 30.4909 30.2 30.3909 30.29 30.2909C30.52 30.0609 30.87 29.9509 31.19 30.0209C31.26 30.0309 31.32 30.0509 31.38 30.0809C31.44 30.1009 31.5 30.1309 31.55 30.1709C31.61 30.2009 31.66 30.2509 31.71 30.2909C31.8 30.3909 31.87 30.4909 31.92 30.6209C31.97 30.7409 32 30.8709 32 31.0009C32 31.2609 31.89 31.5209 31.71 31.7109C31.66 31.7509 31.61 31.7909 31.55 31.8309C31.5 31.8709 31.44 31.9009 31.38 31.9209C31.32 31.9509 31.26 31.9709 31.19 31.9809C31.13 31.9909 31.06 32.0009 31 32.0009Z" fill="#32ADE6"/>
</svg>
