<svg width="20" height="20" viewBox="0 0 20 20" fill="none" xmlns="http://www.w3.org/2000/svg">
<path opacity="0.4" d="M15.5583 1.66699H13.975C12.1583 1.66699 11.2 2.62533 11.2 4.44199V6.02533C11.2 7.84199 12.1583 8.80033 13.975 8.80033H15.5583C17.375 8.80033 18.3333 7.84199 18.3333 6.02533V4.44199C18.3333 2.62533 17.375 1.66699 15.5583 1.66699Z" fill="#EAEBF1"/>
<path opacity="0.4" d="M6.03333 11.1914H4.45C2.625 11.1914 1.66667 12.1497 1.66667 13.9664V15.5497C1.66667 17.3747 2.625 18.3331 4.44167 18.3331H6.025C7.84167 18.3331 8.8 17.3747 8.8 15.5581V13.9747C8.80833 12.1497 7.85 11.1914 6.03333 11.1914Z" fill="#EAEBF1"/>
<path d="M5.24167 8.81699C7.21608 8.81699 8.81667 7.21641 8.81667 5.24199C8.81667 3.26757 7.21608 1.66699 5.24167 1.66699C3.26725 1.66699 1.66667 3.26757 1.66667 5.24199C1.66667 7.21641 3.26725 8.81699 5.24167 8.81699Z" fill="#EAEBF1"/>
<path d="M14.7583 18.3336C16.7328 18.3336 18.3333 16.733 18.3333 14.7586C18.3333 12.7842 16.7328 11.1836 14.7583 11.1836C12.7839 11.1836 11.1833 12.7842 11.1833 14.7586C11.1833 16.733 12.7839 18.3336 14.7583 18.3336Z" fill="#EAEBF1"/>
</svg>
