<svg width="32" height="32" viewBox="0 0 32 32" fill="none" xmlns="http://www.w3.org/2000/svg">
<path d="M21.1508 31.1437C29.5144 28.2989 33.9884 19.2128 31.1437 10.8492C28.299 2.4856 19.2128 -1.98835 10.8492 0.856351C2.4856 3.70106 -1.98835 12.7872 0.856351 21.1508C3.70106 29.5144 12.7872 33.9884 21.1508 31.1437Z" fill="white"/>
<rect x="1.5" y="1.5" width="28.92" height="28.92" rx="14.46" fill="white" stroke="#F5F5F5"/>
<mask id="mask0_2823_34512" style="mask-type:luminance" maskUnits="userSpaceOnUse" x="1" y="1" width="30" height="30">
<rect x="1.5" y="1.5" width="28.92" height="28.92" rx="14.46" fill="white" stroke="white"/>
</mask>
<g mask="url(#mask0_2823_34512)">
<rect x="20.9467" y="1" width="9.97333" height="29.92" fill="#189B62"/>
<path fill-rule="evenodd" clip-rule="evenodd" d="M1 30.92H10.9733V1H1V30.92Z" fill="#189B62"/>
</g>
<g opacity="0.15">
<path opacity="0.0357143" d="M10.8693 8.15471C13.0872 6.7131 15.6932 6.26953 18.1328 6.76854C20.5725 7.26756 22.7903 8.70917 24.232 10.927C25.6736 13.1449 26.1171 15.7509 25.6181 18.1905C25.1191 20.6302 23.6775 22.8481 21.4596 24.2897C19.2418 25.7313 16.6358 26.1748 14.1961 25.6758C13.4753 25.5095 12.7545 25.2877 12.0892 24.955C10.5367 24.2342 9.15048 23.0698 8.097 21.5173C6.65539 19.2995 6.21181 16.6935 6.71083 14.2538C7.20985 11.8142 8.65146 9.59632 10.8693 8.15471ZM19.4081 0.835759C10.9248 -0.938532 2.55234 4.49523 0.77805 12.9786C-0.99624 21.5173 4.43753 29.8343 12.9209 31.6641C21.4042 33.4384 29.7766 28.0046 31.5509 19.5213C32.4381 15.2519 31.5509 11.0379 29.333 7.65569C27.7805 5.27149 25.5627 3.27541 22.8458 2.00014C21.7923 1.50112 20.6279 1.11299 19.4081 0.835759Z" fill="white"/>
<path opacity="0.0714286" d="M10.7584 7.98837C13.0317 6.49131 15.6932 6.04774 18.1883 6.6022C20.6834 7.10122 22.9567 8.59828 24.3983 10.8716C25.8954 13.1449 26.3389 15.8063 25.7845 18.3014C25.2854 20.7965 23.7884 23.0698 21.5151 24.5114C19.2418 26.0085 16.5803 26.4521 14.0852 25.8976C13.309 25.7313 12.5882 25.5095 11.9228 25.1768C10.3149 24.4006 8.9287 23.2362 7.87521 21.6282C6.37815 19.3549 5.93458 16.6935 6.48905 14.1984C7.04351 11.7033 8.48513 9.48543 10.7584 7.98837ZM19.4081 0.835759C10.9248 -0.938532 2.55234 4.49523 0.77805 12.9786C-0.99624 21.5173 4.43753 29.8343 12.9209 31.6086C21.4042 33.3829 29.7766 27.9491 31.5509 19.4658C32.4381 15.2519 31.5509 11.0379 29.333 7.65569C27.7805 5.27149 25.5627 3.27541 22.9012 2.00014C21.7923 1.50112 20.6279 1.11299 19.4081 0.835759Z" fill="white"/>
<path opacity="0.1071" d="M10.6475 7.82203C12.9763 6.32497 15.6932 5.8814 18.2437 6.38042C20.7943 6.93488 23.0676 8.43194 24.6201 10.7053C26.1171 13.034 26.5607 15.7509 26.0617 18.3014C25.5072 20.852 24.0102 23.1253 21.7369 24.6778C19.4081 26.1748 16.6912 26.6184 14.1407 26.1194C13.3644 25.9531 12.6436 25.7313 11.9228 25.3986C10.2594 24.6223 8.81781 23.4025 7.76432 21.7946C6.26726 19.4658 5.82369 16.7489 6.32271 14.1984C6.82173 11.6478 8.37423 9.31909 10.6475 7.82203ZM19.4081 0.835759C10.9248 -0.938532 2.55234 4.49523 0.77805 12.9786C-0.99624 21.5173 4.43753 29.8343 12.9209 31.6086C21.4042 33.3829 29.7766 27.9491 31.5509 19.4658C32.4381 15.2519 31.5509 11.0379 29.333 7.65569C27.7805 5.27149 25.5627 3.27541 22.9012 2.00014C21.7923 1.50112 20.6279 1.11299 19.4081 0.835759Z" fill="white"/>
<path opacity="0.1429" d="M10.5366 7.65569C12.9209 6.10318 15.6932 5.65961 18.2437 6.21408C20.8497 6.76854 23.1785 8.32105 24.731 10.6498C26.2835 13.034 26.7271 15.8063 26.1726 18.3569C25.6181 20.9629 24.0656 23.2916 21.7369 24.8441C19.3527 26.3966 16.5803 26.8402 14.0298 26.2857C13.2535 26.1194 12.4773 25.8422 11.7565 25.5095C10.0931 24.7332 8.59602 23.458 7.54253 21.85C5.99003 19.4658 5.54646 16.6935 6.10092 14.1429C6.65539 11.537 8.20789 9.15275 10.5366 7.65569ZM19.4081 0.835759C10.9248 -0.938532 2.55234 4.49523 0.77805 12.9786C-0.99624 21.5173 4.43753 29.8343 12.9209 31.6086C21.4042 33.3829 29.7766 27.9491 31.5509 19.4658C32.4381 15.2519 31.5509 11.0379 29.333 7.65569C27.7805 5.27149 25.5627 3.27541 22.9012 2.05558C21.7923 1.50112 20.6279 1.11299 19.4081 0.835759Z" fill="white"/>
<path opacity="0.1786" d="M10.4258 7.4339C12.81 5.8814 15.6377 5.38238 18.2992 5.93685C20.9606 6.49131 23.3448 8.04382 24.8973 10.4835C26.4498 12.8677 26.9488 15.6954 26.3944 18.3569C25.8399 21.0183 24.2874 23.4025 21.8478 24.955C19.4636 26.5075 16.6358 27.0065 13.9743 26.4521C13.1981 26.2857 12.4218 26.0085 11.6456 25.6758C9.92674 24.8441 8.42968 23.6243 7.32075 21.9055C5.76824 19.5213 5.26922 16.6935 5.82369 14.032C6.48905 11.4261 8.04155 9.04185 10.4258 7.4339ZM19.4081 0.835759C10.9248 -0.938532 2.60779 4.49523 0.77805 12.9786C-0.99624 21.5173 4.43753 29.8343 12.9209 31.6086C21.4042 33.3829 29.7212 27.9491 31.5509 19.4658C32.4381 15.2519 31.5509 11.0379 29.333 7.65569C27.7805 5.27149 25.5627 3.27541 22.9012 2.05558C21.7923 1.50112 20.6279 1.11299 19.4081 0.835759Z" fill="white"/>
<path opacity="0.2143" d="M10.3149 7.26681C12.7545 5.65885 15.6378 5.21528 18.3546 5.76975C21.0715 6.32421 23.5112 7.93216 25.1191 10.3718C26.7271 12.8115 27.2261 15.6947 26.6162 18.4116C26.0617 21.1285 24.4538 23.5681 22.0141 25.1761C19.5745 26.784 16.6912 27.2276 13.9744 26.6731C13.1427 26.5068 12.3664 26.2295 11.5902 25.8969C9.87132 25.0652 8.31881 23.7899 7.20988 22.071C5.60193 19.6314 5.15836 16.7482 5.71283 14.0313C6.26729 11.3144 7.87524 8.87476 10.3149 7.26681ZM19.4081 0.890447C10.9248 -0.883844 2.60782 4.54992 0.833526 13.0332C-0.996212 21.5166 4.43756 29.8336 12.9209 31.6079C21.4042 33.3821 29.7212 27.9484 31.4955 19.4651C32.3826 15.2511 31.4955 11.0372 29.2776 7.65493C27.7251 5.27073 25.5073 3.27465 22.8458 2.05483C21.7923 1.50036 20.628 1.11223 19.4081 0.890447Z" fill="white"/>
<path opacity="0.25" d="M10.204 7.10046C12.6991 5.49251 15.6377 4.99349 18.4101 5.54796C21.1824 6.15787 23.6775 7.76582 25.2854 10.2609C26.8934 12.756 27.3924 15.6947 26.8379 18.467C26.228 21.2393 24.6201 23.7344 22.125 25.3424C19.6299 26.9503 16.6912 27.4494 13.9189 26.8949C13.0872 26.7286 12.2555 26.4513 11.5347 26.0632C9.7604 25.2315 8.20789 23.9008 7.04351 22.1819C5.43556 19.6868 4.93654 16.7482 5.49101 13.9758C6.10092 11.2035 7.70887 8.76386 10.204 7.10046ZM19.4081 0.890447C10.9248 -0.883844 2.60779 4.54992 0.77805 13.0332C-0.99624 21.4611 4.43753 29.8336 12.9209 31.6079C21.4042 33.3821 29.7212 27.9484 31.4955 19.4651C32.3826 15.2511 31.4955 11.0372 29.2776 7.65493C27.7251 5.21528 25.5072 3.27465 22.8458 2.05483C21.7923 1.50036 20.6279 1.11223 19.4081 0.890447Z" fill="white"/>
<path opacity="0.2857" d="M10.0931 6.93412C12.6436 5.27073 15.6378 4.77171 18.4655 5.38162C21.2933 5.99153 23.8439 7.65493 25.4518 10.2055C27.1152 12.756 27.6142 15.7501 27.0043 18.5779C26.3944 21.4057 24.731 23.9562 22.1805 25.5642C19.6299 27.2276 16.6358 27.7266 13.808 27.1167C12.9763 26.9503 12.1446 26.6731 11.3684 26.285C9.53864 25.4533 7.98614 24.0671 6.82176 22.2928C5.15836 19.7423 4.65934 16.7482 5.26925 13.9204C5.87917 11.1481 7.54256 8.59752 10.0931 6.93412ZM19.4081 0.890447C10.9248 -0.883844 2.60782 4.54992 0.833526 13.0332C-0.996212 21.4611 4.43756 29.8336 12.9209 31.6079C21.4042 33.3821 29.7212 27.9484 31.4955 19.4651C32.3826 15.2511 31.4955 11.0926 29.2776 7.65493C27.7251 5.21528 25.5073 3.27465 22.8458 2.05483C21.7923 1.55581 20.628 1.11223 19.4081 0.890447Z" fill="white"/>
<path opacity="0.3214" d="M9.98225 6.76779C12.5328 5.10439 15.5824 4.54992 18.4656 5.15983C21.3488 5.76975 23.9548 7.48859 25.6182 10.0391C27.2816 12.6451 27.836 15.6392 27.2261 18.5225C26.6162 21.4057 24.8974 24.0117 22.3468 25.6751C19.7963 27.3385 16.7467 27.8929 13.8635 27.283C12.9764 27.1167 12.1447 26.8395 11.3684 26.4513C9.53868 25.5642 7.87528 24.178 6.7109 22.4037C5.0475 19.8532 4.49304 16.8036 5.10295 13.9204C5.71286 11.0372 7.43171 8.43118 9.98225 6.76779ZM19.4082 0.890447C10.9248 -0.883844 2.60785 4.54992 0.833562 13.0332C-0.940729 21.5166 4.49304 29.8336 12.9764 31.6079C21.4597 33.3821 29.7767 27.9484 31.551 19.4651C32.4381 15.2511 31.551 11.0926 29.3331 7.65493C27.7806 5.21528 25.5627 3.27465 22.9013 2.05483C21.7924 1.55581 20.628 1.16768 19.4082 0.890447Z" fill="white"/>
<path opacity="0.3571" d="M9.87136 6.60145C12.4773 4.8826 15.5824 4.38358 18.521 4.99349C21.4597 5.60341 24.0657 7.32225 25.7845 9.98369C27.5034 12.5897 28.0024 15.6947 27.3925 18.6334C26.7826 21.572 25.0637 24.178 22.4023 25.8969C19.7963 27.6157 16.6913 28.1147 13.7526 27.5048C12.8655 27.3385 12.0338 27.0058 11.2021 26.6731C9.31689 25.786 7.65349 24.3998 6.48911 22.5701C4.77027 19.9641 4.27125 16.8591 4.88116 13.9204C5.49108 10.9263 7.26537 8.32029 9.87136 6.60145ZM19.4082 0.890447C10.9248 -0.883844 2.60785 4.54992 0.833562 13.0332C-0.940729 21.5166 4.49304 29.8336 12.9764 31.6079C21.4597 33.3821 29.7767 27.9484 31.551 19.4651C32.4381 15.2511 31.551 11.0926 29.3331 7.65493C27.7806 5.21528 25.5627 3.27465 22.9013 2.05483C21.7924 1.55581 20.628 1.16768 19.4082 0.890447Z" fill="white"/>
<path opacity="0.3929" d="M9.76042 6.43511C12.4219 4.71626 15.5823 4.1618 18.5764 4.77171C21.5705 5.38162 24.232 7.15591 26.0063 9.81735C27.7251 12.4788 28.2796 15.6392 27.6697 18.6334C27.0598 21.6275 25.2855 24.2889 22.624 26.0632C19.9626 27.782 16.8021 28.3365 13.808 27.7266C12.9209 27.5603 12.0337 27.2276 11.202 26.8394C9.2614 25.9523 7.59801 24.5107 6.37818 22.6255C4.65934 19.9641 4.10487 16.8036 4.71479 13.8095C5.3247 10.8154 7.09899 8.15395 9.76042 6.43511ZM19.4081 0.890447C10.9248 -0.883844 2.60782 4.54992 0.833525 13.0332C-0.940766 21.5166 4.493 29.8336 12.9209 31.6079C21.4042 33.3821 29.7212 27.9484 31.4955 19.5205C32.3826 15.362 31.4955 11.1481 29.2776 7.71038C27.7251 5.27073 25.5073 3.3301 22.8458 2.11027C21.7923 1.55581 20.628 1.16768 19.4081 0.890447Z" fill="white"/>
<path opacity="0.4286" d="M9.64953 6.26877C12.3664 4.49447 15.5823 3.94001 18.6319 4.60537C21.6814 5.27073 24.3983 7.04502 26.1726 9.7619C27.9469 12.4788 28.5014 15.6947 27.836 18.7442C27.1707 21.7938 25.3964 24.5107 22.6795 26.285C19.9626 28.0593 16.7467 28.6137 13.6971 27.9484C12.7545 27.782 11.9228 27.4494 11.0357 27.0612C9.09507 26.1186 7.37622 24.677 6.1564 22.7919C4.38211 20.075 3.82764 16.8591 4.493 13.8095C5.15836 10.7045 6.93265 7.98761 9.64953 6.26877ZM19.4081 0.890447C10.9248 -0.883844 2.60782 4.54992 0.833525 13.0332C-0.940766 21.5166 4.493 29.8336 12.9209 31.6079C21.4042 33.3821 29.7212 27.9484 31.4955 19.5205C32.3826 15.362 31.4955 11.1481 29.2776 7.71038C27.6697 5.27073 25.5073 3.3301 22.8458 2.11027C21.7923 1.55581 20.628 1.16768 19.4081 0.890447Z" fill="white"/>
<path opacity="0.4643" d="M9.53864 6.04698C12.311 4.27269 15.5269 3.66278 18.6873 4.32814C21.7923 4.99349 24.5647 6.82323 26.339 9.59556C28.1132 12.3679 28.7232 15.5838 28.0578 18.7442C27.3924 21.8493 25.5627 24.6216 22.7904 26.3959C20.018 28.1702 16.8021 28.7801 13.6417 28.1147C12.6991 27.8929 11.812 27.6157 10.9803 27.2276C8.98417 26.285 7.26533 24.7879 5.99006 22.9027C4.21577 20.1304 3.60585 16.9145 4.27121 13.7541C4.93657 10.649 6.76631 7.87672 9.53864 6.04698ZM19.4081 0.890447C10.9248 -0.883844 2.60782 4.54992 0.833525 13.0332C-0.940766 21.5166 4.493 29.7781 12.9209 31.5524C21.4042 33.3267 29.6657 27.8929 31.44 19.4651C32.3272 15.3066 31.44 11.0926 29.2222 7.71038C27.6142 5.27073 25.4518 3.3301 22.7904 2.11027C21.7369 1.55581 20.628 1.16768 19.4081 0.890447Z" fill="white"/>
<path opacity="0.5" d="M9.42775 5.88064C12.2001 4.0509 15.5269 3.49644 18.6873 4.1618C21.8478 4.82715 24.6756 6.71234 26.5053 9.48467C28.335 12.257 28.8895 15.5838 28.2241 18.7442C27.5588 21.9047 25.6736 24.7325 22.9013 26.5622C20.1289 28.392 16.8021 28.9464 13.6417 28.2811C12.6991 28.0593 11.7565 27.782 10.9248 27.3939C8.87328 26.4513 7.15444 24.9543 5.87916 22.9582C4.04943 20.1859 3.49496 16.8591 4.16032 13.6986C4.77023 10.5382 6.59997 7.71038 9.42775 5.88064ZM19.4081 0.890447C10.9248 -0.883844 2.60782 4.54992 0.833525 13.0332C-0.940766 21.5166 4.493 29.7781 12.9209 31.5524C21.3488 33.3267 29.6657 27.8929 31.44 19.4651C32.3272 15.3066 31.44 11.0926 29.2222 7.71038C27.6142 5.27073 25.4518 3.3301 22.7904 2.11027C21.7369 1.55581 20.628 1.16768 19.4081 0.890447Z" fill="white"/>
<path opacity="0.5357" d="M9.31686 5.71604C12.1446 3.88631 15.5269 3.27639 18.7428 3.94175C21.9587 4.60711 24.8419 6.54774 26.6716 9.37552C28.5014 12.2033 29.1113 15.5855 28.4459 18.8014C27.7806 22.0173 25.8399 24.9006 23.0122 26.7303C20.1844 28.56 16.8021 29.1699 13.5862 28.5046C12.6436 28.2828 11.7011 28.0056 10.8139 27.562C8.76239 26.564 6.9881 25.0669 5.65738 23.0708C3.82764 20.243 3.21773 16.8608 3.88309 13.6449C4.54845 10.429 6.48908 7.60123 9.31686 5.71604ZM19.4081 0.947636C10.9248 -0.826655 2.60782 4.55166 0.833525 13.035C-0.940766 21.4629 4.493 29.7799 12.9209 31.5542C21.3488 33.3284 29.6657 27.8947 31.44 19.4668C32.3272 15.3083 31.4955 11.1498 29.2222 7.71212C27.6142 5.27247 25.4518 3.33184 22.7904 2.11202C21.7369 1.55755 20.628 1.16942 19.4081 0.947636Z" fill="white"/>
<path opacity="0.5714" d="M9.20599 5.5497C12.0892 3.66452 15.5269 3.05461 18.7983 3.77541C22.0696 4.44077 24.9528 6.3814 26.838 9.26462C28.7232 12.1478 29.3331 15.5855 28.6123 18.8569C27.9469 22.1282 26.0063 25.0115 23.1231 26.8966C20.2399 28.7818 16.8022 29.3917 13.5308 28.6709C12.5328 28.4491 11.5902 28.1719 10.7031 27.7283C8.59608 26.7303 6.76635 25.1778 5.49108 23.1817C3.60589 20.2985 2.99598 16.8608 3.71678 13.5895C4.38214 10.3181 6.32277 7.43489 9.20599 5.5497ZM19.4082 0.947636C10.9248 -0.826655 2.6633 4.55166 0.889006 13.035C-0.885285 21.4629 4.54848 29.7799 12.9764 31.5542C21.4042 33.3284 29.7212 27.8947 31.4955 19.4668C32.3827 15.3083 31.551 11.1498 29.2777 7.71212C27.6697 5.27247 25.5073 3.33184 22.8459 2.11202C21.7369 1.55755 20.5725 1.16942 19.4082 0.947636Z" fill="white"/>
<path opacity="0.6071" d="M9.0951 5.38098C12.0338 3.49579 15.4715 2.83043 18.8537 3.55124C22.1805 4.27205 25.1192 6.21268 27.0598 9.15135C28.945 12.09 29.6103 15.5277 28.8895 18.9099C28.1687 22.2367 26.2281 25.1754 23.2894 27.116C20.3508 29.0012 16.9131 29.6666 13.5308 28.9458C12.5328 28.724 11.5902 28.3913 10.6476 28.0032C8.48519 27.0051 6.65545 25.3972 5.32473 23.3457C3.43955 20.407 2.77419 16.9693 3.495 13.5871C4.16036 10.2048 6.15643 7.26616 9.0951 5.38098ZM19.4082 0.94525C10.9803 -0.829041 2.6633 4.60472 0.889006 13.0326C-0.885285 21.4605 4.54848 29.7775 12.9764 31.5518C21.4042 33.3261 29.7212 27.8923 31.4955 19.4644C32.3827 15.3059 31.551 11.1474 29.2777 7.70973C27.6697 5.27008 25.5073 3.32945 22.8459 2.10963C21.7369 1.55516 20.5725 1.16704 19.4082 0.94525Z" fill="white"/>
<path opacity="0.6429" d="M8.98421 5.21464C11.9783 3.27401 15.4715 2.66409 18.9091 3.32945C22.2914 4.05026 25.2855 6.04634 27.2261 9.04045C29.1668 12.0346 29.7767 15.5277 29.1113 18.9654C28.3905 22.3476 26.3944 25.3417 23.4003 27.2824C20.4062 29.223 16.9131 29.8329 13.4754 29.1676C12.4773 28.9458 11.4793 28.6131 10.5367 28.1695C8.3743 27.1715 6.48911 25.5635 5.10295 23.4566C3.16232 20.4624 2.55241 16.9693 3.21777 13.5316C3.99402 10.0939 5.99009 7.15527 8.98421 5.21464ZM19.4082 0.94525C10.9803 -0.829041 2.6633 4.60472 0.889006 13.0326C-0.885285 21.4605 4.54848 29.7775 12.9764 31.5518C21.4042 33.3261 29.7212 27.8923 31.4955 19.4644C32.3827 15.3059 31.551 11.1474 29.2777 7.70973C27.6697 5.27008 25.5073 3.32945 22.8459 2.10963C21.7369 1.61061 20.5725 1.22248 19.4082 0.94525Z" fill="white"/>
<path opacity="0.6786" d="M8.87328 5.0483C11.8674 3.10767 15.4714 2.44231 18.9091 3.16311C22.3468 3.88392 25.3964 5.93544 27.337 8.92956C29.2776 11.9237 29.943 15.5277 29.2222 18.9654C28.5014 22.4031 26.4499 25.4526 23.4557 27.3933C20.4616 29.3339 16.8576 29.9993 13.4199 29.2785C12.3664 29.0567 11.4238 28.724 10.4812 28.2804C8.26337 27.2269 6.37818 25.619 4.99202 23.512C3.05139 20.5179 2.38603 16.9139 3.10683 13.4762C3.82764 10.0385 5.82372 6.98893 8.87328 5.0483ZM19.3527 0.94525C10.9248 -0.829041 2.60782 4.60472 0.833525 13.0326C-0.940766 21.4605 4.493 29.7775 12.9209 31.5518C21.3488 33.3261 29.6657 27.8923 31.44 19.4644C32.3272 15.3614 31.4955 11.1474 29.2222 7.70973C27.6142 5.27008 25.4518 3.32945 22.7904 2.10963C21.7369 1.61061 20.5725 1.22248 19.3527 0.94525Z" fill="white"/>
<path opacity="0.7143" d="M8.76242 4.88196C11.812 2.88588 15.4715 2.22052 18.9646 2.94133C22.5132 3.66213 25.5627 5.7691 27.5588 8.81867C29.5549 11.8682 30.2203 15.5277 29.4994 19.0208C28.7786 22.5694 26.6717 25.619 23.6221 27.6151C20.5725 29.6111 16.9131 30.2765 13.4199 29.5557C12.3664 29.3339 11.3684 29.0012 10.4258 28.5576C8.20796 27.5042 6.26732 25.8408 4.82571 23.6783C2.77419 20.5733 2.10883 16.9693 2.88508 13.4207C3.60589 9.9276 5.65742 6.87803 8.76242 4.88196ZM19.3527 0.94525C10.9248 -0.829041 2.60785 4.60472 0.889006 13.0326C-0.885285 21.4605 4.54848 29.7775 12.9764 31.4963C21.4042 33.2706 29.7212 27.8368 31.4401 19.409C32.3272 15.3059 31.4955 11.092 29.2222 7.65429C27.6143 5.21464 25.4518 3.27401 22.7904 2.05418C21.7369 1.61061 20.5725 1.22248 19.3527 0.94525Z" fill="white"/>
<path opacity="0.75" d="M8.65153 4.66017C11.7565 2.60865 15.4715 1.94329 19.02 2.71954C22.6241 3.49579 25.7291 5.60276 27.7252 8.65233C29.7767 11.7573 30.442 15.4723 29.6658 19.0208C28.8895 22.6249 26.7826 25.7299 23.733 27.726C20.628 29.7775 16.9131 30.4428 13.3645 29.6666C12.311 29.4448 11.2575 29.1121 10.3149 28.6685C8.04162 27.6151 6.10099 25.8962 4.65938 23.7338C2.60785 20.6288 1.94249 16.9139 2.71875 13.3653C3.43955 9.8167 5.54652 6.71169 8.65153 4.66017ZM19.3527 0.94525C10.9248 -0.829041 2.6633 4.60472 0.889006 13.0326C-0.885285 21.4605 4.54848 29.722 12.9764 31.4963C21.4042 33.2706 29.6658 27.8368 31.4401 19.409C32.3272 15.3059 31.4955 11.1474 29.2222 7.65429C27.6143 5.21464 25.3964 3.27401 22.7904 2.05418C21.7369 1.61061 20.5725 1.22248 19.3527 0.94525Z" fill="white"/>
<path opacity="0.7857" d="M8.5406 4.49395C11.7011 2.44242 15.416 1.77706 19.0755 2.49787C22.7349 3.27412 25.8399 5.38109 27.8915 8.54155C29.943 11.702 30.6083 15.4169 29.8875 19.0764C29.1113 22.7359 27.0043 25.8409 23.8439 27.8924C20.6834 29.9439 16.9685 30.6093 13.309 29.8885C12.2555 29.6667 11.202 29.334 10.204 28.835C7.87524 27.7261 5.87916 26.0072 4.43755 23.8448C2.38603 20.6844 1.72067 16.9694 2.44148 13.31C3.21773 9.70593 5.38015 6.54547 8.5406 4.49395ZM19.3527 0.945366C10.9248 -0.828925 2.66326 4.60484 0.888969 12.9773C-0.885321 21.4052 4.54845 29.6667 12.9209 31.441C21.3488 33.2153 29.6103 27.7815 31.3846 19.4091C32.2717 15.306 31.44 11.1475 29.1667 7.6544C27.5588 5.21475 25.3409 3.27412 22.7349 2.0543C21.7369 1.61073 20.5725 1.2226 19.3527 0.945366Z" fill="white"/>
<path opacity="0.8214" d="M8.4297 4.3288C11.6456 2.22183 15.416 1.55647 19.1309 2.33272C22.8458 3.10898 26.0063 5.27139 28.1132 8.4873C30.2202 11.7032 30.8856 15.4736 30.1093 19.1885C29.3331 22.9034 27.1707 26.0639 23.9548 28.1708C20.7388 30.2778 16.9685 30.9432 13.2536 30.1669C12.1446 29.9451 11.0911 29.557 10.0931 29.1134C7.76435 28.0045 5.71282 26.2857 4.27121 24.0123C2.16424 20.7964 1.49888 17.0261 2.27513 13.3111C3.05139 9.59623 5.2138 6.43577 8.4297 4.3288ZM19.3527 1.00201C10.9248 -0.772284 2.66326 4.66148 0.888969 13.0339C-0.885321 21.4618 4.54845 29.7233 12.9209 31.4976C21.3488 33.2719 29.6103 27.8382 31.3846 19.4657C32.2717 15.3627 31.44 11.2042 29.1667 7.71104C27.5588 5.27139 25.3409 3.33076 22.7904 2.11094C21.7369 1.61192 20.5725 1.22379 19.3527 1.00201Z" fill="white"/>
<path opacity="0.8571" d="M8.31881 4.16246C11.5347 2.05549 15.416 1.33469 19.1309 2.11094C22.9013 2.88719 26.1172 5.10505 28.2241 8.32096C30.3311 11.5369 31.0519 15.4181 30.2757 19.133C29.4994 22.9034 27.2815 26.1193 24.0656 28.2263C20.8497 30.3333 16.9685 31.0541 13.2536 30.2778C12.1446 30.056 11.0911 29.6679 10.0931 29.2243C7.7089 28.1154 5.65738 26.3411 4.16032 24.0678C2.05335 20.8519 1.33254 16.9706 2.1088 13.2557C2.8296 9.54078 5.04746 6.26943 8.31881 4.16246ZM19.3527 1.00201C10.9248 -0.772284 2.66326 4.66148 0.888969 13.0339C-0.885321 21.4618 4.54845 29.7233 12.9209 31.4976C21.3488 33.2719 29.6103 27.8382 31.3846 19.4657C32.2717 15.3627 31.44 11.2042 29.1667 7.76649C27.5588 5.32684 25.3409 3.38621 22.7904 2.16639C21.7369 1.61192 20.5725 1.22379 19.3527 1.00201Z" fill="white"/>
<path opacity="0.8929" d="M8.15247 3.99612C11.4238 1.83371 15.3605 1.1129 19.1309 1.9446C22.9567 2.72085 26.2281 4.99416 28.3905 8.26551C30.5529 11.5369 31.2737 15.4736 30.442 19.2439C29.6658 23.0697 27.3924 26.3411 24.1211 28.5035C20.8497 30.6659 16.913 31.3867 13.1427 30.555C12.0337 30.3333 10.9248 29.9451 9.92677 29.5016C7.48712 28.3372 5.43559 26.5629 3.93853 24.2896C1.77611 21.0182 1.05531 17.0815 1.88701 13.3111C2.66326 9.42989 4.88112 6.15854 8.15247 3.99612ZM19.3527 1.00201C10.9248 -0.772284 2.66326 4.66148 0.888969 13.0339C-0.885321 21.4618 4.54845 29.7233 12.9209 31.4976C21.3488 33.2719 29.6103 27.8382 31.3846 19.4657C32.2163 15.3627 31.44 11.2042 29.1667 7.76649C27.5588 5.32684 25.3409 3.38621 22.7904 2.16639C21.7369 1.61192 20.5725 1.22379 19.3527 1.00201Z" fill="white"/>
<path opacity="0.9286" d="M8.04153 3.82978C11.3683 1.66737 15.305 0.94656 19.1863 1.72281C23.0676 2.55451 26.3943 4.82782 28.5568 8.15462C30.7192 11.4814 31.44 15.4181 30.6637 19.2994C29.832 23.1806 27.5587 26.5074 24.2319 28.6699C20.9051 30.8323 16.9684 31.5531 13.0872 30.7768C11.9228 30.555 10.8693 30.1669 9.81582 29.6679C7.37617 28.5035 5.2692 26.6738 3.71669 24.345C1.55427 21.0182 0.833472 17.0815 1.60972 13.2003C2.49687 9.31899 4.77018 5.9922 8.04153 3.82978ZM19.3526 1.00201C10.9248 -0.772284 2.66321 4.66148 0.888917 13.0339C-0.885374 21.4618 4.49295 29.7233 12.9208 31.4976C21.3487 33.2719 29.6102 27.8382 31.3845 19.4657C32.2162 15.3627 31.44 11.2042 29.1667 7.76649C27.5587 5.32684 25.3409 3.38621 22.7903 2.16639C21.7368 1.61192 20.5725 1.22379 19.3526 1.00201Z" fill="white"/>
<path opacity="0.9643" d="M7.9307 3.66388C11.3129 1.44601 15.3051 0.725209 19.2418 1.55691C23.1785 2.38861 26.5608 4.66192 28.7232 8.04416C30.941 11.4264 31.6618 15.4186 30.8301 19.3553C29.9984 23.292 27.7251 26.6742 24.3429 28.8366C20.9606 30.999 16.9685 31.7753 13.0318 30.9436C11.8674 30.7218 10.7585 30.3337 9.70499 29.8347C7.20989 28.6703 5.10292 26.8406 3.55042 24.4563C1.33256 21.0741 0.611749 17.082 1.44345 13.1452C2.27515 9.20854 4.60391 5.82629 7.9307 3.66388ZM19.3527 1.00244C10.9248 -0.771849 2.66327 4.60647 0.944428 13.0344C-0.829863 21.4622 4.54846 29.7238 12.9763 31.4426C21.4042 33.2169 29.6658 27.8386 31.3846 19.4107C32.2163 15.3631 31.4401 11.2046 29.1667 7.71148C27.5588 5.27183 25.3409 3.3312 22.7904 2.11137C21.7369 1.6678 20.5725 1.27968 19.3527 1.00244Z" fill="white"/>
<path d="M24.5091 29.0037C21.1269 31.2216 17.0238 31.9978 13.0317 31.1661C11.8673 30.9444 10.7029 30.5562 9.64942 30.0572C7.09888 28.8928 4.93646 27.0076 3.38396 24.6234C1.16609 21.2412 0.389841 17.1382 1.22154 13.146C2.05324 9.15385 4.382 5.77161 7.81968 3.4983C11.2019 1.28043 15.305 0.504182 19.2971 1.33588C23.2893 2.16758 26.6715 4.49634 28.9448 7.93402C31.1627 11.3163 31.9389 15.4193 31.1073 19.4115C30.2201 23.3482 27.8913 26.7859 24.5091 29.0037ZM29.2221 7.71224C27.6141 5.27259 25.3963 3.33196 22.8457 2.11213C21.7368 1.61311 20.6278 1.22499 19.408 0.947755C11.0356 -0.826536 2.7186 4.55178 0.999757 12.9797C-0.774534 21.3521 4.60378 29.6691 13.0317 31.3879C21.4041 33.1622 29.7211 27.7839 31.4399 19.356C32.2716 15.3639 31.4954 11.2054 29.2221 7.71224Z" fill="white"/>
</g>
<path opacity="0.12" d="M16.2476 31.0553C15.1387 31.1108 13.1426 30.6672 11.5346 30.2236C9.76034 29.7246 8.09694 28.8929 6.59988 27.7285C7.65337 28.8374 8.81775 29.78 11.2574 30.5563C13.2535 31.2216 14.806 31.2217 16.2476 31.0553Z" fill="white"/>
<g opacity="0.15">
<path opacity="0.1429" d="M16.8576 3.00104L18.7982 5.88426C19.7962 5.93971 20.8497 6.10605 21.7369 6.49417C21.9587 6.60507 22.2359 6.66051 22.4577 6.77141L23.4003 4.66444L23.6775 3.94363C21.7369 3.11193 19.02 2.61291 16.8576 3.00104Z" fill="white"/>
<path opacity="0.2857" d="M17.3011 3.05769L19.02 5.71913C19.9071 5.77458 20.8497 5.99636 21.6814 6.32904C21.9032 6.43994 22.125 6.49538 22.3468 6.55083L23.2339 4.6102C23.2339 4.55475 23.4557 4.00029 23.4557 3.94484C21.6814 3.27948 19.2972 2.83591 17.3011 3.05769Z" fill="white"/>
<path opacity="0.4286" d="M17.8002 3.16949L19.3527 5.60914C20.1844 5.72003 20.9606 5.88637 21.7369 6.21905C21.9587 6.2745 22.125 6.32995 22.2913 6.38539L23.0676 4.6111C23.0676 4.55566 23.2894 4.05664 23.2339 4.00119C21.6814 3.39128 19.5745 3.00315 17.8002 3.16949Z" fill="white"/>
<path opacity="0.5714" d="M18.2992 3.27686L19.6299 5.49473C20.3507 5.60562 21.0715 5.82741 21.7369 6.10464C21.9032 6.16009 22.125 6.21553 22.2359 6.16009L22.9013 4.55214C22.9567 4.49669 23.0676 4.05312 22.9567 4.05312C21.626 3.5541 19.8517 3.16597 18.2992 3.27686Z" fill="white"/>
<path opacity="0.7143" d="M18.7982 3.38867L19.9626 5.38475C20.5725 5.55109 21.1825 5.77288 21.7924 5.99466C21.9587 6.05011 22.125 6.05011 22.2359 5.99466L22.8458 4.55305C22.9013 4.44216 22.9567 4.10948 22.8458 4.10948C21.626 3.66591 20.129 3.38867 18.7982 3.38867Z" fill="white"/>
<path opacity="0.8571" d="M19.2973 3.5L20.2399 5.27429C20.7389 5.44063 21.2934 5.66242 21.7924 5.82876C21.9587 5.8842 22.0696 5.82876 22.1805 5.77331L22.6795 4.49804C22.735 4.38714 22.735 4.16536 22.6241 4.10991C21.5706 3.77723 20.4062 3.55545 19.2973 3.5Z" fill="white"/>
<path d="M20.5725 5.16264C20.9607 5.38442 21.4042 5.60621 21.7924 5.7171C21.9033 5.77255 22.0142 5.7171 22.0696 5.60621L22.5132 4.49728C22.5686 4.38639 22.5132 4.22005 22.3468 4.1646C21.5151 3.88737 20.628 3.66558 19.7408 3.55469L20.5725 5.16264Z" fill="white"/>
</g>
<g opacity="0.15">
<path opacity="0.0833333" d="M24.1766 4.7741L22.9568 7.26919C22.9013 7.38009 22.9568 7.49098 23.0122 7.54643C23.1231 7.65732 23.234 7.76821 23.3449 7.87911C23.4003 7.93455 23.5112 8.04544 23.6221 8.15634C24.5647 9.04348 25.6737 10.2079 26.1172 11.095C26.2836 11.4831 26.4499 11.8713 26.6162 12.3148C26.9489 13.4238 27.0598 14.5881 27.0044 15.7525C27.0044 16.0298 26.9489 16.307 26.8935 16.5288L29.444 18.9684C29.7213 18.3585 29.943 17.6932 30.0539 16.9723C30.4975 14.5881 30.2203 12.093 29.1113 9.76429C28.0579 7.54643 26.5608 5.88303 24.6756 4.7741C24.6202 4.7741 24.6202 4.71865 24.5647 4.71865C24.3984 4.60776 24.232 4.6632 24.1766 4.7741Z" fill="white"/>
<path opacity="0.1667" d="M24.3429 4.8846L23.1786 7.2688C23.1231 7.32425 23.1231 7.49059 23.234 7.54604C23.3449 7.65693 23.4004 7.76782 23.5113 7.87871C23.5667 7.93416 23.6776 8.04505 23.733 8.15595C24.6202 8.98765 25.6737 10.152 26.1172 10.9837C26.2836 11.3718 26.4499 11.76 26.5608 12.1481C26.8935 13.257 27.0598 14.366 26.9489 15.4194C26.9489 15.6967 26.9489 15.9185 26.8935 16.1403L29.3331 18.3581C29.6104 17.8037 29.7767 17.1383 29.8876 16.5284C30.2757 14.3105 29.9985 11.9263 28.945 9.70845C27.8915 7.49059 26.5054 5.93808 24.6756 4.82915C24.6202 4.82915 24.6202 4.77371 24.5647 4.77371C24.5093 4.71826 24.3984 4.77371 24.3429 4.8846Z" fill="white"/>
<path opacity="0.25" d="M24.4539 4.99566L23.2895 7.32441C23.2341 7.37986 23.2341 7.49076 23.2895 7.5462C23.4004 7.60165 23.4558 7.76799 23.5667 7.87888C23.6222 7.93433 23.6776 8.04522 23.7885 8.15611C24.6757 8.98781 25.6737 10.0413 26.0618 10.873C26.2282 11.2057 26.3945 11.5938 26.5054 11.9819C26.8381 13.0354 27.0044 14.0889 26.949 15.1424C26.949 15.4196 26.949 15.6414 26.949 15.8632L29.3332 17.8038C29.6104 17.2494 29.7768 16.6949 29.8877 16.085C30.2203 13.978 29.9431 11.7601 28.9451 9.70862C27.8916 7.5462 26.5609 6.04914 24.7866 4.94021C24.7311 4.94021 24.7311 4.88477 24.6757 4.88477C24.6202 4.88477 24.5093 4.88476 24.4539 4.99566Z" fill="white"/>
<path opacity="0.3333" d="M24.5646 5.1639L23.4557 7.38176C23.4003 7.4372 23.4003 7.5481 23.4557 7.60355C23.5112 7.65899 23.5666 7.82533 23.6775 7.93622C23.7329 7.99167 23.7884 8.10256 23.8993 8.15801C24.7864 8.98971 25.6736 9.98775 26.1171 10.8194C26.2835 11.1521 26.4498 11.5403 26.5607 11.8729C26.8934 12.871 27.0597 13.869 27.0043 14.9225C27.0043 15.1443 27.0043 15.4215 27.0597 15.5879L29.3885 17.2513C29.6657 16.7522 29.8321 16.1978 29.943 15.6433C30.2202 13.7027 29.8875 11.6511 29.0004 9.71052C28.0023 7.5481 26.7271 6.16193 25.0082 5.10845C25.0082 5.10845 24.9528 5.053 24.8973 5.053C24.7864 4.99756 24.6201 5.053 24.5646 5.1639Z" fill="white"/>
<path opacity="0.4167" d="M24.731 5.273L23.6775 7.37997C23.6775 7.43542 23.6221 7.54631 23.6775 7.60176C23.733 7.65721 23.7884 7.82354 23.8439 7.93444C23.8993 7.98988 23.9548 8.10078 24.0102 8.15622C24.8419 8.93248 25.7291 9.87507 26.1172 10.7068C26.2835 11.0394 26.4499 11.3721 26.5608 11.7048C26.8934 12.6474 27.0598 13.6454 27.0598 14.588C27.0598 14.8098 27.1152 15.0316 27.1707 15.1979L29.3885 16.6396C29.6658 16.196 29.8321 15.697 29.8876 15.1979C30.1093 13.3682 29.7767 11.483 28.945 9.70873C27.9469 7.60176 26.7825 6.27104 25.1192 5.21756L25.0637 5.16211C24.8974 5.16211 24.7865 5.16211 24.731 5.273Z" fill="white"/>
<path opacity="0.5" d="M24.8419 5.43929L23.7884 7.49081C23.7884 7.54626 23.7329 7.65715 23.7884 7.7126C23.8438 7.76804 23.8438 7.93438 23.8993 8.04528C23.8993 8.10072 23.9547 8.21162 24.0656 8.26706C24.8973 9.04331 25.6736 9.93046 26.0617 10.7067C26.228 11.0394 26.3389 11.3166 26.5053 11.6493C26.8379 12.5919 27.0043 13.479 27.0597 14.4216C27.0597 14.6434 27.1152 14.8652 27.1706 14.9761L29.333 16.1405C29.6103 15.7524 29.7766 15.3088 29.8321 14.8098C29.9984 13.1464 29.6657 11.4275 28.8895 9.76412C27.8914 7.7126 26.8379 6.43732 25.23 5.38384L25.1745 5.32839C25.0082 5.27295 24.8973 5.32839 24.8419 5.43929Z" fill="white"/>
<path opacity="0.5833" d="M24.9528 5.55085L23.9548 7.49148C23.9548 7.54693 23.8993 7.65782 23.8993 7.71327C23.9548 7.76872 23.8993 7.9905 23.9548 8.04595C23.9548 8.10139 24.0102 8.21229 24.0657 8.26773C24.8419 9.04399 25.6182 9.82024 26.0063 10.5965C26.1726 10.8737 26.2835 11.2064 26.3944 11.5391C26.7271 12.4262 26.8934 13.2579 26.9489 14.2005C26.9489 14.4223 27.0598 14.5886 27.1152 14.6995L29.1667 15.5867C29.444 15.254 29.6103 14.8104 29.6103 14.3669C29.7212 12.8144 29.3885 11.2619 28.6677 9.76479C27.6697 7.71327 26.6717 6.54889 25.1192 5.55085L25.0637 5.49541C25.1191 5.43996 25.0083 5.43996 24.9528 5.55085Z" fill="white"/>
<path opacity="0.6667" d="M25.1192 5.71858L24.1766 7.60377C24.1766 7.65921 24.1212 7.77011 24.1212 7.82555C24.1766 7.881 24.1212 8.10279 24.1766 8.10279C24.1766 8.15823 24.2321 8.26913 24.2875 8.32457C25.0638 9.04538 25.7291 9.82163 26.1173 10.5424C26.2836 10.8197 26.3945 11.0969 26.5054 11.4296C26.8381 12.2613 27.0044 13.093 27.1153 13.9247C27.1153 14.1465 27.2262 14.3128 27.3371 14.3683L29.3332 14.9782C29.6104 14.7009 29.7767 14.3128 29.7767 13.9247C29.8322 12.5385 29.4995 11.0969 28.8341 9.76618C27.8916 7.77011 26.949 6.66117 25.4519 5.66314L25.3965 5.60769C25.2856 5.55224 25.1747 5.60769 25.1192 5.71858Z" fill="white"/>
<path opacity="0.75" d="M25.2301 5.82845L24.2875 7.60274L24.2321 7.76908C24.2875 7.76908 24.1766 8.04631 24.2321 8.04631C24.2321 8.10176 24.2321 8.21265 24.343 8.2681C25.1192 8.9889 25.7291 9.65426 26.1173 10.3751C26.2836 10.6523 26.3945 10.9295 26.5054 11.2068C26.8381 11.983 27.0044 12.7593 27.1153 13.591C27.1153 13.8128 27.2816 13.9236 27.3925 13.9791L29.2777 14.3672C29.5549 14.1454 29.7213 13.8128 29.6658 13.4246C29.6658 12.1494 29.2777 10.9295 28.7232 9.70971C27.7807 7.71363 26.949 6.71559 25.5073 5.71756L25.4519 5.66211C25.3965 5.71756 25.2856 5.71756 25.2301 5.82845Z" fill="white"/>
<path opacity="0.8333" d="M25.3409 5.93858L24.4538 7.60198L24.3983 7.76832L24.3429 8.04555C24.3429 8.101 24.3429 8.21189 24.3983 8.26734C25.1191 8.98815 25.6736 9.59806 26.0617 10.2634C26.1726 10.4852 26.3389 10.7624 26.4498 11.0397C26.7825 11.8159 27.0043 12.5367 27.1152 13.2575C27.1706 13.4239 27.2815 13.5902 27.4479 13.5902L29.2776 13.7011C29.5548 13.5348 29.7212 13.2021 29.6657 12.8694C29.5548 11.7605 29.2222 10.6515 28.7231 9.59806C27.7806 7.65743 27.0597 6.71484 25.6736 5.77224C25.6736 5.77224 25.6181 5.77224 25.6181 5.7168C25.5072 5.82769 25.3963 5.88314 25.3409 5.93858Z" fill="white"/>
<path opacity="0.9167" d="M25.5073 6.10503L24.6756 7.71299L24.6201 7.87932L24.5092 8.15656C24.4538 8.212 24.5092 8.3229 24.5647 8.37834C25.2855 9.0437 25.7291 9.59817 26.1172 10.319C26.2281 10.5408 26.339 10.818 26.5053 11.0398C26.838 11.7606 27.0598 12.4259 27.1707 13.1468C27.2261 13.3131 27.3925 13.424 27.5033 13.424L29.2776 13.2576C29.4994 13.1468 29.6658 12.8695 29.6658 12.5923C29.4994 11.5942 29.1667 10.6517 28.7232 9.76451C27.7806 7.82388 27.1152 6.99218 25.7845 6.04959C25.7845 6.04959 25.7291 6.04959 25.7291 5.99414C25.6182 5.99414 25.5627 5.99414 25.5073 6.10503Z" fill="white"/>
<path d="M28.6678 9.76545C27.7806 7.88027 27.1707 7.10401 25.8955 6.16142C25.7846 6.10597 25.6737 6.10597 25.6182 6.21687L24.5647 8.1575C24.5093 8.21294 24.5647 8.32384 24.6202 8.37928C25.5628 9.26643 25.9509 9.8209 26.4499 10.8744C26.7826 11.5397 27.0044 12.1497 27.1707 12.8705C27.2262 13.0368 27.3925 13.1477 27.5589 13.0922L29.2223 12.7041C29.444 12.6487 29.6104 12.3714 29.5549 12.1497C29.3886 11.318 29.0559 10.5417 28.6678 9.76545Z" fill="white"/>
</g>
<path opacity="0.3" d="M10.4257 2.44381C11.7564 2.00024 14.5288 1.55666 16.6357 1.55666C18.9645 1.61211 20.9606 1.88934 23.2893 3.05372C21.9586 2.00024 19.9071 1.16854 16.5803 1.0022C14.0297 0.891305 12.0891 1.723 10.4257 2.44381Z" fill="white"/>
<g opacity="0.3">
<path opacity="0.020833" d="M15.3605 0.0047379C17.7447 0.0601845 20.018 0.614651 22.0141 1.55724C22.7904 1.94537 23.123 3.38698 22.2359 3.44243C21.9032 3.44243 21.626 3.49787 21.2933 3.49787C18.9091 3.66421 16.8021 4.05234 14.9169 4.66225C14.1961 4.88404 13.4753 5.16127 12.81 5.4385C11.5347 5.99297 10.3703 6.71378 9.31684 7.54548C8.54059 8.15539 7.87522 8.7653 7.20986 9.48611C6.48906 10.2624 5.8237 11.1495 5.26923 12.0921C4.71477 12.9792 4.21575 13.9773 3.71673 15.0308C3.27316 16.0842 2.82959 17.2486 2.44146 18.4685C2.21967 19.2447 0.722616 18.7457 0.445383 18.0249C0.279043 17.6368 0.168146 17.2486 0.1127 16.8605C0.00180657 16.0288 0.0572532 15.1971 0.1127 14.2545C0.1127 14.0327 0.16815 13.8664 0.16815 13.6446C0.334489 11.3713 1.11074 9.15343 2.33056 7.21279C3.05137 6.04842 3.93852 4.93948 4.992 3.99689C5.8237 3.22064 6.71085 2.55528 7.65344 2.00082C9.8713 0.725544 12.5327 -0.0507087 15.3605 0.0047379Z" fill="white"/>
<path opacity="0.041667" d="M15.2496 0.0594275C17.6338 0.114874 19.9071 0.613894 21.9032 1.55649C22.6794 1.94461 23.0121 3.33078 22.125 3.38622C21.7923 3.38622 21.5151 3.44167 21.1824 3.44167C18.8536 3.60801 16.7467 3.99613 14.8615 4.60605C14.1407 4.82783 13.4753 5.10507 12.81 5.3823C11.5347 5.93677 10.3703 6.65757 9.31682 7.43382C8.54057 8.04374 7.87521 8.65365 7.20985 9.37445C6.48904 10.1507 5.82368 11.0379 5.26922 11.9804C4.71475 12.8676 4.21573 13.8656 3.71671 14.9191C3.27314 15.9726 2.82957 17.0815 2.44144 18.3014C2.21965 19.0776 0.778042 18.5786 0.500809 17.8578C0.33447 17.4697 0.223577 17.0815 0.168131 16.7488C0.0572376 15.9726 0.0572376 15.1409 0.168131 14.1983C0.168131 14.032 0.223577 13.8102 0.223577 13.5884C0.389916 11.3151 1.16617 9.15267 2.33054 7.21204C3.05135 6.04766 3.9385 4.93873 4.99198 3.99614C5.82368 3.27533 6.71083 2.60997 7.65342 2.00006C9.87128 0.780233 12.4773 0.00398092 15.2496 0.0594275Z" fill="white"/>
<path opacity="0.0625" d="M15.1387 0.118017C17.5229 0.118017 19.7408 0.672483 21.7369 1.55963C22.5131 1.94775 22.8458 3.33392 21.9587 3.38937C21.626 3.38937 21.3488 3.44481 21.0161 3.44481C18.6873 3.61115 16.5803 3.99928 14.7506 4.55374C14.0298 4.77553 13.3644 5.05276 12.6991 5.33C11.4238 5.88446 10.2594 6.54982 9.2614 7.38152C8.48515 7.93598 7.81979 8.60134 7.15443 9.32215C6.43362 10.0984 5.82371 10.9301 5.2138 11.8727C4.65933 12.7598 4.16031 13.7024 3.66129 14.7559C3.21772 15.8094 2.77415 16.9183 2.38602 18.1382C2.16424 18.9144 0.722626 18.4708 0.445393 17.75C0.279053 17.3619 0.223603 17.0292 0.11271 16.6965C0.00181671 15.9203 0.00181756 15.144 0.0572642 14.2014C0.0572642 14.0351 0.11271 13.8133 0.11271 13.5915C0.27905 11.3182 1.0553 9.21126 2.21968 7.27063C2.94049 6.10625 3.82763 5.05276 4.82567 4.11017C5.60192 3.38937 6.48907 2.72401 7.43166 2.16954C9.81587 0.838823 12.3664 0.0625705 15.1387 0.118017Z" fill="white"/>
<path opacity="0.083333" d="M15.0278 0.117188C17.3566 0.117188 19.6299 0.616207 21.626 1.50335C22.4022 1.83603 22.7349 3.2222 21.8478 3.27764C21.5705 3.27764 21.2379 3.33309 20.9606 3.33309C18.6319 3.49943 16.5803 3.88756 14.7506 4.44202C14.0298 4.66381 13.3644 4.94104 12.6991 5.21827C11.4238 5.77274 10.3149 6.4381 9.26139 7.21435C8.54058 7.76882 7.81978 8.43418 7.20987 9.09953C6.48906 9.87579 5.87915 10.7075 5.26924 11.6501C4.71477 12.5372 4.21575 13.4798 3.77218 14.5333C3.32861 15.5868 2.88503 16.6957 2.55235 17.8601C2.33057 18.6363 0.944401 18.1928 0.667168 17.5274C0.500829 17.1947 0.445383 16.8066 0.33449 16.4739C0.223596 15.7531 0.168151 14.9769 0.279044 14.0343C0.279044 13.8679 0.33449 13.6462 0.33449 13.4798C0.500829 11.262 1.27708 9.09953 2.44146 7.21435C3.16227 6.04997 4.04941 4.99649 5.04745 4.0539C5.8237 3.33309 6.71085 2.66773 7.65344 2.11326C9.76041 0.89344 12.311 0.117188 15.0278 0.117188Z" fill="white"/>
<path opacity="0.1042" d="M14.9724 0.171875C17.3011 0.171875 19.519 0.670894 21.5151 1.50259C22.2913 1.83527 22.624 3.22144 21.7368 3.27688C21.4596 3.27688 21.1269 3.33233 20.8497 3.33233C18.5764 3.49867 16.5249 3.8868 14.6951 4.44126C13.9743 4.66305 13.309 4.88483 12.699 5.21751C11.4792 5.77198 10.3148 6.43734 9.31681 7.21359C8.596 7.76806 7.87519 8.43342 7.26528 9.09877C6.54448 9.87503 5.93456 10.7067 5.32465 11.5939C4.77018 12.481 4.27117 13.4236 3.82759 14.4216C3.38402 15.4197 2.94045 16.5286 2.60777 17.693C2.38598 18.4138 0.999819 18.0257 0.722586 17.4158C0.556247 17.0831 0.500797 16.7504 0.389903 16.4177C0.223564 15.6969 0.223565 14.9761 0.334458 14.0335C0.334458 13.8672 0.389903 13.6454 0.389903 13.4791C0.61169 11.2612 1.3325 9.15422 2.49688 7.26904C3.21768 6.10466 4.04938 5.10662 5.04742 4.16403C5.82367 3.44322 6.71081 2.77786 7.59796 2.2234C9.70493 0.948127 12.2555 0.171875 14.9724 0.171875Z" fill="white"/>
<path opacity="0.125" d="M14.8614 0.226562C17.1902 0.226562 19.4081 0.670135 21.4041 1.50183C22.1804 1.83451 22.5131 3.16523 21.6259 3.22068C21.3487 3.22068 21.016 3.27612 20.7388 3.27612C18.4655 3.44246 16.4139 3.83059 14.6397 4.38506C13.9188 4.60684 13.2535 4.82863 12.6436 5.10586C11.4238 5.66033 10.2594 6.32569 9.26133 7.10194C8.54052 7.6564 7.81972 8.26632 7.20981 8.98712C6.489 9.76337 5.87909 10.5951 5.32462 11.4822C4.77016 12.3694 4.27114 13.2565 3.82757 14.31C3.38399 15.308 2.94042 16.417 2.60774 17.5813C2.38595 18.3021 1.05524 17.914 0.778004 17.3041C0.611665 16.9714 0.556219 16.6388 0.445326 16.3615C0.278986 15.6962 0.278983 14.9754 0.33443 14.0328C0.33443 13.8664 0.389876 13.6446 0.389876 13.4783C0.611662 11.3159 1.33247 9.20891 2.49685 7.32372C3.21765 6.21479 4.04935 5.16131 5.04739 4.21872C5.82364 3.49791 6.65534 2.83255 7.59793 2.27809C9.64946 1.00281 12.1446 0.226562 14.8614 0.226562Z" fill="white"/>
<path opacity="0.1458" d="M14.7505 0.283491C17.0793 0.228044 19.2417 0.727064 21.2932 1.50332C22.0695 1.836 22.3467 3.16671 21.515 3.22216C21.2378 3.22216 20.9051 3.27761 20.6278 3.27761C18.3545 3.44395 16.3585 3.83207 14.5842 4.38654C13.9188 4.60833 13.2534 4.83011 12.5881 5.10734C11.3683 5.66181 10.2593 6.27172 9.2613 7.04798C8.54049 7.60244 7.87513 8.21235 7.20977 8.87771C6.54441 9.59852 5.87905 10.4302 5.32459 11.3174C4.77012 12.1491 4.2711 13.0917 3.82753 14.0897C3.38396 15.0877 2.94038 16.1412 2.6077 17.3056C2.38592 18.0264 1.0552 17.6937 0.77797 17.0838C0.61163 16.7511 0.556184 16.4739 0.445291 16.1412C0.278951 15.5313 0.223502 14.8105 0.334395 13.8679C0.334395 13.7016 0.389841 13.4798 0.389841 13.3134C0.611627 11.151 1.33244 9.0995 2.44137 7.21431C3.16217 6.10538 3.99387 5.0519 4.93646 4.16475C5.71272 3.44395 6.54441 2.83403 7.43156 2.27957C9.59398 1.05974 12.0891 0.283491 14.7505 0.283491Z" fill="white"/>
<path opacity="0.1667" d="M14.6397 0.338624C16.913 0.283178 19.1309 0.726751 21.1269 1.55845C21.9586 1.89113 22.1804 3.1664 21.3487 3.22185C21.0715 3.22185 20.7943 3.27729 20.4616 3.27729C18.2437 3.44363 16.2476 3.83176 14.4733 4.38623C13.808 4.60801 13.1426 4.8298 12.5327 5.10703C11.3129 5.6615 10.204 6.27141 9.20591 7.04766C8.48511 7.60213 7.81975 8.21204 7.20984 8.8774C6.54448 9.5982 5.87912 10.4299 5.32465 11.317C4.77019 12.1487 4.27117 13.0913 3.8276 14.0339C3.38403 15.032 2.94045 16.0855 2.60777 17.2498C2.38598 17.9706 1.11071 17.638 0.833481 17.0835C0.667141 16.8063 0.611696 16.4736 0.500803 16.1963C0.334463 15.5864 0.279014 14.8656 0.389907 13.9785C0.389907 13.8121 0.445357 13.5904 0.445357 13.424C0.667143 11.2616 1.38795 9.21008 2.49688 7.38034C3.16224 6.27141 3.99394 5.27337 4.99198 4.33078C5.76823 3.60997 6.59993 3.00006 7.48707 2.4456C9.5386 1.11488 12.0337 0.338624 14.6397 0.338624Z" fill="white"/>
<path opacity="0.1875" d="M14.5288 0.339182C16.8021 0.283736 18.9645 0.671862 21.016 1.50356C21.8477 1.83624 22.0695 3.11151 21.2378 3.16696C20.9606 3.16696 20.6833 3.22241 20.3507 3.22241C18.1328 3.38875 16.1367 3.77687 14.4179 4.33134C13.7525 4.55312 13.0872 4.77491 12.4773 5.05214C11.2574 5.55116 10.2039 6.21652 9.20591 6.93733C8.4851 7.49179 7.81974 8.10171 7.20983 8.71162C6.54447 9.43242 5.87911 10.2641 5.32465 11.0958C4.77018 11.9275 4.27116 12.8147 3.82759 13.8127C3.38402 14.8107 2.99589 15.8642 2.60776 16.9732C2.38597 17.694 1.1107 17.3613 0.833472 16.8068C0.667132 16.5296 0.611686 16.2524 0.500793 15.9751C0.334454 15.4207 0.279005 14.6998 0.334452 13.8127C0.334452 13.6464 0.389898 13.4246 0.389898 13.2582C0.611684 11.1513 1.33249 9.09974 2.44142 7.27001C3.10678 6.16108 3.93848 5.16304 4.88107 4.27589C5.65733 3.55508 6.43358 2.94517 7.32072 2.39071C9.53858 1.17088 11.9228 0.450076 14.5288 0.339182Z" fill="white"/>
<path opacity="0.2083" d="M14.4733 0.393884C16.7466 0.338437 18.909 0.726563 20.9051 1.50282C21.7368 1.83549 21.9586 3.05532 21.1269 3.11077C20.8496 3.11077 20.5724 3.16621 20.2952 3.16621C18.0773 3.33255 16.1367 3.72068 14.4178 4.2197C13.7525 4.44148 13.0871 4.66327 12.4772 4.9405C11.2574 5.43952 10.2039 6.10488 9.20586 6.82569C8.48505 7.38015 7.8197 7.93462 7.20978 8.59998C6.54443 9.32078 5.93451 10.097 5.3246 10.9842C4.77013 11.8159 4.27112 12.703 3.82754 13.6456C3.38397 14.6437 2.99584 15.6417 2.60772 16.7506C2.38593 17.4714 1.16611 17.1388 0.888873 16.6397C0.722533 16.3625 0.667087 16.0853 0.556194 15.808C0.389854 15.2536 0.278959 14.5882 0.389852 13.7011C0.389852 13.5347 0.445302 13.3129 0.445302 13.1466C0.667089 11.0396 1.38789 9.04355 2.49682 7.21381C3.16218 6.10488 3.99388 5.10684 4.93648 4.2197C5.65728 3.49889 6.48898 2.88898 7.37613 2.33451C9.4831 1.22558 11.8673 0.504777 14.4733 0.393884Z" fill="white"/>
<path opacity="0.2292" d="M14.3624 0.44928C16.5803 0.393833 18.7427 0.726513 20.7942 1.50277C21.6259 1.78 21.8477 3.05527 21.016 3.11072C20.7388 3.11072 20.4615 3.16616 20.1843 3.16616C18.0219 3.3325 16.0812 3.66518 14.3624 4.21965C13.697 4.44143 13.0871 4.66322 12.4772 4.94045C11.3128 5.43947 10.2039 6.04938 9.26132 6.82564C8.54051 7.3801 7.87515 7.93457 7.26524 8.59993C6.59988 9.32073 5.98997 10.097 5.43551 10.9287C4.88104 11.7604 4.43746 12.6475 3.99389 13.5901C3.55032 14.5327 3.16219 15.5862 2.77407 16.6951C2.55228 17.4159 1.33246 17.1387 1.05522 16.6397C0.888884 16.3624 0.833438 16.1407 0.722545 15.8634C0.556205 15.3644 0.445311 14.6991 0.556204 13.8119C0.556204 13.6456 0.611649 13.4792 0.611649 13.2574C0.833436 11.1505 1.55424 9.15439 2.66318 7.3801C3.32853 6.32662 4.16023 5.32858 5.04738 4.44143C5.76818 3.72063 6.59988 3.11072 7.48703 2.6117C9.42766 1.28098 11.8119 0.560173 14.3624 0.44928Z" fill="white"/>
<path opacity="0.25" d="M14.2515 0.505045C16.4694 0.394152 18.6318 0.782278 20.6279 1.50308C21.4596 1.78032 21.6814 3.00014 20.8497 3.11103C20.5724 3.16648 20.2952 3.16648 20.018 3.16648C17.8555 3.33282 15.9704 3.6655 14.2515 4.21997C13.5862 4.44175 12.9762 4.66354 12.3663 4.94077C11.202 5.43979 10.1485 6.0497 9.15043 6.77051C8.42962 7.26953 7.81971 7.87944 7.20979 8.48935C6.54444 9.21016 5.93452 9.98641 5.38006 10.8181C4.82559 11.6498 4.38202 12.4815 3.93845 13.4241C3.49487 14.3667 3.10675 15.4202 2.71862 16.4737C2.49684 17.1945 1.33246 16.9172 1.05522 16.4182C0.888884 16.141 0.833438 15.9192 0.722545 15.6974C0.556205 15.2538 0.445311 14.5885 0.556204 13.7013C0.556204 13.535 0.61165 13.3687 0.61165 13.1469C0.833436 11.0953 1.55424 9.09927 2.60773 7.38042C3.27309 6.32694 4.04934 5.3289 4.99193 4.44175C5.71274 3.77639 6.54444 3.11103 7.37614 2.61202C9.37221 1.33674 11.701 0.615938 14.2515 0.505045Z" fill="white"/>
<path opacity="0.2708" d="M14.1406 0.559965C16.3585 0.449071 18.4655 0.781751 20.517 1.50256C21.3487 1.77979 21.5705 2.94417 20.7388 3.05506C20.4616 3.11051 20.1843 3.11051 19.9071 3.11051C17.8001 3.27685 15.8595 3.60953 14.1961 4.16399C13.5307 4.38578 12.9208 4.60757 12.3109 4.82935C11.1465 5.32837 10.093 5.93828 9.15045 6.65909C8.42964 7.15811 7.81973 7.76802 7.20982 8.37793C6.54446 9.09874 5.93454 9.81954 5.38008 10.6512C4.82561 11.4275 4.38204 12.3146 3.93847 13.2572C3.49489 14.1998 3.10677 15.1979 2.71864 16.3068C2.49686 16.9722 1.33248 16.7504 1.05525 16.3068C0.888906 16.085 0.833461 15.8632 0.722567 15.6414C0.556228 15.1979 0.389887 14.588 0.50078 13.7008C0.50078 13.5345 0.556226 13.3681 0.556226 13.1463C0.778012 11.0948 1.49882 9.15419 2.5523 7.43534C3.21766 6.38186 3.99392 5.38382 4.93651 4.55212C5.65731 3.88676 6.43356 3.27685 7.32071 2.72238C9.31678 1.39166 11.6455 0.670858 14.1406 0.559965Z" fill="white"/>
<path opacity="0.2917" d="M14.0297 0.614764C16.1921 0.503871 18.3545 0.836551 20.3506 1.50191C21.1823 1.77914 21.4041 2.94352 20.6278 3.05441C20.3506 3.10986 20.0734 3.10986 19.7961 3.10986C17.6892 3.2762 15.804 3.60888 14.1406 4.16335C13.4752 4.38513 12.8653 4.60692 12.3109 4.82871C11.1465 5.32772 10.093 5.93764 9.1504 6.603C8.48504 7.10202 7.81968 7.65648 7.20976 8.32184C6.54441 8.9872 5.93449 9.76345 5.38003 10.5952C4.82556 11.3714 4.38199 12.2585 3.93842 13.1457C3.49484 14.0883 3.10672 15.0863 2.71859 16.1398C2.49681 16.8052 1.38787 16.5834 1.11064 16.1953C0.944301 15.9735 0.888854 15.7517 0.833407 15.5299C0.667068 15.1418 0.500727 14.5319 0.61162 13.6447C0.61162 13.4784 0.667066 13.312 0.667066 13.0902C0.888852 11.0942 1.60966 9.15354 2.66315 7.4347C3.32851 6.38121 4.10476 5.43862 4.9919 4.55147C5.71271 3.88611 6.48896 3.2762 7.32066 2.72174C9.26129 1.50191 11.59 0.725657 14.0297 0.614764Z" fill="white"/>
<path opacity="0.3125" d="M13.9744 0.61556C16.1368 0.504667 18.2438 0.781899 20.2953 1.44726C21.127 1.72449 21.3488 2.83342 20.5726 2.94432C20.2953 2.99976 20.0181 2.99976 19.7409 2.99976C17.6339 3.1661 15.8041 3.49878 14.1408 4.05325C13.4754 4.27503 12.8655 4.49682 12.311 4.71861C11.1466 5.21763 10.1486 5.77209 9.206 6.4929C8.54064 6.99192 7.87528 7.54638 7.32082 8.1563C6.65546 8.82166 6.04555 9.59791 5.54653 10.3742C5.04751 11.1504 4.54849 11.9821 4.10492 12.9247C3.66135 13.8673 3.27322 14.8099 2.88509 15.8634C2.66331 16.5287 1.55438 16.3624 1.27714 15.9743C1.1108 15.7525 1.05536 15.5307 0.999911 15.3644C0.833571 14.9762 0.667231 14.4218 0.778124 13.5346C0.778124 13.3683 0.83357 13.2019 0.83357 13.0356C1.05536 11.0395 1.77616 9.09889 2.82965 7.43549C3.49501 6.38201 4.27126 5.43941 5.15841 4.60771C5.87921 3.94236 6.65546 3.33244 7.48716 2.83342C9.206 1.55815 11.4793 0.781899 13.9744 0.61556Z" fill="white"/>
<path opacity="0.3333" d="M13.8634 0.672155C16.0258 0.505815 18.1328 0.783048 20.1288 1.44841C20.9605 1.72564 21.1823 2.83457 20.4061 2.94547C20.1288 3.00091 19.8516 3.00091 19.5744 3.00091C17.5229 3.16725 15.6377 3.49993 14.0297 3.99895C13.4198 4.22074 12.8099 4.44252 12.2 4.66431C11.091 5.16333 10.0376 5.71779 9.09497 6.38315C8.42961 6.88217 7.76425 7.43664 7.20979 8.04655C6.54443 8.71191 5.98996 9.43272 5.4355 10.2644C4.93648 11.0407 4.43745 11.8724 3.99388 12.7595C3.55031 13.6467 3.16218 14.6447 2.77406 15.6982C2.55227 16.3635 1.44334 16.1972 1.22155 15.8091C1.05521 15.5873 0.999766 15.4209 0.944319 15.2546C0.777979 14.9219 0.556193 14.3675 0.667086 13.4803C0.667086 13.314 0.722536 13.1476 0.722536 12.9813C0.944323 10.9852 1.66513 9.10004 2.71861 7.43664C3.32853 6.38315 4.10478 5.44056 4.99192 4.60886C5.71273 3.9435 6.43353 3.33359 7.26523 2.83457C9.20586 1.61475 11.4237 0.838495 13.8634 0.672155Z" fill="white"/>
<path opacity="0.3542" d="M13.7525 0.727229C15.915 0.560889 18.0219 0.838121 20.018 1.44803C20.8497 1.66982 21.0715 2.77875 20.2952 2.88965C20.018 2.94509 19.7962 2.94509 19.519 2.94509C17.4675 3.11143 15.6377 3.44411 14.0298 3.94313C13.4199 4.10947 12.81 4.33126 12.2 4.60849C11.0911 5.10751 10.0376 5.66197 9.15048 6.32733C8.48512 6.82635 7.87521 7.38082 7.26529 7.93528C6.59993 8.60064 6.04547 9.32145 5.491 10.0977C4.99198 10.874 4.49297 11.7057 4.04939 12.5928C3.60582 13.4799 3.21769 14.478 2.82957 15.476C2.60778 16.1414 1.5543 15.975 1.27706 15.6424C1.11072 15.476 1.05528 15.2542 0.999831 15.0879C0.833491 14.7552 0.611705 14.2562 0.722598 13.3691C0.722598 13.2027 0.778043 13.0364 0.778043 12.87C0.99983 10.9294 1.72064 9.04422 2.71867 7.38082C3.32859 6.38278 4.10484 5.44019 4.99198 4.55304C5.65734 3.88768 6.43359 3.27777 7.26529 2.77875C9.15048 1.66982 11.3683 0.893568 13.7525 0.727229Z" fill="white"/>
<path opacity="0.375" d="M13.6417 0.781982C15.7487 0.615642 17.8556 0.837428 19.8517 1.44734C20.6834 1.66913 20.9052 2.77806 20.1289 2.88895C19.8517 2.9444 19.6299 2.9444 19.3527 2.99985C17.3012 3.16619 15.5269 3.49886 13.9189 3.99788C13.309 4.16422 12.6991 4.38601 12.1446 4.66324C11.0357 5.16226 10.0377 5.71673 9.09507 6.38209C8.42971 6.77021 7.76435 7.32468 7.20988 7.87915C6.54452 8.5445 5.99006 9.26531 5.43559 10.0416C4.93657 10.8178 4.43755 11.5941 3.99398 12.4812C3.55041 13.3684 3.16228 14.3109 2.8296 15.3644C2.60781 16.0298 1.55433 15.8635 1.33254 15.5862C1.22165 15.4199 1.11076 15.2535 1.05531 15.0872C0.888972 14.81 0.667186 14.3109 0.778079 13.4238C0.778079 13.2575 0.833524 13.0911 0.833524 12.9248C1.05531 10.9842 1.77612 9.15442 2.77416 7.49102C3.38407 6.49298 4.16032 5.55039 4.99202 4.71869C5.65738 4.05333 6.43363 3.44342 7.20988 2.9444C9.09507 1.72457 11.2575 0.948322 13.6417 0.781982Z" fill="white"/>
<path opacity="0.3958" d="M13.5307 0.837228C15.6377 0.670888 17.7447 0.892675 19.7407 1.44714C20.5724 1.66893 20.7942 2.72241 20.018 2.83331C19.7962 2.88875 19.5189 2.88875 19.2417 2.9442C17.2456 3.11054 15.4159 3.44322 13.8634 3.94224C13.2535 4.10858 12.6436 4.33036 12.0891 4.6076C10.9802 5.05117 9.98214 5.60563 9.09499 6.27099C8.42963 6.77001 7.81972 7.26903 7.26525 7.87895C6.65534 8.5443 6.04543 9.20966 5.49096 9.98591C4.99194 10.7067 4.49292 11.5384 4.1048 12.4256C3.66123 13.3127 3.2731 14.2553 2.94042 15.2533C2.71863 15.9187 1.72059 15.7524 1.44336 15.4751C1.33247 15.3088 1.22157 15.1424 1.16613 15.0316C0.999788 14.7543 0.722556 14.3107 0.833449 13.4236C0.833449 13.2573 0.888895 13.0909 0.888895 12.9246C1.16613 10.984 1.83149 9.15422 2.82953 7.54627C3.43944 6.54823 4.21569 5.60563 5.04739 4.77394C5.71275 4.10858 6.43355 3.55411 7.26525 2.99965C9.03954 1.77982 11.202 1.00357 13.5307 0.837228Z" fill="white"/>
<path opacity="0.4167" d="M13.4754 0.836928C15.5823 0.670588 17.6339 0.836928 19.6854 1.39139C20.5171 1.61318 20.7389 2.66667 19.9626 2.77756C19.7408 2.833 19.4636 2.83301 19.1864 2.88845C17.1903 3.05479 15.416 3.38747 13.8635 3.88649C13.2536 4.05283 12.6437 4.27462 12.0892 4.4964C10.9803 4.93998 9.98224 5.49444 9.09509 6.1598C8.42973 6.65882 7.81982 7.15784 7.26535 7.71231C6.65544 8.37767 6.04553 9.04302 5.54651 9.81928C5.04749 10.5401 4.54847 11.3718 4.16034 12.2035C3.71677 13.0906 3.32865 14.0332 2.99597 14.9758C2.77418 15.6412 1.77614 15.5303 1.55436 15.253C1.44346 15.0867 1.33257 14.9758 1.27712 14.8095C1.11078 14.5877 0.833548 14.0887 0.944441 13.257C0.944441 13.0906 0.999891 12.9243 0.999891 12.7579C1.27712 10.8728 1.94248 9.04302 2.94052 7.43507C3.55043 6.43703 4.27124 5.54989 5.10293 4.71819C5.76829 4.05283 6.4891 3.49836 7.26535 2.99935C8.9842 1.83497 11.1466 1.05871 13.4754 0.836928Z" fill="white"/>
<path opacity="0.4375" d="M13.3644 0.892612C15.416 0.670825 17.5229 0.892611 19.519 1.39163C20.3507 1.61342 20.5725 2.61146 19.7963 2.72235C19.5745 2.7778 19.2972 2.7778 19.02 2.83324C17.0794 2.99958 15.3051 3.33226 13.7526 3.83128C13.1427 3.99762 12.5882 4.21941 12.0337 4.44119C10.9248 4.88477 9.98221 5.43923 9.09506 6.04915C8.4297 6.49272 7.81979 7.04718 7.26533 7.60165C6.65541 8.21156 6.0455 8.93237 5.54648 9.65317C5.04746 10.374 4.60389 11.1502 4.16032 12.0374C3.71674 12.9245 3.32862 13.8117 2.99594 14.8097C2.77415 15.4196 1.83156 15.3642 1.55433 15.1424C1.44344 15.0315 1.33254 14.8652 1.2771 14.7543C1.05531 14.5879 0.83352 14.0889 0.944413 13.2572C0.944413 13.0909 0.999863 12.9245 0.999863 12.7582C1.2771 10.873 1.94245 9.09871 2.88504 7.49076C3.49496 6.49272 4.21576 5.60557 5.04746 4.77387C5.71282 4.10851 6.43363 3.55405 7.20988 3.05503C8.92872 1.89065 11.0357 1.1144 13.3644 0.892612Z" fill="white"/>
<path opacity="0.4583" d="M13.2535 0.947948C15.305 0.726162 17.3565 0.892501 19.4081 1.39152C20.2398 1.61331 20.4615 2.61135 19.6853 2.72224C19.4635 2.77769 19.1863 2.77769 18.909 2.83313C16.9684 2.99947 15.2496 3.33215 13.6971 3.83117C13.0871 3.99751 12.5327 4.2193 11.9782 4.44108C10.9247 4.88466 9.92669 5.43912 9.03955 6.04904C8.37419 6.49261 7.76427 6.99163 7.20981 7.54609C6.59989 8.15601 5.98998 8.87681 5.49096 9.59762C4.99194 10.3184 4.54837 11.0947 4.1048 11.9264C3.66122 12.7581 3.2731 13.7007 2.94042 14.6433C2.71863 15.2532 1.77604 15.1977 1.55426 14.9759C1.44336 14.865 1.33247 14.7541 1.27702 14.6433C1.05524 14.5324 0.778001 14.0333 0.888894 13.2016C0.888894 13.0353 0.94434 12.869 0.94434 12.7026C1.22157 10.8729 1.88693 9.0986 2.82952 7.49065C3.43944 6.54805 4.16024 5.60546 4.9365 4.82921C5.60186 4.2193 6.26721 3.60938 7.04346 3.11037C8.8732 1.94599 10.9802 1.16973 13.2535 0.947948Z" fill="white"/>
<path opacity="0.4792" d="M13.1427 1.0015C15.1942 0.779713 17.2457 0.890605 19.2418 1.38962C20.0735 1.61141 20.2953 2.554 19.519 2.6649C19.2972 2.72034 19.02 2.72034 18.7982 2.77579C16.8576 2.94213 15.1387 3.27481 13.6417 3.71838C13.0318 3.88472 12.4773 4.10651 11.9228 4.32829C10.8693 4.77187 9.87131 5.32633 9.03961 5.93624C8.37425 6.37982 7.81978 6.87884 7.26532 7.4333C6.65541 8.04322 6.10094 8.70858 5.54647 9.48483C5.04745 10.2056 4.60388 10.9819 4.16031 11.8136C3.71674 12.6453 3.32861 13.5324 2.99593 14.5305C2.77415 15.1404 1.887 15.0849 1.60977 14.9186C1.49887 14.8077 1.38798 14.6968 1.33253 14.6414C1.11075 14.5305 0.833512 14.0869 0.944405 13.2552C0.944405 13.0889 0.999855 12.9225 0.999855 12.7562C1.27709 10.9264 1.94244 9.15215 2.88504 7.59964C3.49495 6.65705 4.16031 5.76991 4.99201 4.93821C5.65737 4.32829 6.32273 3.71838 7.09898 3.21936C8.87327 1.99954 10.9248 1.22329 13.1427 1.0015Z" fill="white"/>
<path opacity="0.5" d="M13.0318 1.05816C15.0279 0.836373 17.0794 0.947265 19.1309 1.39084C19.9626 1.55718 20.1844 2.55522 19.4082 2.66611C19.1864 2.72156 18.9091 2.72156 18.6873 2.777C16.8022 2.94334 15.0833 3.27602 13.5863 3.71959C12.9763 3.88593 12.4219 4.10772 11.9229 4.32951C10.8694 4.77308 9.92679 5.2721 9.03964 5.88201C8.37428 6.32558 7.76437 6.76916 7.2099 7.32362C6.59999 7.93354 6.04552 8.59889 5.5465 9.3197C5.04749 10.0405 4.60391 10.7613 4.16034 11.593C3.71677 12.4247 3.32864 13.3119 2.99596 14.2544C2.77418 14.8644 1.88703 14.8644 1.66524 14.698C1.55435 14.5871 1.44346 14.5317 1.38801 14.4208C1.16622 14.3653 0.888993 13.9218 0.999887 13.0901C0.999887 12.9237 1.05533 12.7574 1.05533 12.591C1.33257 10.7613 1.99793 9.04247 2.94052 7.48996C3.55043 6.54737 4.21579 5.66023 5.04748 4.88397C5.6574 4.27406 6.37821 3.71959 7.09901 3.22058C8.81786 2.0562 10.8139 1.27995 13.0318 1.05816Z" fill="white"/>
<path opacity="0.5208" d="M12.9763 1.0574C14.9723 0.780162 17.0239 0.891056 19.0199 1.33463C19.8516 1.50097 20.0734 2.44356 19.2972 2.55445C19.0754 2.6099 18.7981 2.6099 18.5764 2.66535C16.6912 2.83169 15.0278 3.16436 13.5307 3.60794C12.9763 3.77428 12.4218 3.99606 11.8673 4.21785C10.8138 4.66142 9.87125 5.16044 9.03955 5.77036C8.37419 6.21393 7.76428 6.71295 7.20981 7.26741C6.5999 7.87733 6.04543 8.54268 5.54641 9.26349C5.04739 9.92885 4.60382 10.7051 4.16025 11.5368C3.71668 12.3685 3.32855 13.2556 2.99587 14.1982C2.77409 14.8082 1.94238 14.8081 1.7206 14.6973C1.60971 14.6418 1.49881 14.5309 1.44337 14.4755C1.22158 14.42 0.888901 14.0319 1.05524 13.2002C1.05524 13.0339 1.11069 12.8675 1.11069 12.7566C1.38792 10.9823 2.05328 9.26349 2.99587 7.71099C3.55034 6.76839 4.27114 5.88125 5.04739 5.105C5.65731 4.49508 6.37811 3.94062 7.09892 3.4416C8.76232 2.11088 10.7584 1.39007 12.9763 1.0574Z" fill="white"/>
<path opacity="0.5417" d="M12.8654 1.11494C14.8615 0.837705 16.8575 0.948599 18.9091 1.33673C19.7408 1.50306 19.9625 2.39021 19.1863 2.55655C18.9645 2.612 18.7427 2.612 18.4655 2.66744C16.5803 2.83378 14.9169 3.16646 13.4753 3.61003C12.9208 3.77637 12.3664 3.99816 11.8119 4.21995C10.7584 4.66352 9.87127 5.16254 8.98412 5.717C8.31876 6.16058 7.7643 6.60415 7.20983 7.15862C6.59992 7.76853 6.04545 8.37844 5.54643 9.09925C5.04741 9.76461 4.60384 10.5409 4.21571 11.3171C3.77214 12.1488 3.38402 12.9805 3.05134 13.9231C2.82955 14.533 1.99785 14.533 1.77606 14.4221C1.66517 14.3667 1.55428 14.3112 1.49883 14.2558C1.27704 14.2558 0.944367 13.8677 1.05526 13.036C1.05526 12.8696 1.11071 12.7033 1.11071 12.5924C1.38794 10.8181 2.0533 9.15469 2.94045 7.60219C3.49491 6.6596 4.21572 5.8279 4.99197 5.05165C5.60188 4.44173 6.26724 3.88727 6.98804 3.38825C8.70689 2.16842 10.703 1.44762 12.8654 1.11494Z" fill="white"/>
<path opacity="0.5625" d="M12.7544 1.17132C14.6951 0.894084 16.7466 0.949532 18.7427 1.33766C19.5744 1.504 19.7407 2.39114 19.0199 2.50204C18.7981 2.55748 18.5763 2.55748 18.2991 2.61293C16.4694 2.77927 14.806 3.11195 13.3643 3.55552C12.8099 3.72186 12.2554 3.94365 11.7564 4.10999C10.7584 4.55356 9.81576 5.05258 8.98406 5.60704C8.3187 6.05062 7.76424 6.54964 7.20977 7.04866C6.59986 7.60312 6.04539 8.26848 5.54638 8.98929C5.04736 9.65464 4.60378 10.3755 4.21566 11.1517C3.77208 11.928 3.43941 12.8151 3.05128 13.7022C2.82949 14.3122 2.05324 14.3676 1.83146 14.2567C1.72056 14.2013 1.60967 14.1458 1.55422 14.0904C1.33244 14.1458 0.944309 13.7577 1.11065 12.926C1.11065 12.7597 1.16609 12.6488 1.16609 12.4824C1.44333 10.7636 2.10869 9.04473 2.99583 7.54768C3.5503 6.60508 4.21566 5.77338 4.99191 4.99713C5.60182 4.38722 6.26718 3.83275 6.98799 3.33373C8.65138 2.2248 10.592 1.504 12.7544 1.17132Z" fill="white"/>
<path opacity="0.5833" d="M12.6435 1.22633C14.5842 0.949101 16.5802 1.00455 18.6318 1.33723C19.5189 1.50357 19.6298 2.33527 18.909 2.50161C18.6872 2.55705 18.4654 2.55705 18.1882 2.6125C16.3585 2.77884 14.7505 3.11152 13.3089 3.55509C12.7544 3.72143 12.2 3.88777 11.7009 4.10956C10.7029 4.49768 9.76031 4.9967 8.92862 5.60661C8.3187 5.99474 7.76424 6.43831 7.20977 6.99278C6.59986 7.54725 6.04539 8.2126 5.54638 8.87796C5.04736 9.54332 4.60378 10.2641 4.21566 11.0404C3.77208 11.8166 3.43941 12.6483 3.05128 13.5909C2.82949 14.1454 2.05324 14.2563 1.83146 14.2008C1.72056 14.1454 1.60967 14.1454 1.55422 14.0899C1.33244 14.1454 0.944309 13.8127 1.11065 12.981C1.11065 12.8147 1.16609 12.7038 1.16609 12.5374C1.44333 10.8186 2.05324 9.1552 2.99583 7.65814C3.5503 6.77099 4.21566 5.88385 4.99191 5.16304C5.60182 4.55313 6.26718 3.99866 6.93254 3.55509C8.59594 2.27982 10.5366 1.55901 12.6435 1.22633Z" fill="white"/>
<path opacity="0.6042" d="M12.5328 1.28015C14.4734 0.947472 16.4695 1.00292 18.4655 1.3356C19.3527 1.50194 19.4636 2.33364 18.7428 2.44453C18.521 2.49998 18.2992 2.49998 18.022 2.55542C16.1922 2.72176 14.5843 3.05444 13.1981 3.49801C12.6437 3.66435 12.0892 3.83069 11.5902 4.05248C10.5921 4.44061 9.70499 4.93963 8.87329 5.49409C8.31882 5.93766 7.76436 6.38124 7.20989 6.88026C6.59998 7.43472 6.10096 8.04463 5.60194 8.76544C5.10292 9.4308 4.65935 10.1516 4.27122 10.8724C3.88309 11.6487 3.49497 12.4804 3.10684 13.3675C2.88506 13.922 2.16425 14.0329 1.94247 13.9774C1.83157 13.9774 1.72068 13.922 1.66523 13.922C1.44345 14.0329 1.05532 13.7002 1.16621 12.813C1.16621 12.6467 1.22166 12.5358 1.22166 12.3695C1.49889 10.6506 2.10881 9.04267 3.0514 7.54562C3.60586 6.65847 4.27122 5.82677 4.99203 5.05052C5.60194 4.44061 6.21185 3.88614 6.93266 3.44257C8.54061 2.38908 10.4812 1.61283 12.5328 1.28015Z" fill="white"/>
<path opacity="0.625" d="M12.4772 1.33545C14.4178 1.00277 16.3585 1.00277 18.41 1.33545C19.2971 1.44634 19.408 2.27804 18.6872 2.44438C18.4654 2.49983 18.2437 2.49982 18.0219 2.55527C16.2476 2.72161 14.6396 3.05429 13.2535 3.44242C12.699 3.60876 12.2 3.7751 11.701 3.99688C10.7029 4.38501 9.81577 4.88403 8.98407 5.43849C8.31871 5.82662 7.76425 6.27019 7.20978 6.76921C6.59987 7.32368 6.10085 7.93359 5.60183 8.59895C5.10281 9.26431 4.65924 9.92967 4.27111 10.7059C3.88299 11.4822 3.49486 12.3139 3.10674 13.201C2.88495 13.7555 2.16414 13.8664 1.94236 13.8664C1.83147 13.8664 1.72057 13.8664 1.66513 13.8109C1.44334 13.9218 0.999766 13.6446 1.16611 12.7574C1.16611 12.5911 1.22155 12.4802 1.22155 12.3139C1.49878 10.6505 2.1087 8.98708 3.05129 7.54547C3.60576 6.65832 4.27112 5.82662 4.99192 5.10581C5.60183 4.4959 6.21175 3.99688 6.87711 3.49786C8.5405 2.44438 10.3702 1.66813 12.4772 1.33545Z" fill="white"/>
<path opacity="0.6458" d="M12.3664 1.33699C14.2516 1.00431 16.2476 1.00431 18.2437 1.28155C19.1309 1.39244 19.2418 2.22414 18.521 2.39048C18.2992 2.44592 18.0774 2.44592 17.8556 2.50137C16.0813 2.66771 14.5288 3.00039 13.1426 3.38851C12.5882 3.55485 12.0892 3.72119 11.5901 3.94298C10.5921 4.33111 9.70495 4.83013 8.92869 5.32915C8.31878 5.77272 7.76432 6.21629 7.20985 6.71531C6.59994 7.26978 6.10092 7.87969 5.6019 8.54505C5.10288 9.21041 4.65931 9.87577 4.27118 10.5966C3.88305 11.3728 3.49493 12.1491 3.1068 13.0362C2.88502 13.5907 2.21966 13.7016 1.99787 13.757C1.88698 13.757 1.77608 13.757 1.72064 13.757C1.49885 13.9234 1.05528 13.5907 1.22162 12.759C1.22162 12.5926 1.27707 12.4818 1.27707 12.3154C1.5543 10.652 2.16421 9.04407 3.05136 7.60246C3.60582 6.71531 4.21574 5.88361 4.93654 5.16281C5.49101 4.55289 6.15637 4.05387 6.82173 3.55486C8.48512 2.50137 10.3149 1.72512 12.3664 1.33699Z" fill="white"/>
<path opacity="0.6667" d="M12.2555 1.39191C14.1407 1.05924 16.0814 1.00379 18.1329 1.28102C19.02 1.39192 19.1309 2.16817 18.4656 2.33451C18.2438 2.38995 18.022 2.38995 17.8002 2.4454C16.0814 2.61174 14.5288 2.94442 13.1427 3.33255C12.5882 3.49888 12.0892 3.66522 11.5902 3.88701C10.5921 4.27514 9.76044 4.71871 8.92874 5.27318C8.31883 5.6613 7.76437 6.10488 7.2099 6.6039C6.65544 7.15836 6.10097 7.71283 5.60195 8.37819C5.10293 8.9881 4.7148 9.7089 4.27123 10.4297C3.8831 11.1505 3.49498 11.9822 3.1623 12.8139C2.94051 13.3684 2.3306 13.5347 2.05337 13.5347C1.94247 13.5347 1.83158 13.5902 1.77613 13.5902C1.55435 13.812 1.11077 13.4793 1.22167 12.6476C1.22167 12.4812 1.27712 12.3703 1.27712 12.204C1.55435 10.5406 2.16426 8.9881 3.05141 7.54649C3.60587 6.65934 4.21579 5.88309 4.93659 5.16228C5.49106 4.60782 6.10097 4.05335 6.82178 3.55433C8.42973 2.55629 10.2595 1.78004 12.2555 1.39191Z" fill="white"/>
<path opacity="0.6875" d="M12.1445 1.44785C14.0297 1.11517 15.9703 1.05972 18.0219 1.28151C18.909 1.3924 19.0199 2.16865 18.3545 2.33499C18.1328 2.39044 17.911 2.39044 17.6892 2.44589C15.9703 2.61223 14.4178 2.94491 13.0871 3.33303C12.5326 3.49937 12.0336 3.66571 11.5901 3.8875C10.6475 4.27562 9.76032 4.7192 8.98406 5.27366C8.37415 5.66179 7.87513 6.10536 7.32067 6.54893C6.7662 7.1034 6.21174 7.65787 5.71272 8.32323C5.2137 8.93314 4.82557 9.5985 4.382 10.3193C3.99387 11.0401 3.60575 11.8718 3.27307 12.7035C3.05128 13.258 2.44137 13.4243 2.21958 13.4798C2.10869 13.5352 1.99779 13.5352 1.94235 13.5907C1.72056 13.8124 1.22154 13.5352 1.38788 12.7035C1.38788 12.5372 1.44333 12.4263 1.44333 12.2599C1.72056 10.652 2.33048 9.09948 3.21762 7.65787C3.71664 6.82617 4.382 5.99447 5.04736 5.27366C5.60182 4.7192 6.21174 4.16473 6.8771 3.72116C8.37415 2.61223 10.1484 1.83597 12.1445 1.44785Z" fill="white"/>
<path opacity="0.7083" d="M12.0337 1.5019C13.8635 1.11377 15.8041 1.05832 17.8556 1.28011C18.7428 1.391 18.8537 2.11181 18.1883 2.27815C18.022 2.3336 17.8002 2.3336 17.523 2.38904C15.8041 2.55538 14.3071 2.83262 12.9763 3.27619C12.4773 3.44253 11.9228 3.60887 11.4793 3.77521C10.5367 4.16333 9.64954 4.60691 8.87328 5.10593C8.26337 5.49405 7.76435 5.93762 7.26533 6.3812C6.71087 6.88022 6.1564 7.49013 5.71283 8.10004C5.26926 8.70996 4.82568 9.37531 4.43756 10.0961C4.04943 10.8169 3.6613 11.5932 3.32862 12.4249C3.10684 12.9793 2.55237 13.1457 2.27514 13.2566C2.16425 13.312 2.05335 13.312 1.99791 13.3675C1.72067 13.5893 1.2771 13.3675 1.44344 12.5358C1.44344 12.3694 1.49889 12.2585 1.49889 12.0922C1.83156 10.4842 2.38603 8.93174 3.27318 7.54558C3.7722 6.71388 4.38211 5.88218 5.10291 5.16137C5.65738 4.60691 6.26729 4.05244 6.93265 3.60887C8.31882 2.66628 10.0931 1.89002 12.0337 1.5019Z" fill="white"/>
<path opacity="0.7292" d="M11.9782 1.55629C13.8079 1.16816 15.7486 1.05727 17.8001 1.27905C18.6872 1.38995 18.7981 2.0553 18.1328 2.27709C17.9664 2.33254 17.7446 2.38798 17.4674 2.38798C15.804 2.55432 14.307 2.83156 12.9762 3.27513C12.4772 3.44147 11.9782 3.60781 11.4792 3.77415C10.5366 4.16228 9.70489 4.60585 8.92863 5.10487C8.37417 5.49299 7.8197 5.88112 7.32068 6.38014C6.76622 6.87916 6.21175 7.48907 5.76818 8.09898C5.32461 8.7089 4.88103 9.37425 4.49291 10.0396C4.10478 10.7604 3.71665 11.5367 3.38397 12.3684C3.16219 12.9228 2.60772 13.0892 2.38594 13.2555C2.27505 13.311 2.16415 13.3664 2.10871 13.4219C1.83147 13.6991 1.3879 13.4773 1.49879 12.6456C1.49879 12.5347 1.55424 12.3684 1.55424 12.2575C1.88692 10.705 2.44138 9.15247 3.32853 7.7663C3.82755 6.9346 4.43746 6.15835 5.15827 5.43755C5.71273 4.88308 6.32264 4.38406 6.93256 3.88504C8.26328 2.72066 10.0376 1.94441 11.9782 1.55629Z" fill="white"/>
<path opacity="0.75" d="M11.8674 1.55792C13.6971 1.1698 15.5823 1.0589 17.6338 1.22524C18.521 1.33614 18.6318 2.0015 17.9665 2.16784C17.8001 2.22328 17.5784 2.27873 17.3011 2.27873C15.6377 2.44507 14.1407 2.7223 12.8654 3.11043C12.3664 3.27677 11.8674 3.44311 11.4238 3.60945C10.4812 3.99757 9.6495 4.3857 8.87324 4.88472C8.31878 5.27284 7.76431 5.66097 7.26529 6.10454C6.71083 6.60356 6.21181 7.15803 5.71279 7.76794C5.26922 8.37785 4.82564 8.98777 4.43752 9.70857C4.04939 10.4294 3.66126 11.1502 3.32859 11.9819C3.1068 12.4809 2.60778 12.7027 2.33055 12.869C2.21965 12.9245 2.10876 12.9799 2.05331 13.0908C1.77608 13.4235 1.27706 13.2017 1.4434 12.37C1.4434 12.2591 1.49885 12.0928 1.49885 11.9819C1.83153 10.4294 2.386 8.93232 3.21769 7.54616C3.71671 6.71446 4.32662 5.9382 4.99198 5.2174C5.54645 4.66293 6.10091 4.16391 6.76627 3.66489C8.20788 2.77775 9.92673 2.0015 11.8674 1.55792Z" fill="white"/>
<path opacity="0.7708" d="M11.7564 1.61443C13.5307 1.2263 15.4713 1.11541 17.5229 1.2263C18.41 1.28175 18.5209 1.94711 17.8555 2.1689C17.6892 2.22434 17.4674 2.27979 17.2456 2.27979C15.5822 2.44613 14.1406 2.72336 12.8653 3.11149C12.3663 3.27783 11.8673 3.44417 11.4237 3.61051C10.4811 3.99863 9.64944 4.38676 8.92863 4.88578C8.37417 5.2739 7.8197 5.66203 7.32068 6.1056C6.76622 6.60462 6.2672 7.15909 5.76818 7.769C5.32461 8.37891 4.88103 8.98883 4.49291 9.65419C4.10478 10.375 3.71666 11.0958 3.38398 11.872C3.16219 12.3711 2.66317 12.6483 2.44138 12.8146C2.33049 12.8701 2.2196 12.981 2.16415 13.0364C1.88692 13.3691 1.3879 13.2028 1.55424 12.3711C1.55424 12.2602 1.60969 12.0938 1.60969 11.9829C1.94237 10.4304 2.49683 8.98883 3.32853 7.60266C3.82755 6.77096 4.43746 5.99471 5.10282 5.32935C5.60184 4.77489 6.21175 4.27587 6.82167 3.83229C8.20783 2.83426 9.87123 2.058 11.7564 1.61443Z" fill="white"/>
<path opacity="0.7917" d="M11.6455 1.66912C13.4198 1.22554 15.3604 1.11465 17.3565 1.22554C18.2437 1.28099 18.3546 1.94635 17.6892 2.11269C17.5229 2.16814 17.3011 2.22358 17.0793 2.22358C15.4713 2.38992 14.0297 2.66715 12.7544 3.05528C12.2554 3.22162 11.7564 3.38796 11.3128 3.5543C10.4257 3.88698 9.594 4.33055 8.81774 4.82957C8.26328 5.16225 7.70881 5.60582 7.26524 5.99395C6.71077 6.49297 6.21175 7.04744 5.76818 7.6019C5.32461 8.15637 4.88103 8.82173 4.49291 9.48709C4.10478 10.1524 3.71665 10.9287 3.38398 11.705C3.16219 12.204 2.71862 12.4812 2.44138 12.703C2.33049 12.8139 2.2196 12.8693 2.16415 12.9802C1.88692 13.3683 1.3879 13.202 1.55424 12.3703C1.55424 12.2594 1.60969 12.0931 1.60969 11.9822C1.94237 10.4851 2.49683 8.98807 3.32853 7.65735C3.82755 6.82565 4.38201 6.10484 5.04737 5.38404C5.54639 4.82957 6.1563 4.33055 6.76622 3.88698C8.15238 2.88894 9.81578 2.11269 11.6455 1.66912Z" fill="white"/>
<path opacity="0.8125" d="M11.5348 1.72565C13.3091 1.28207 15.1942 1.11573 17.2458 1.22663C18.1329 1.28207 18.2438 1.89199 17.5784 2.11377C17.4121 2.16922 17.1903 2.22467 16.9685 2.22467C15.3606 2.39101 13.919 2.66824 12.6991 3.05636C12.2001 3.2227 11.7565 3.38904 11.2575 3.55538C10.3704 3.88806 9.53868 4.33164 8.81788 4.77521C8.26341 5.10789 7.76439 5.49602 7.26537 5.93959C6.71091 6.43861 6.21189 6.93763 5.76832 7.54754C5.32474 8.10201 4.88117 8.71192 4.49304 9.37728C4.10492 10.0426 3.71679 10.7634 3.38411 11.5397C3.16233 12.0387 2.71875 12.3159 2.49697 12.5377C2.38607 12.6486 2.27518 12.7595 2.21973 12.8704C1.9425 13.314 1.38804 13.1476 1.55438 12.3159C1.55438 12.2051 1.60982 12.0387 1.66527 11.9278C1.99795 10.4308 2.55241 8.98915 3.38411 7.71388C3.88313 6.93763 4.4376 6.16137 5.10296 5.49602C5.60197 4.94155 6.15644 4.44253 6.76635 3.99896C8.09707 2.94547 9.70502 2.16922 11.5348 1.72565Z" fill="white"/>
<path opacity="0.8333" d="M11.4793 1.77804C13.1982 1.33447 15.1388 1.11268 17.1349 1.22357C18.022 1.27902 18.1329 1.88893 17.4675 2.05527C17.3012 2.11072 17.0794 2.16616 16.8576 2.16616C15.3051 2.3325 13.8635 2.60974 12.6437 2.99786C12.1447 3.1642 11.7011 3.2751 11.2575 3.49688C10.3704 3.82956 9.53868 4.21769 8.81788 4.71671C8.26341 5.04939 7.76439 5.43751 7.26537 5.88109C6.71091 6.3801 6.21189 6.87912 5.76832 7.43359C5.32474 7.98806 4.88117 8.59797 4.49304 9.26333C4.10492 9.92869 3.71679 10.6495 3.38411 11.4257C3.16233 11.9248 2.71875 12.202 2.49697 12.4792C2.38607 12.5901 2.27518 12.701 2.21973 12.8674C1.9425 13.3109 1.38804 13.2 1.55438 12.3683C1.55438 12.2574 1.60982 12.0911 1.66527 11.9802C1.99795 10.4832 2.55241 9.09699 3.38411 7.82172C3.88313 7.04546 4.4376 6.26921 5.04751 5.60385C5.54653 5.04939 6.101 4.55037 6.71091 4.10679C8.04163 2.99786 9.64958 2.22161 11.4793 1.77804Z" fill="white"/>
<path opacity="0.8542" d="M11.3684 1.7804C13.0872 1.33682 14.9724 1.11504 17.0239 1.17048C17.9111 1.22593 18.022 1.7804 17.3566 2.00218C17.1903 2.05763 16.9685 2.11308 16.7467 2.11308C15.1942 2.27941 13.808 2.55665 12.5882 2.94477C12.0892 3.11111 11.6456 3.22201 11.2021 3.38835C10.3149 3.72103 9.53866 4.10915 8.81786 4.55272C8.26339 4.8854 7.76437 5.27353 7.3208 5.66166C6.76633 6.10523 6.26731 6.65969 5.82374 7.21416C5.38017 7.76863 4.9366 8.37854 4.60392 8.98845C4.21579 9.65381 3.82766 10.3192 3.49499 11.0954C3.2732 11.5944 2.88507 11.9271 2.66329 12.2044C2.55239 12.3152 2.4415 12.4816 2.38605 12.5925C2.10882 13.0915 1.49891 12.9806 1.72069 12.1489C1.77614 12.038 1.77614 11.8717 1.83159 11.7608C2.16427 10.3192 2.71873 8.933 3.49499 7.65773C3.994 6.88148 4.54847 6.16068 5.15838 5.49532C5.6574 4.94085 6.21186 4.49728 6.76633 4.05371C7.98616 3.05567 9.59411 2.27941 11.3684 1.7804Z" fill="white"/>
<path opacity="0.875" d="M11.2574 1.83516C12.9762 1.33614 14.8614 1.11436 16.8575 1.22525C17.7446 1.22525 17.8555 1.77972 17.1902 2.0015C17.0238 2.05695 16.802 2.1124 16.5802 2.1124C15.0277 2.27874 13.697 2.55597 12.4772 2.9441C11.9782 3.11044 11.5346 3.22133 11.091 3.38767C10.2039 3.72035 9.42764 4.10847 8.70683 4.55205C8.15236 4.88473 7.65335 5.27285 7.20977 5.66098C6.65531 6.10455 6.21174 6.60357 5.71272 7.15804C5.26914 7.7125 4.88102 8.26697 4.49289 8.93233C4.10476 9.59769 3.71664 10.263 3.38396 10.9838C3.16217 11.4829 2.77405 11.8155 2.55226 12.0928C2.44137 12.2591 2.33047 12.37 2.27503 12.5364C1.99779 13.0908 1.38788 12.9245 1.55422 12.1482C1.60967 12.0373 1.60967 11.871 1.66511 11.7601C1.99779 10.3185 2.55226 8.93233 3.32851 7.7125C3.77208 6.93625 4.32655 6.21544 4.93646 5.55008C5.43548 5.05106 5.9345 4.55205 6.54442 4.10847C7.93058 3.11044 9.48309 2.33418 11.2574 1.83516Z" fill="white"/>
<path opacity="0.8958" d="M11.1466 1.89047C12.8654 1.39145 14.6951 1.16967 16.7467 1.22511C17.6338 1.22511 17.7447 1.77958 17.0793 2.00137C16.913 2.05681 16.7467 2.11226 16.5249 2.11226C15.0278 2.2786 13.6417 2.55583 12.4773 2.88851C12.0337 2.9994 11.5347 3.16574 11.1466 3.33208C10.3149 3.66476 9.53861 4.05289 8.8178 4.49646C8.26334 4.82914 7.76432 5.16182 7.32074 5.60539C6.76628 6.04897 6.32271 6.54799 5.87913 7.10245C5.43556 7.65692 5.04744 8.21138 4.65931 8.8213C4.27118 9.43121 3.88306 10.152 3.55038 10.8728C3.32859 11.3718 2.99591 11.7045 2.77413 12.0372C2.66323 12.2035 2.55234 12.3699 2.49689 12.5362C2.21966 13.0907 1.60975 12.9798 1.77609 12.2035C1.83153 12.0926 1.83153 11.9818 1.88698 11.8154C2.21966 10.4292 2.77413 9.04308 3.55038 7.82326C3.99395 7.04701 4.54842 6.38165 5.15833 5.71629C5.65735 5.21727 6.15637 4.71825 6.71083 4.27468C7.87521 3.16574 9.42772 2.38949 11.1466 1.89047Z" fill="white"/>
<path opacity="0.9167" d="M11.0356 1.94655C12.699 1.44753 14.5842 1.1703 16.5803 1.22575C17.4674 1.22575 17.5783 1.72477 16.913 1.94655C16.7466 2.002 16.5803 2.05745 16.3585 2.05745C14.8614 2.22378 13.5307 2.50102 12.3663 2.8337C11.9228 2.94459 11.4792 3.11093 11.0356 3.27727C10.2039 3.60995 9.42768 3.99808 8.70687 4.3862C8.1524 4.71888 7.70883 5.05156 7.20981 5.43969C6.71079 5.88326 6.21178 6.38228 5.7682 6.8813C5.32463 7.38032 4.9365 7.99023 4.54838 8.60014C4.16025 9.21005 3.82757 9.87541 3.43944 10.5962C3.21766 11.0398 2.88498 11.4279 2.6632 11.816C2.5523 11.9824 2.44141 12.1487 2.38596 12.3151C2.10873 12.925 1.44337 12.8141 1.66515 12.0378C1.7206 11.9269 1.7206 11.816 1.77605 11.6497C2.10873 10.2635 2.66319 8.93282 3.43944 7.713C3.88302 6.99219 4.43748 6.27139 5.0474 5.60603C5.49097 5.10701 6.04544 4.60799 6.5999 4.16441C7.87517 3.27727 9.37223 2.44557 11.0356 1.94655Z" fill="white"/>
<path opacity="0.9375" d="M10.9802 2.00103C12.6436 1.50201 14.4734 1.16933 16.5249 1.22477C17.412 1.22477 17.5229 1.72379 16.8576 1.94558C16.6912 2.00103 16.5249 2.05647 16.3031 2.05647C14.806 2.22281 13.5308 2.50005 12.3664 2.83272C11.9228 2.94362 11.4792 3.10996 11.0357 3.2763C10.204 3.60898 9.42772 3.94166 8.76236 4.38523C8.26334 4.71791 7.76432 5.05059 7.32074 5.43871C6.82172 5.88229 6.32271 6.32586 5.87913 6.88033C5.43556 7.37934 5.04744 7.93381 4.65931 8.54372C4.27118 9.15364 3.9385 9.81899 3.55038 10.5398C3.32859 10.9834 3.05136 11.3715 2.82957 11.7596C2.71868 11.926 2.60778 12.1478 2.55234 12.3141C2.2751 12.924 1.60974 12.8686 1.77608 12.0923C1.83153 11.9814 1.83153 11.8705 1.88698 11.7042C2.21966 10.318 2.77413 9.04274 3.49493 7.82292C3.9385 7.10211 4.43752 6.38131 5.04743 5.77139C5.49101 5.27237 5.99003 4.77336 6.5445 4.38523C7.81977 3.33174 9.26138 2.50005 10.9802 2.00103Z" fill="white"/>
<path opacity="0.9583" d="M10.8693 2.05826C12.5327 1.5038 14.3625 1.22656 16.3585 1.22656C17.2457 1.22656 17.3011 1.67014 16.6912 1.89192C16.5249 1.94737 16.3585 2.00281 16.1368 2.00281C14.6951 2.16915 13.3644 2.44639 12.2555 2.77907C11.8119 2.88996 11.3683 3.0563 10.9802 3.22264C10.1485 3.55532 9.42771 3.888 8.70691 4.27612C8.20789 4.6088 7.70887 4.94148 7.2653 5.27416C6.76628 5.71774 6.26726 6.16131 5.82369 6.66033C5.38011 7.15935 4.99199 7.71381 4.60386 8.26828C4.21574 8.87819 3.88306 9.54355 3.55038 10.2089C3.32859 10.6525 3.05136 11.0961 2.82957 11.4842C2.71868 11.6505 2.66323 11.8723 2.55234 12.0941C2.2751 12.7595 1.60974 12.704 1.77608 11.9278C1.83153 11.8169 1.83153 11.706 1.88698 11.5951C2.21966 10.2644 2.77413 8.93364 3.49493 7.76926C3.9385 7.04845 4.43752 6.3831 5.04743 5.71774C5.49101 5.21872 5.99003 4.77514 6.5445 4.33157C7.76432 3.38898 9.20593 2.55728 10.8693 2.05826Z" fill="white"/>
<path opacity="0.9792" d="M10.7584 2.05707C12.3664 1.5026 14.1961 1.16992 16.2477 1.16992C17.1348 1.16992 17.1903 1.61349 16.5803 1.83528C16.414 1.89073 16.2477 1.94617 16.0259 1.94617C14.5843 2.11251 13.309 2.38975 12.2001 2.72243C11.7565 2.83332 11.3129 2.99966 10.9248 3.166C10.0931 3.44323 9.37228 3.83136 8.70692 4.21948C8.2079 4.49672 7.70888 4.8294 7.26531 5.21752C6.76629 5.6611 6.26727 6.10467 5.8237 6.60369C5.38013 7.10271 4.992 7.65717 4.60388 8.21164C4.21575 8.82155 3.88307 9.43146 3.55039 10.0968C3.3286 10.5404 3.10682 10.984 2.88503 11.4275C2.77414 11.6493 2.71869 11.8711 2.6078 12.0375C2.33056 12.7583 1.60976 12.7028 1.83155 11.9266C1.88699 11.8157 1.88699 11.7048 1.94244 11.5939C2.27512 10.2632 2.82959 8.98789 3.55039 7.82351C3.99396 7.10271 4.49298 6.43735 5.04745 5.82744C5.49102 5.32842 5.99004 4.88484 6.48906 4.44127C7.70888 3.44323 9.09505 2.61153 10.7584 2.05707Z" fill="white"/>
<path d="M1.88697 11.8705C2.2751 10.4289 2.82956 9.0427 3.60581 7.82288C4.38207 6.54761 5.32466 5.43867 6.54449 4.44064C7.70886 3.49804 9.09503 2.66635 10.703 2.11188C12.3109 1.55741 14.1407 1.22473 16.1922 1.16929C17.3011 1.11384 17.1348 1.7792 16.0259 1.94554C14.0298 2.22277 12.3664 2.6109 10.9802 3.10992C9.59405 3.60894 8.37422 4.2743 7.37618 5.106C6.37815 5.93769 5.54644 6.88029 4.77019 8.04466C4.04939 9.1536 3.38403 10.4843 2.77412 11.9814C2.38599 12.7022 1.66518 12.6467 1.88697 11.8705Z" fill="white"/>
</g>
</svg>
