<svg width="20" height="20" viewBox="0 0 20 20" fill="none" xmlns="http://www.w3.org/2000/svg">
<path opacity="0.4" d="M5.925 4.96673L13.4417 2.4584C16.8167 1.3334 18.65 3.17507 17.5333 6.55007L15.025 14.0667C13.3417 19.1251 10.575 19.1251 8.89166 14.0667L8.15 11.8334L5.91666 11.0917C0.866662 9.41674 0.866662 6.6584 5.925 4.96673Z" fill="#EC575E"/>
<path d="M10.1 9.69212L13.275 6.50879L10.1 9.69212Z" fill="#EC575E"/>
<path d="M10.1 10.317C9.94166 10.317 9.78333 10.2587 9.65833 10.1337C9.41666 9.89199 9.41666 9.49199 9.65833 9.25033L12.825 6.06699C13.0667 5.82533 13.4667 5.82533 13.7083 6.06699C13.95 6.30866 13.95 6.70866 13.7083 6.95033L10.5417 10.1337C10.4167 10.2503 10.2583 10.317 10.1 10.317Z" fill="#EC575E"/>
</svg>
