<svg width="44" height="44" viewBox="0 0 44 44" fill="none" xmlns="http://www.w3.org/2000/svg">
<path d="M27.4545 40.182C26.7091 40.182 26.0909 39.5638 26.0909 38.8184V5.182C26.0909 4.43654 26.7091 3.81836 27.4545 3.81836C28.2 3.81836 28.8182 4.43654 28.8182 5.182V38.8184C28.8182 39.5638 28.2 40.182 27.4545 40.182Z" fill="#303B89"/>
<path opacity="0.4" d="M12 36.545H22.9091V7.4541H12C7.98182 7.4541 4.72728 10.7086 4.72728 14.7268V29.2723C4.72728 33.2905 7.98182 36.545 12 36.545Z" fill="#303B89"/>
<path opacity="0.4" d="M32.9091 36.545H27.4545V7.4541H32.9091C36.9273 7.4541 40.1818 10.7086 40.1818 14.7268V29.2723C40.1818 33.2905 36.9273 36.545 32.9091 36.545Z" fill="#303B89"/>
<path d="M10.6364 23.8177C10.4 23.8177 10.1636 23.7631 9.94546 23.6722C9.72728 23.5813 9.52728 23.454 9.34546 23.2904C9.18183 23.1086 9.05456 22.9086 8.94546 22.6904C8.85456 22.4722 8.81819 22.2358 8.81819 21.9995C8.81819 21.5267 9.01819 21.054 9.34546 20.7086C9.43637 20.6358 9.52728 20.5631 9.61819 20.4904C9.72728 20.4177 9.83637 20.3631 9.94546 20.3267C10.0546 20.2722 10.1636 20.2358 10.2727 20.2177C10.8909 20.0904 11.5091 20.2904 11.9273 20.7086C12.2546 21.054 12.4546 21.5267 12.4546 21.9995C12.4546 22.2358 12.4 22.4722 12.3091 22.6904C12.2182 22.9086 12.0909 23.1086 11.9273 23.2904C11.7455 23.454 11.5455 23.5813 11.3273 23.6722C11.1091 23.7631 10.8727 23.8177 10.6364 23.8177Z" fill="#303B89"/>
<path d="M17 23.8177C16.7636 23.8177 16.5273 23.7632 16.3091 23.6723C16.0909 23.5814 15.8909 23.4541 15.7091 23.2905C15.3636 22.945 15.1818 22.4905 15.1818 21.9996C15.1818 21.7632 15.2364 21.5268 15.3273 21.3086C15.4182 21.0723 15.5455 20.8905 15.7091 20.7086C16.3818 20.0359 17.6 20.0359 18.2909 20.7086C18.6182 21.0541 18.8182 21.5268 18.8182 21.9996C18.8182 22.2359 18.7636 22.4723 18.6727 22.6905C18.5818 22.9086 18.4546 23.1086 18.2909 23.2905C18.1091 23.4541 17.9091 23.5814 17.6909 23.6723C17.4727 23.7632 17.2364 23.8177 17 23.8177Z" fill="#303B89"/>
</svg>
