<svg width="44" height="44" viewBox="0 0 44 44" fill="none" xmlns="http://www.w3.org/2000/svg">
<circle cx="22" cy="22" r="22" fill="#DADEFF"/>
<path d="M25 32C24.59 32 24.25 31.66 24.25 31.25V12.75C24.25 12.34 24.59 12 25 12C25.41 12 25.75 12.34 25.75 12.75V31.25C25.75 31.66 25.41 32 25 32Z" fill="#303B89"/>
<path opacity="0.4" d="M16.5 30H22.5V14H16.5C14.29 14 12.5 15.79 12.5 18V26C12.5 28.21 14.29 30 16.5 30Z" fill="#303B89"/>
<path opacity="0.4" d="M28 30H25V14H28C30.21 14 32 15.79 32 18V26C32 28.21 30.21 30 28 30Z" fill="#303B89"/>
<path d="M15.75 23.0009C15.62 23.0009 15.49 22.9709 15.37 22.9209C15.25 22.8709 15.14 22.8009 15.04 22.7109C14.95 22.6109 14.88 22.5009 14.82 22.3809C14.77 22.2609 14.75 22.1309 14.75 22.0009C14.75 21.7409 14.86 21.4809 15.04 21.2909C15.09 21.2509 15.14 21.2109 15.19 21.1709C15.25 21.1309 15.31 21.1009 15.37 21.0809C15.43 21.0509 15.49 21.0309 15.55 21.0209C15.89 20.9509 16.23 21.0609 16.46 21.2909C16.64 21.4809 16.75 21.7409 16.75 22.0009C16.75 22.1309 16.72 22.2609 16.67 22.3809C16.62 22.5009 16.55 22.6109 16.46 22.7109C16.36 22.8009 16.25 22.8709 16.13 22.9209C16.01 22.9709 15.88 23.0009 15.75 23.0009Z" fill="#303B89"/>
<path d="M19.25 22.9992C19.12 22.9992 18.99 22.9692 18.87 22.9192C18.75 22.8692 18.64 22.7992 18.54 22.7092C18.35 22.5192 18.25 22.2692 18.25 21.9992C18.25 21.8692 18.28 21.7392 18.33 21.6192C18.38 21.4892 18.45 21.3892 18.54 21.2892C18.91 20.9192 19.58 20.9192 19.96 21.2892C20.14 21.4792 20.25 21.7392 20.25 21.9992C20.25 22.1292 20.22 22.2592 20.17 22.3792C20.12 22.4992 20.05 22.6092 19.96 22.7092C19.86 22.7992 19.75 22.8692 19.63 22.9192C19.51 22.9692 19.38 22.9992 19.25 22.9992Z" fill="#303B89"/>
</svg>
