<svg width="44" height="44" viewBox="0 0 44 44" fill="none" xmlns="http://www.w3.org/2000/svg">
<circle cx="22" cy="22" r="22" fill="#F1ECFF"/>
<path opacity="0.4" d="M31.08 18.58V25.42C31.08 26.54 30.48 27.58 29.51 28.15L23.57 31.58C22.6 32.14 21.4 32.14 20.42 31.58L14.48 28.15C13.51 27.59 12.91 26.55 12.91 25.42V18.58C12.91 17.46 13.51 16.42 14.48 15.85L20.42 12.42C21.39 11.86 22.59 11.86 23.57 12.42L29.51 15.85C30.48 16.42 31.08 17.45 31.08 18.58Z" fill="#AF52DE"/>
<path d="M22 21.9998C23.2868 21.9998 24.33 20.9566 24.33 19.6698C24.33 18.383 23.2868 17.3398 22 17.3398C20.7132 17.3398 19.67 18.383 19.67 19.6698C19.67 20.9566 20.7132 21.9998 22 21.9998Z" fill="#AF52DE"/>
<path d="M24.68 26.6603C25.49 26.6603 25.96 25.7604 25.51 25.0904C24.83 24.0804 23.51 23.4004 22 23.4004C20.49 23.4004 19.17 24.0804 18.49 25.0904C18.04 25.7604 18.51 26.6603 19.32 26.6603H24.68Z" fill="#AF52DE"/>
</svg>
