<svg width="44" height="44" viewBox="0 0 44 44" fill="none" xmlns="http://www.w3.org/2000/svg">
<circle cx="22" cy="22" r="22" fill="#EEFFF7"/>
<path opacity="0.4" d="M26.49 32H17.51C14 32 13.24 29.99 13.53 27.53L14.43 20.03C14.66 18.09 15 16.5 18.4 16.5H25.6C29 16.5 29.34 18.09 29.57 20.03L30.32 26.28L30.47 27.53C30.48 27.61 30.49 27.69 30.5 27.77C30.71 30.12 29.89 32 26.49 32Z" fill="#1A9459"/>
<path d="M26 18.75C25.59 18.75 25.25 18.41 25.25 18V14.5C25.25 13.42 24.58 12.75 23.5 12.75H20.5C19.42 12.75 18.75 13.42 18.75 14.5V18C18.75 18.41 18.41 18.75 18 18.75C17.59 18.75 17.25 18.41 17.25 18V14.5C17.25 12.59 18.59 11.25 20.5 11.25H23.5C25.41 11.25 26.75 12.59 26.75 14.5V18C26.75 18.41 26.41 18.75 26 18.75Z" fill="#1A9459"/>
<path d="M30.5 27.7693C30.47 27.7793 30.44 27.7793 30.41 27.7793H18C17.59 27.7793 17.25 27.4393 17.25 27.0293C17.25 26.6093 17.59 26.2793 18 26.2793H30.32L30.47 27.5293C30.48 27.6093 30.49 27.6893 30.5 27.7693Z" fill="#1A9459"/>
</svg>
