<svg width="25" height="24" viewBox="0 0 25 24" fill="none" xmlns="http://www.w3.org/2000/svg">
<path opacity="0.4" d="M2.5 12.8804V11.1204C2.5 10.0804 3.35 9.22043 4.4 9.22043C6.21 9.22043 6.95 7.94042 6.04 6.37042C5.52 5.47042 5.83 4.30042 6.74 3.78042L8.47 2.79042C9.26 2.32042 10.28 2.60042 10.75 3.39042L10.86 3.58042C11.76 5.15042 13.24 5.15042 14.15 3.58042L14.26 3.39042C14.73 2.60042 15.75 2.32042 16.54 2.79042L18.27 3.78042C19.18 4.30042 19.49 5.47042 18.97 6.37042C18.06 7.94042 18.8 9.22043 20.61 9.22043C21.65 9.22043 22.51 10.0704 22.51 11.1204V12.8804C22.51 13.9204 21.66 14.7804 20.61 14.7804C18.8 14.7804 18.06 16.0604 18.97 17.6304C19.49 18.5404 19.18 19.7004 18.27 20.2204L16.54 21.2104C15.75 21.6804 14.73 21.4004 14.26 20.6104L14.15 20.4204C13.25 18.8504 11.77 18.8504 10.86 20.4204L10.75 20.6104C10.28 21.4004 9.26 21.6804 8.47 21.2104L6.74 20.2204C5.83 19.7004 5.52 18.5304 6.04 17.6304C6.95 16.0604 6.21 14.7804 4.4 14.7804C3.35 14.7804 2.5 13.9204 2.5 12.8804Z" fill="#C0C8FF"/>
<path d="M12.5 15.25C14.2949 15.25 15.75 13.7949 15.75 12C15.75 10.2051 14.2949 8.75 12.5 8.75C10.7051 8.75 9.25 10.2051 9.25 12C9.25 13.7949 10.7051 15.25 12.5 15.25Z" fill="#C0C8FF"/>
</svg>
