<svg width="32" height="32" viewBox="0 0 32 32" fill="none" xmlns="http://www.w3.org/2000/svg">
<circle cx="16" cy="16" r="16" fill="#FEF4EB"/>
<path opacity="0.4" d="M12.0896 20.3999H14.9979L18.2334 22.5521C18.7133 22.872 19.3604 22.5303 19.3604 21.9486V20.3999C21.5417 20.3999 22.9958 18.9458 22.9958 16.7645V12.402C22.9958 10.2208 21.5417 8.7666 19.3604 8.7666H12.0896C9.90833 8.7666 8.45416 10.2208 8.45416 12.402V16.7645C8.45416 18.9458 9.90833 20.3999 12.0896 20.3999Z" fill="#F87E14"/>
<path d="M18.2698 15.1795H13.1802C12.8821 15.1795 12.6349 14.9323 12.6349 14.6342C12.6349 14.3361 12.8821 14.0889 13.1802 14.0889H18.2698C18.5679 14.0889 18.8151 14.3361 18.8151 14.6342C18.8151 14.9323 18.5679 15.1795 18.2698 15.1795Z" fill="#F87E14"/>
</svg>
