<svg width="251" height="188" viewBox="0 0 251 188" fill="none" xmlns="http://www.w3.org/2000/svg">
<path d="M203.1 40.4845C200.162 39.47 198.156 37.7093 195.894 35.1207L196.85 33.0801C199.229 36.2284 199.999 37.9308 202.972 37.686L203.1 40.4845Z" fill="#FFB900"/>
<path d="M236.822 85.6686C234.642 82.8234 233.662 79.9083 232.858 76.0837L234.723 74.8477C235.365 79.267 235.248 81.3309 238.07 83.0333L236.822 85.6686Z" fill="#007BFF"/>
<path d="M163.641 48.1569C160.551 48.9264 157.974 48.4833 154.826 47.4456L154.814 45.0552C158.312 46.5361 159.747 47.6321 162.324 45.6965L163.641 48.1569Z" fill="#14CCA1"/>
<path d="M84.1404 38.409C82.6828 40.4846 81.0387 41.604 78.8232 42.6768L77.8787 41.3125C80.4557 40.298 81.7034 40.1698 82.4146 37.6978L84.1404 38.409Z" fill="#FF5C33"/>
<path d="M33.2775 98.9149C29.8027 99.0898 27.2024 98.1336 24.1473 96.4428L24.777 93.9941C28.0769 96.198 29.3013 97.6089 32.5429 96.1397L33.2775 98.9149Z" fill="#007BFF"/>
<path d="M39.6091 39.365C36.9622 37.441 35.5746 35.074 34.2453 31.8324L36.0527 30.1416C37.277 33.9662 37.4053 35.8785 40.5886 36.5898L39.6091 39.365Z" fill="#14CCA1"/>
<path d="M55.4673 60.6222C52.4589 62.7211 49.6371 63.3274 45.999 63.5606L45.2527 61.0536C49.3805 61.1469 51.2229 61.6949 53.3218 58.5933L55.4673 60.6222Z" fill="#007BFF"/>
<path d="M98.4711 2.79792C95.4627 4.57031 92.6991 4.92013 89.201 4.85016L88.6296 2.37815C92.5825 2.79792 94.3199 3.47423 96.5354 0.664062L98.4711 2.79792Z" fill="#FFB900"/>
<path d="M141.16 8.90801C138.653 7.67201 137.02 5.8763 135.248 3.33432L136.274 1.64355C138.105 4.69859 138.641 6.29607 141.288 6.42434L141.16 8.90801Z" fill="#14CCA1"/>
<path d="M180.234 18.7028C182.986 17.082 184.502 14.9714 186.029 12.033L184.35 10.3306C182.893 13.8287 182.648 15.6011 179.441 16.0442L180.234 18.7028Z" fill="#FF5C33"/>
<g opacity="0.837">
<path d="M89.7957 105.643C87.0205 103.999 85.3064 101.795 83.4641 98.7286L84.7467 96.8979C86.6124 100.548 87.1138 102.425 90.1222 102.821L89.7957 105.643Z" fill="#FF5C33"/>
</g>
<path d="M181.4 80.8182C180.292 84.2464 178.602 86.5201 176.153 89.0505L174.404 87.7678C177.354 85.1442 178.917 84.3396 178.905 80.7832L181.4 80.8182Z" fill="#FF5C33"/>
<path d="M67.6642 25.1627C68.3081 25.1627 68.8302 24.6406 68.8302 23.9966C68.8302 23.3526 68.3081 22.8306 67.6642 22.8306C67.0202 22.8306 66.4981 23.3526 66.4981 23.9966C66.4981 24.6406 67.0202 25.1627 67.6642 25.1627Z" fill="#FF5C33"/>
<path d="M160.33 25.1627C160.974 25.1627 161.496 24.6406 161.496 23.9966C161.496 23.3526 160.974 22.8306 160.33 22.8306C159.686 22.8306 159.164 23.3526 159.164 23.9966C159.164 24.6406 159.686 25.1627 160.33 25.1627Z" fill="#FFB900"/>
<path d="M190.798 60.692C191.442 60.692 191.965 60.1699 191.965 59.5259C191.965 58.8819 191.442 58.3599 190.798 58.3599C190.155 58.3599 189.632 58.8819 189.632 59.5259C189.632 60.1699 190.155 60.692 190.798 60.692Z" fill="#FF5C33"/>
<path d="M69.5298 72.504C70.1738 72.504 70.6959 71.9819 70.6959 71.3379C70.6959 70.6939 70.1738 70.1719 69.5298 70.1719C68.8858 70.1719 68.3638 70.6939 68.3638 71.3379C68.3638 71.9819 68.8858 72.504 69.5298 72.504Z" fill="#14CCA1"/>
<path d="M16.3744 58.7789L14.041 61.1123L16.3744 63.4457L18.7077 61.1123L16.3744 58.7789Z" fill="#FFB900"/>
<path d="M218.879 54.9616L216.546 57.2949L218.879 59.6283L221.212 57.2949L218.879 54.9616Z" fill="#14CCA1"/>
<path d="M138.501 140.379L118.854 140.403V135.82C118.854 134.199 120.159 132.882 121.78 132.882L135.563 132.87C137.184 132.87 138.501 134.176 138.501 135.797V140.379Z" fill="#FFB900"/>
<path d="M135.027 112.989H122.317V135.494H135.027V112.989Z" fill="#FFB900"/>
<path d="M122.317 122.714V112.989H135.027L135.015 117.712L122.317 122.714Z" fill="#E8950C"/>
<path d="M150.535 95.6266L149.719 92.9447C164.597 88.4437 170.906 79.1271 169.005 64.4815C168.982 64.4582 168.83 64.3649 168.632 64.4232L166.58 64.9829C165.764 65.2045 165.204 65.8225 165.204 66.5104V69.6821C165.204 71.6061 163.583 73.1452 161.507 73.1919C159.362 73.2385 155.689 73.2968 155.211 73.2968V70.4983C155.549 70.4983 157.881 70.4517 161.461 70.3934C161.974 70.3817 162.417 70.0552 162.417 69.6821V66.5104C162.417 64.5398 163.805 62.8374 165.857 62.2777L167.909 61.718C168.807 61.4731 169.763 61.6247 170.533 62.1378C171.232 62.6042 171.687 63.3271 171.792 64.12C172.795 71.8159 171.675 78.3225 168.457 83.4298C164.982 88.9801 158.954 93.0846 150.535 95.6266Z" fill="#FFB900"/>
<path d="M106.797 95.6266C98.3778 93.0847 92.3493 88.9802 88.8745 83.4415C85.6679 78.3225 84.5485 71.8277 85.5396 64.1318C85.6446 63.3389 86.0993 62.6159 86.799 62.1495C87.5686 61.6364 88.5247 61.4848 89.4226 61.7297L91.4748 62.2894C93.527 62.8491 94.9146 64.5399 94.9146 66.5222V69.6938C94.9146 70.0669 95.3577 70.3934 95.8708 70.4051C99.4506 70.4751 101.783 70.51 102.121 70.51V73.3085C101.631 73.3085 97.958 73.2386 95.8242 73.2036C93.7486 73.1686 92.1278 71.6294 92.1278 69.6938V66.5222C92.1278 65.8342 91.5798 65.2162 90.7519 64.9946L88.6996 64.4349C88.5014 64.3766 88.3498 64.4699 88.3265 64.5166C86.4375 79.1388 92.7458 88.4555 107.625 92.9564L106.797 95.6266Z" fill="#FFB900"/>
<path d="M156.657 64.7733L153.613 102.751C153.252 107.299 151.025 111.298 147.736 114.004C144.926 116.312 141.323 117.7 137.417 117.7H119.938C111.473 117.7 104.418 111.194 103.742 102.751L102.167 83.0452L100.698 64.7733C100.465 61.9165 102.727 59.4678 105.596 59.4678H151.748C154.616 59.4678 156.878 61.9165 156.657 64.7733Z" fill="#FFB900"/>
<path d="M147.736 114.004C144.926 116.313 141.323 117.7 137.417 117.7H119.938C111.472 117.7 104.418 111.194 103.742 102.752L102.167 83.0454C113.233 97.0263 130.887 109.025 147.736 114.004Z" fill="#E8950C"/>
<path d="M138.152 117.467H119.938V117.933H138.152V117.467Z" fill="#001F40"/>
<path d="M125.162 132.649H121.78V133.115H125.162V132.649Z" fill="#001F40"/>
<path d="M135.656 132.649H132.275V133.115H135.656V132.649Z" fill="#001F40"/>
<path d="M143.072 151.48L114.271 151.515L114.259 143.913C114.259 141.079 116.556 138.77 119.39 138.77L137.907 138.747C140.74 138.747 143.049 141.044 143.049 143.878L143.072 151.48Z" fill="#FFB900"/>
<path d="M138.478 138.584H118.865V139.05H138.478V138.584Z" fill="#E8950C"/>
<path opacity="0.6" d="M143.644 80.8649C145.06 80.8649 146.209 78.6201 146.209 75.8509C146.209 73.0818 145.06 70.8369 143.644 70.8369C142.227 70.8369 141.078 73.0818 141.078 75.8509C141.078 78.6201 142.227 80.8649 143.644 80.8649Z" fill="white"/>
<path d="M199.346 175.151H58.0909V187.162H199.346V175.151Z" fill="white"/>
<path d="M176.013 163.153H81.4352V175.163H176.013V163.153Z" fill="white"/>
<path d="M159.653 151.143H97.7947V163.153H159.653V151.143Z" fill="white"/>
<path d="M163.513 175.151H93.9235V187.162H163.513V175.151Z" fill="#FF5C33"/>
<path d="M153.508 163.141H103.951V175.151H153.508V163.141Z" fill="#FF5C33"/>
<path d="M143.224 151.143H114.224V163.153H143.224V151.143Z" fill="#FF5C33"/>
<path opacity="0.1" d="M114.224 160.342H97.7947V163.141H114.224V160.342Z" fill="#003E80"/>
<path opacity="0.1" d="M159.653 160.342H143.224V163.141H159.653V160.342Z" fill="#003E80"/>
<path opacity="0.3" d="M143.224 160.342H114.224V163.141H143.224V160.342Z" fill="#4A191B"/>
<path opacity="0.1" d="M103.94 172.341H81.4352V175.14H103.94V172.341Z" fill="#003E80"/>
<path opacity="0.1" d="M176.001 172.341H153.497V175.14H176.001V172.341Z" fill="#003E80"/>
<path opacity="0.3" d="M153.508 172.341H103.951V175.14H153.508V172.341Z" fill="#4A191B"/>
<path opacity="0.1" d="M93.9235 184.363H58.0909V187.161H93.9235V184.363Z" fill="#003E80"/>
<path opacity="0.1" d="M199.346 184.363H163.513V187.161H199.346V184.363Z" fill="#003E80"/>
<path opacity="0.3" d="M163.513 184.363H93.9235V187.161H163.513V184.363Z" fill="#4A191B"/>
<path d="M58.3241 187.162H57.8577V174.918L81.2019 174.906V162.919L97.5616 162.908V150.909H114.108V151.376H98.028V163.374L81.6684 163.386V175.373L58.3241 175.384V187.162Z" fill="#95BEFF"/>
<path d="M199.579 187.162H199.112V175.384L175.78 175.373V163.386L159.42 163.374V151.376H143.072V150.909H159.887V162.908L176.246 162.919V174.906L199.579 174.918V187.162Z" fill="#95BEFF"/>
<path d="M125.768 69.9033L124.031 75.6752L130.817 77.8091L128.543 74.0195L129.208 70.6846L125.768 69.9033Z" fill="#001F40"/>
<path d="M128.437 73.8127L127.066 74.4868L127.272 74.9053L128.643 74.2312L128.437 73.8127Z" fill="white"/>
<path d="M124.567 51.8998L129.348 52.3546C130.327 52.4478 131.295 52.7743 132.065 53.3807C133.581 54.5584 134.175 56.3891 133.849 58.2547C133.767 58.7328 133.662 59.1876 133.592 59.5607L129.686 73.425L123.763 70.265L126.41 59.9455L120.393 59.7589L117.116 52.8793L118.306 47.3872L124.567 51.8998Z" fill="#007BFF"/>
<path d="M123.739 76.1187L122.258 82.427L129.709 84.2693L127.016 80.3397L127.506 76.7133L123.739 76.1187Z" fill="#001F40"/>
<path d="M126.896 80.1417L125.47 80.9604L125.702 81.3649L127.128 80.5462L126.896 80.1417Z" fill="white"/>
<path d="M117.373 59.8523L122.492 78.509L128.24 77.856L124.882 58.0799C124.556 56.3541 124.486 55.293 121.85 53.9871L119.028 52.4246L118.306 47.3989L114.026 50.1858L113.338 56.7389C113.175 58.3248 114.353 59.724 115.915 59.794L117.373 59.8523Z" fill="#007BFF"/>
<path d="M124.812 51.8068L116.288 52.7746C115.332 52.8795 114.481 52.2032 114.364 51.2471L112.883 38.6305L119.985 36.8931L127.517 38.0241L126.13 50.4775C126.06 51.1771 125.512 51.7252 124.812 51.8068Z" fill="white"/>
<path d="M107.088 23.5536C107.088 23.5536 107.753 20.3003 107.24 20.4169C106.727 20.5335 106.202 21.7812 106.202 21.7812C106.202 21.7812 105.071 19.076 104.639 19.0993C104.208 19.1226 104.336 19.8106 104.336 19.8106C104.336 19.8106 103.532 19.4258 103.322 20.2187C103.322 20.2187 102.517 19.8339 102.517 21.3148C102.517 21.8511 102.949 23.7168 103.497 25.874L107.356 24.4048L107.088 23.5536Z" fill="#FFBA9A"/>
<path d="M110.062 31.8909L107.356 24.4165L103.497 25.8857C104.173 28.5443 105.024 31.6576 105.467 33.2551C105.666 33.9547 106.015 34.6077 106.505 35.1441L114.248 44.3675L117.594 39.6217L110.062 31.8909Z" fill="#003E80"/>
<path d="M105.689 23.2738C105.304 22.819 105.339 22.3876 105.782 21.9795L105.864 22.0611C105.467 22.4226 105.444 22.7957 105.782 23.1922L105.689 23.2738Z" fill="#974245"/>
<path d="M104.292 19.7889L104.182 19.8271L104.732 21.4136L104.843 21.3754L104.292 19.7889Z" fill="#974245"/>
<path d="M103.905 21.6527L103.415 20.2068L103.532 20.1602L104.01 21.6177L103.905 21.6527Z" fill="#974245"/>
<path d="M103.38 22.0608L102.774 20.3933L102.879 20.3467L103.497 22.0258L103.38 22.0608Z" fill="#974245"/>
<path d="M137.056 18.9709C136.974 17.5017 135.971 17.7932 135.971 17.7932C135.773 17.1519 135.143 17.5833 135.143 17.5833C135.143 17.5833 135.178 17.1519 134.747 17.1519C134.315 17.1519 133.417 19.6589 133.417 19.6589C133.417 19.6589 132.811 18.4462 132.286 18.3645C131.762 18.2829 132.636 21.4779 132.636 21.4779L132.391 22.4807L136.309 23.8566C136.741 21.5595 137.09 19.5306 137.056 18.9709Z" fill="#FFBA9A"/>
<path d="M132.391 22.4922L130.129 30.1414L123.599 38.8518L127.331 42.7347L133.954 33.0099C134.409 32.4385 134.723 31.7739 134.863 31.051C135.19 29.4885 135.82 26.5034 136.309 23.8681L132.391 22.4922Z" fill="#003E80"/>
<path d="M134.059 21.1284L133.965 21.0584C134.257 20.627 134.187 20.2538 133.756 19.939L133.826 19.8457C134.315 20.2072 134.397 20.6386 134.059 21.1284Z" fill="#974245"/>
<path d="M135.069 17.5202L134.689 19.1558L134.803 19.1821L135.182 17.5465L135.069 17.5202Z" fill="#974245"/>
<path d="M135.871 17.8115L135.543 19.3032L135.657 19.3283L135.985 17.8365L135.871 17.8115Z" fill="#974245"/>
<path d="M136.228 19.6821L136.111 19.6471L136.542 17.9214L136.647 17.9447L136.228 19.6821Z" fill="#974245"/>
<path d="M119.891 38.9917C119.075 38.9917 118.41 38.327 118.41 37.5108V34.8872H121.361V37.5225C121.361 38.3387 120.708 38.9917 119.891 38.9917Z" fill="#FFBA9A"/>
<path d="M121.326 35.272C120.859 36.9161 118.97 36.9861 118.387 35.272H121.326Z" fill="#001F40"/>
<path d="M119.891 35.9253C121.096 35.9253 122.072 34.7872 122.072 33.3833C122.072 31.9794 121.096 30.8413 119.891 30.8413C118.687 30.8413 117.711 31.9794 117.711 33.3833C117.711 34.7872 118.687 35.9253 119.891 35.9253Z" fill="#FFBA9A"/>
<path d="M117.886 33.4298C118.014 31.6808 119.168 31.261 119.168 31.261L120.673 31.2377C121.291 31.7041 121.815 32.5786 121.85 33.4881L122.363 33.4648C122.69 31.7507 122.398 30.0716 121.407 29.6868L121.897 29.442C117.804 28.5324 116.79 30.1766 117.279 33.045L117.886 33.4298Z" fill="#001F40"/>
<path d="M118.166 33.2668C118.329 33.6049 118.212 34.0014 117.921 34.1413C117.618 34.2812 117.244 34.118 117.081 33.7798C116.918 33.4417 117.035 33.0452 117.326 32.9053C117.629 32.7537 118.002 32.917 118.166 33.2668Z" fill="#FFBA9A"/>
<path d="M117.723 33.6982C117.653 33.5 117.524 33.3717 117.326 33.3018L117.361 33.2085C117.594 33.2901 117.746 33.4417 117.827 33.6749L117.723 33.6982Z" fill="#001F40"/>
<path d="M121.687 33.2668C121.524 33.6049 121.64 34.0014 121.932 34.1413C122.235 34.2812 122.608 34.118 122.771 33.7798C122.935 33.4417 122.818 33.0452 122.527 32.9053C122.223 32.7537 121.85 32.917 121.687 33.2668Z" fill="#FFBA9A"/>
<path d="M122.118 33.6982L122.025 33.6632C122.107 33.43 122.258 33.2784 122.492 33.1968L122.527 33.2901C122.317 33.36 122.188 33.5 122.118 33.6982Z" fill="#001F40"/>
<path d="M118.376 37.2896C119.891 42.3968 119.378 50.1977 117.653 56.0396L111.508 56.9957L112.895 38.6305L118.376 37.2896Z" fill="#003E80"/>
<path d="M121.349 37.1147C121.815 43.0266 122.911 51.5854 125.092 55.6782L128.812 53.7775L127.529 38.0243L121.349 37.1147Z" fill="#003E80"/>
<path d="M128.112 77.8794C128.077 77.6812 124.87 58.0216 124.357 56.3542C123.856 54.7334 120.614 53.4041 120.579 53.3924L120.673 53.1709C120.812 53.2292 124.054 54.5468 124.59 56.2726C125.115 57.9517 128.229 77.0165 128.357 77.8327L128.112 77.8794Z" fill="#001F40"/>
<path d="M117.051 58.4467L116.826 58.5107L119.158 66.6727L119.383 66.6087L117.051 58.4467Z" fill="#001F40"/>
<path d="M128.1 60.2256L126.386 60.0623L126.41 59.8291L128.124 59.9924L128.1 60.2256Z" fill="#001F40"/>
<path d="M250.5 186.858H0.5V187.324H250.5V186.858Z" fill="#F3F5FF"/>
</svg>
