<svg width="40" height="40" viewBox="0 0 40 40" fill="none" xmlns="http://www.w3.org/2000/svg">
<rect x="39.75" y="0.25" width="39.5" height="39.5" rx="19.75" transform="rotate(90 39.75 0.25)" fill="white"/>
<rect x="39.75" y="0.25" width="39.5" height="39.5" rx="19.75" transform="rotate(90 39.75 0.25)" stroke="#DADEFF" stroke-width="0.5"/>
<path opacity="0.4" d="M3.33334 20.0006C3.33334 29.2054 10.7953 36.6673 20 36.6673C29.2048 36.6673 36.6667 29.2054 36.6667 20.0007C36.6667 10.7959 29.2048 3.33398 20 3.33398C10.7953 3.33398 3.33334 10.7959 3.33334 20.0006Z" fill="#6470CD"/>
<path d="M17.4507 29.7504C17.7507 29.6171 18.0007 29.3837 18.1341 29.0671C18.2007 28.9171 18.2341 28.7504 18.2341 28.5837L18.2341 11.4004C18.2341 10.7171 17.6674 10.1504 16.9841 10.1504C16.3007 10.1504 15.7341 10.7171 15.7341 11.4004L15.7341 25.5671L12.8007 22.6337C12.3174 22.1504 11.5174 22.1504 11.034 22.6337C10.784 22.8837 10.6674 23.2004 10.6674 23.517C10.6674 23.8337 10.784 24.1504 11.034 24.4004L16.1007 29.4671C16.2174 29.5837 16.3507 29.6671 16.5007 29.7337C16.8007 29.8671 17.1507 29.8671 17.4507 29.7504Z" fill="#6470CD"/>
<path d="M24.2832 28.5837L24.2832 14.4171L27.2165 17.3504C27.6998 17.8337 28.4999 17.8337 28.9832 17.3504C29.4665 16.8671 29.4665 16.0671 28.9832 15.5837L23.9165 10.5171C23.7999 10.4004 23.6665 10.3171 23.5165 10.2504C23.2165 10.1171 22.8665 10.1171 22.5665 10.2504C22.2665 10.3837 22.0165 10.6171 21.8832 10.9337C21.8165 11.0837 21.7832 11.2504 21.7832 11.4171L21.7832 28.6004C21.7832 29.2837 22.3499 29.8504 23.0332 29.8504C23.7165 29.8504 24.2832 29.2837 24.2832 28.5837Z" fill="#6470CD"/>
</svg>
