<svg width="20" height="20" viewBox="0 0 20 20" fill="none" xmlns="http://www.w3.org/2000/svg">
<path opacity="0.4" fill-rule="evenodd" clip-rule="evenodd" d="M18.3333 11.875C18.6785 11.875 18.9583 12.1548 18.9583 12.5C18.9583 16.0702 16.0702 18.9583 12.5 18.9583C12.2748 18.9583 12.0671 18.8372 11.9561 18.6413C11.8452 18.4453 11.8482 18.2049 11.9641 18.0118L12.8391 16.5534C13.0166 16.2575 13.4006 16.1615 13.6965 16.3391C13.9925 16.5167 14.0885 16.9006 13.9109 17.1966L13.6848 17.5734C15.9924 17.038 17.7083 14.9722 17.7083 12.5C17.7083 12.1548 17.9882 11.875 18.3333 11.875Z" fill="#2BB673"/>
<path opacity="0.4" fill-rule="evenodd" clip-rule="evenodd" d="M6.31517 2.42694C4.00758 2.96229 2.29166 5.02818 2.29166 7.50033C2.29166 7.8455 2.01184 8.12533 1.66666 8.12533C1.32149 8.12533 1.04166 7.8455 1.04166 7.50033C1.04166 3.93015 3.92982 1.04199 7.5 1.04199C7.72517 1.04199 7.93293 1.16311 8.04387 1.35905C8.15481 1.555 8.15178 1.79547 8.03593 1.98855L7.16094 3.44688C6.98335 3.74287 6.59944 3.83885 6.30345 3.66126C6.00746 3.48367 5.91148 3.09976 6.08907 2.80377L6.31517 2.42694Z" fill="#2BB673"/>
<path opacity="0.4" d="M10 13.0833V13.5917H1.66666V13.0833C1.66666 11.6167 2.03333 11.25 3.51667 11.25H8.15C9.63333 11.25 10 11.6167 10 13.0833Z" fill="#2BB673"/>
<path d="M1.66666 13.5918V14.8418V16.5001C1.66666 17.9668 2.03333 18.3335 3.51667 18.3335H8.15C9.63333 18.3335 10 17.9668 10 16.5001V14.8418V13.5918H1.66666Z" fill="#2BB673"/>
<path opacity="0.4" d="M18.3333 3.50033V4.00866H10V3.50033C10 2.03366 10.3667 1.66699 11.85 1.66699H16.4833C17.9667 1.66699 18.3333 2.03366 18.3333 3.50033Z" fill="#2BB673"/>
<path d="M10 4.00879V5.25879V6.91712C10 8.38379 10.3667 8.75046 11.85 8.75046H16.4833C17.9667 8.75046 18.3333 8.38379 18.3333 6.91712V5.25879V4.00879H10Z" fill="#2BB673"/>
</svg>
