<svg width="32" height="32" viewBox="0 0 32 32" fill="none" xmlns="http://www.w3.org/2000/svg">
<circle cx="16" cy="16" r="16" fill="#E5EAFF"/>
<path opacity="0.4" d="M20.0218 12.9249C19.9709 12.9176 19.92 12.9176 19.8691 12.9249C18.7418 12.8885 17.8473 11.9649 17.8473 10.8303C17.8473 9.67397 18.7855 8.72852 19.9491 8.72852C21.1055 8.72852 22.0509 9.6667 22.0509 10.8303C22.0437 11.9649 21.1491 12.8885 20.0218 12.9249Z" fill="#4751D1"/>
<path opacity="0.4" d="M22.3927 17.9636C21.5782 18.509 20.4364 18.7127 19.3818 18.5745C19.6582 17.9781 19.8036 17.3163 19.8109 16.6181C19.8109 15.8908 19.6509 15.1999 19.3455 14.5963C20.4218 14.4508 21.5636 14.6545 22.3855 15.1999C23.5346 15.9563 23.5346 17.1999 22.3927 17.9636Z" fill="#4751D1"/>
<path opacity="0.4" d="M11.9564 12.9249C12.0073 12.9176 12.0582 12.9176 12.1091 12.9249C13.2364 12.8885 14.1309 11.9649 14.1309 10.8303C14.1309 9.67397 13.1927 8.72852 12.0291 8.72852C10.8727 8.72852 9.92728 9.6667 9.92728 10.8303C9.93455 11.9649 10.8291 12.8885 11.9564 12.9249Z" fill="#4751D1"/>
<path opacity="0.4" d="M12.0364 16.6183C12.0364 17.3237 12.1891 17.9928 12.4655 18.5964C11.44 18.7055 10.3709 18.4874 9.58545 17.971C8.43636 17.2074 8.43636 15.9637 9.58545 15.2001C10.3636 14.6764 11.4618 14.4655 12.4945 14.5819C12.1964 15.1928 12.0364 15.8837 12.0364 16.6183Z" fill="#4751D1"/>
<path d="M16.0873 18.8147C16.0291 18.8074 15.9636 18.8074 15.8982 18.8147C14.56 18.7711 13.4909 17.6729 13.4909 16.3202C13.4909 14.9384 14.6036 13.8184 15.9927 13.8184C17.3745 13.8184 18.4945 14.9384 18.4945 16.3202C18.4945 17.6729 17.4327 18.7711 16.0873 18.8147Z" fill="#4751D1"/>
<path d="M13.7236 20.3206C12.6254 21.0552 12.6254 22.2624 13.7236 22.9897C14.9745 23.8261 17.0254 23.8261 18.2764 22.9897C19.3745 22.2552 19.3745 21.0479 18.2764 20.3206C17.0327 19.4843 14.9818 19.4843 13.7236 20.3206Z" fill="#4751D1"/>
</svg>
