<svg width="32" height="32" viewBox="0 0 32 32" fill="none" xmlns="http://www.w3.org/2000/svg">
<circle cx="16" cy="16" r="16" fill="#DADEFF"/>
<path opacity="0.4" d="M22.6036 13.514V18.4885C22.6036 19.3031 22.1673 20.0595 21.4618 20.474L17.1418 22.9685C16.4364 23.3758 15.5636 23.3758 14.8509 22.9685L10.5309 20.474C9.82546 20.0667 9.3891 19.3103 9.3891 18.4885V13.514C9.3891 12.6994 9.82546 11.9431 10.5309 11.5285L14.8509 9.03397C15.5564 8.6267 16.4291 8.6267 17.1418 9.03397L21.4618 11.5285C22.1673 11.9431 22.6036 12.6922 22.6036 13.514Z" fill="#303B89"/>
<path d="M16 16.0004C16.9359 16.0004 17.6945 15.2417 17.6945 14.3058C17.6945 13.37 16.9359 12.6113 16 12.6113C15.0641 12.6113 14.3055 13.37 14.3055 14.3058C14.3055 15.2417 15.0641 16.0004 16 16.0004Z" fill="#303B89"/>
<path d="M17.9491 19.3904C18.5382 19.3904 18.88 18.7359 18.5527 18.2486C18.0582 17.5141 17.0982 17.0195 16 17.0195C14.9018 17.0195 13.9418 17.5141 13.4473 18.2486C13.12 18.7359 13.4618 19.3904 14.0509 19.3904H17.9491Z" fill="#303B89"/>
</svg>
